%TF.GenerationSoftware,KiCad,Pcbnew,7.0.9*%
%TF.CreationDate,2023-11-27T14:53:40+10:00*%
%TF.ProjectId,cansult,63616e73-756c-4742-9e6b-696361645f70,rev?*%
%TF.SameCoordinates,Original*%
%TF.FileFunction,Legend,Top*%
%TF.FilePolarity,Positive*%
%FSLAX46Y46*%
G04 Gerber Fmt 4.6, Leading zero omitted, Abs format (unit mm)*
G04 Created by KiCad (PCBNEW 7.0.9) date 2023-11-27 14:53:40*
%MOMM*%
%LPD*%
G01*
G04 APERTURE LIST*
%ADD10C,0.175000*%
%ADD11C,0.150000*%
%ADD12C,0.120000*%
G04 APERTURE END LIST*
D10*
X180587500Y-82800000D02*
G75*
G03*
X180587500Y-82800000I-87500J0D01*
G01*
X192637500Y-79850000D02*
G75*
G03*
X192637500Y-79850000I-87500J0D01*
G01*
X168037500Y-88000000D02*
G75*
G03*
X168037500Y-88000000I-87500J0D01*
G01*
X186387500Y-101200000D02*
G75*
G03*
X186387500Y-101200000I-87500J0D01*
G01*
D11*
G36*
X173727960Y-93190723D02*
G01*
X173555121Y-93190723D01*
X173641540Y-92931465D01*
X173727960Y-93190723D01*
G37*
G36*
X175659398Y-93683581D02*
G01*
X172461778Y-93683581D01*
X172461778Y-93151438D01*
X172576064Y-93151438D01*
X172577249Y-93154695D01*
X172578303Y-93169629D01*
X172616399Y-93322010D01*
X172618388Y-93324955D01*
X172622078Y-93337360D01*
X172660173Y-93413550D01*
X172661359Y-93414673D01*
X172674222Y-93433042D01*
X172750412Y-93509233D01*
X172754475Y-93511127D01*
X172756823Y-93514949D01*
X172779728Y-93527351D01*
X172894014Y-93565446D01*
X172895648Y-93565401D01*
X172917731Y-93569295D01*
X172993922Y-93569295D01*
X172995460Y-93568734D01*
X173017639Y-93565446D01*
X173131924Y-93527351D01*
X173135436Y-93524563D01*
X173139903Y-93524173D01*
X173161240Y-93509233D01*
X173199336Y-93471137D01*
X173199597Y-93470578D01*
X173303723Y-93470578D01*
X173305124Y-93521862D01*
X173339161Y-93560247D01*
X173389910Y-93567772D01*
X173433622Y-93540917D01*
X173446025Y-93518012D01*
X173505121Y-93340723D01*
X173777960Y-93340723D01*
X173837056Y-93518012D01*
X173868947Y-93558198D01*
X173919208Y-93568484D01*
X173964322Y-93544056D01*
X173983179Y-93496344D01*
X173982875Y-93494295D01*
X174099874Y-93494295D01*
X174117421Y-93542504D01*
X174161850Y-93568156D01*
X174212374Y-93559247D01*
X174245351Y-93519947D01*
X174249874Y-93494295D01*
X174249874Y-92976711D01*
X174566899Y-93531505D01*
X174572191Y-93535986D01*
X174574564Y-93542504D01*
X174591303Y-93552168D01*
X174606052Y-93564657D01*
X174612986Y-93564687D01*
X174618993Y-93568156D01*
X174638026Y-93564799D01*
X174657354Y-93564886D01*
X174662687Y-93560451D01*
X174669517Y-93559247D01*
X174681941Y-93544440D01*
X174696801Y-93532084D01*
X174698035Y-93525260D01*
X174702494Y-93519947D01*
X174707017Y-93494295D01*
X174937969Y-93494295D01*
X174955516Y-93542504D01*
X174999945Y-93568156D01*
X175050469Y-93559247D01*
X175083446Y-93519947D01*
X175087969Y-93494295D01*
X175087969Y-93150247D01*
X175395112Y-93150247D01*
X175395112Y-93494295D01*
X175412659Y-93542504D01*
X175457088Y-93568156D01*
X175507612Y-93559247D01*
X175540589Y-93519947D01*
X175545112Y-93494295D01*
X175545112Y-92694295D01*
X175527565Y-92646086D01*
X175483136Y-92620434D01*
X175432612Y-92629343D01*
X175399635Y-92668643D01*
X175395112Y-92694295D01*
X175395112Y-93000247D01*
X175087969Y-93000247D01*
X175087969Y-92694295D01*
X175070422Y-92646086D01*
X175025993Y-92620434D01*
X174975469Y-92629343D01*
X174942492Y-92668643D01*
X174937969Y-92694295D01*
X174937969Y-93494295D01*
X174707017Y-93494295D01*
X174707017Y-92694295D01*
X174689470Y-92646086D01*
X174645041Y-92620434D01*
X174594517Y-92629343D01*
X174561540Y-92668643D01*
X174557017Y-92694295D01*
X174557017Y-93211878D01*
X174239992Y-92657085D01*
X174234699Y-92652603D01*
X174232327Y-92646086D01*
X174215587Y-92636421D01*
X174200839Y-92623933D01*
X174193904Y-92623902D01*
X174187898Y-92620434D01*
X174168864Y-92623790D01*
X174149537Y-92623704D01*
X174144203Y-92628138D01*
X174137374Y-92629343D01*
X174124949Y-92644149D01*
X174110090Y-92656506D01*
X174108855Y-92663329D01*
X174104397Y-92668643D01*
X174099874Y-92694295D01*
X174099874Y-93494295D01*
X173982875Y-93494295D01*
X173979358Y-93470578D01*
X173712692Y-92670578D01*
X173711349Y-92668886D01*
X173711291Y-92666728D01*
X173695541Y-92648966D01*
X173680801Y-92630392D01*
X173678687Y-92629959D01*
X173677254Y-92628343D01*
X173653783Y-92624862D01*
X173630540Y-92620106D01*
X173628640Y-92621134D01*
X173626505Y-92620818D01*
X173606287Y-92633238D01*
X173585426Y-92644535D01*
X173584632Y-92646542D01*
X173582792Y-92647673D01*
X173570390Y-92670578D01*
X173303723Y-93470578D01*
X173199597Y-93470578D01*
X173221017Y-93424640D01*
X173207740Y-93375086D01*
X173165715Y-93345659D01*
X173114607Y-93350130D01*
X173093270Y-93365071D01*
X173067693Y-93390648D01*
X172981752Y-93419295D01*
X172929901Y-93419295D01*
X172843959Y-93390648D01*
X172788894Y-93335582D01*
X172759924Y-93277642D01*
X172726064Y-93142202D01*
X172726064Y-93046387D01*
X172759924Y-92910946D01*
X172788894Y-92853006D01*
X172843958Y-92797942D01*
X172929901Y-92769295D01*
X172981752Y-92769295D01*
X173067693Y-92797942D01*
X173093271Y-92823519D01*
X173139767Y-92845199D01*
X173189322Y-92831921D01*
X173218748Y-92789895D01*
X173214276Y-92738788D01*
X173199335Y-92717451D01*
X173161239Y-92679356D01*
X173157175Y-92677461D01*
X173154829Y-92673642D01*
X173131924Y-92661239D01*
X173017639Y-92623144D01*
X173016004Y-92623188D01*
X172993922Y-92619295D01*
X172917731Y-92619295D01*
X172916192Y-92619855D01*
X172894014Y-92623144D01*
X172779728Y-92661239D01*
X172776217Y-92664025D01*
X172771749Y-92664416D01*
X172750412Y-92679357D01*
X172674222Y-92755547D01*
X172673531Y-92757028D01*
X172660173Y-92775039D01*
X172622078Y-92851230D01*
X172621672Y-92854756D01*
X172616399Y-92866580D01*
X172578303Y-93018961D01*
X172578663Y-93022409D01*
X172576064Y-93037152D01*
X172576064Y-93151438D01*
X172461778Y-93151438D01*
X172461778Y-92505009D01*
X175659398Y-92505009D01*
X175659398Y-93683581D01*
G37*
G36*
X173727960Y-95690723D02*
G01*
X173555121Y-95690723D01*
X173641540Y-95431465D01*
X173727960Y-95690723D01*
G37*
G36*
X175582068Y-96183581D02*
G01*
X172461778Y-96183581D01*
X172461778Y-95651438D01*
X172576064Y-95651438D01*
X172577249Y-95654695D01*
X172578303Y-95669629D01*
X172616399Y-95822010D01*
X172618388Y-95824955D01*
X172622078Y-95837360D01*
X172660173Y-95913550D01*
X172661359Y-95914673D01*
X172674222Y-95933042D01*
X172750412Y-96009233D01*
X172754475Y-96011127D01*
X172756823Y-96014949D01*
X172779728Y-96027351D01*
X172894014Y-96065446D01*
X172895648Y-96065401D01*
X172917731Y-96069295D01*
X172993922Y-96069295D01*
X172995460Y-96068734D01*
X173017639Y-96065446D01*
X173131924Y-96027351D01*
X173135436Y-96024563D01*
X173139903Y-96024173D01*
X173161240Y-96009233D01*
X173199336Y-95971137D01*
X173199597Y-95970578D01*
X173303723Y-95970578D01*
X173305124Y-96021862D01*
X173339161Y-96060247D01*
X173389910Y-96067772D01*
X173433622Y-96040917D01*
X173446025Y-96018012D01*
X173505121Y-95840723D01*
X173777960Y-95840723D01*
X173837056Y-96018012D01*
X173868947Y-96058198D01*
X173919208Y-96068484D01*
X173964322Y-96044056D01*
X173983179Y-95996344D01*
X173982875Y-95994295D01*
X174099874Y-95994295D01*
X174117421Y-96042504D01*
X174161850Y-96068156D01*
X174212374Y-96059247D01*
X174245351Y-96019947D01*
X174249874Y-95994295D01*
X174249874Y-95476711D01*
X174566899Y-96031505D01*
X174572191Y-96035986D01*
X174574564Y-96042504D01*
X174591303Y-96052168D01*
X174606052Y-96064657D01*
X174612986Y-96064687D01*
X174618993Y-96068156D01*
X174638026Y-96064799D01*
X174657354Y-96064886D01*
X174662687Y-96060451D01*
X174669517Y-96059247D01*
X174681941Y-96044440D01*
X174696801Y-96032084D01*
X174698035Y-96025260D01*
X174702494Y-96019947D01*
X174707017Y-95994295D01*
X174937969Y-95994295D01*
X174944632Y-96012603D01*
X174948017Y-96031795D01*
X174953201Y-96036145D01*
X174955516Y-96042504D01*
X174972389Y-96052246D01*
X174987317Y-96064772D01*
X174997059Y-96066489D01*
X174999945Y-96068156D01*
X175003227Y-96067577D01*
X175012969Y-96069295D01*
X175393921Y-96069295D01*
X175442130Y-96051748D01*
X175467782Y-96007319D01*
X175458873Y-95956795D01*
X175419573Y-95923818D01*
X175393921Y-95919295D01*
X175087969Y-95919295D01*
X175087969Y-95194295D01*
X175070422Y-95146086D01*
X175025993Y-95120434D01*
X174975469Y-95129343D01*
X174942492Y-95168643D01*
X174937969Y-95194295D01*
X174937969Y-95994295D01*
X174707017Y-95994295D01*
X174707017Y-95194295D01*
X174689470Y-95146086D01*
X174645041Y-95120434D01*
X174594517Y-95129343D01*
X174561540Y-95168643D01*
X174557017Y-95194295D01*
X174557017Y-95711878D01*
X174239992Y-95157085D01*
X174234699Y-95152603D01*
X174232327Y-95146086D01*
X174215587Y-95136421D01*
X174200839Y-95123933D01*
X174193904Y-95123902D01*
X174187898Y-95120434D01*
X174168864Y-95123790D01*
X174149537Y-95123704D01*
X174144203Y-95128138D01*
X174137374Y-95129343D01*
X174124949Y-95144149D01*
X174110090Y-95156506D01*
X174108855Y-95163329D01*
X174104397Y-95168643D01*
X174099874Y-95194295D01*
X174099874Y-95994295D01*
X173982875Y-95994295D01*
X173979358Y-95970578D01*
X173712692Y-95170578D01*
X173711349Y-95168886D01*
X173711291Y-95166728D01*
X173695541Y-95148966D01*
X173680801Y-95130392D01*
X173678687Y-95129959D01*
X173677254Y-95128343D01*
X173653783Y-95124862D01*
X173630540Y-95120106D01*
X173628640Y-95121134D01*
X173626505Y-95120818D01*
X173606287Y-95133238D01*
X173585426Y-95144535D01*
X173584632Y-95146542D01*
X173582792Y-95147673D01*
X173570390Y-95170578D01*
X173303723Y-95970578D01*
X173199597Y-95970578D01*
X173221017Y-95924640D01*
X173207740Y-95875086D01*
X173165715Y-95845659D01*
X173114607Y-95850130D01*
X173093270Y-95865071D01*
X173067693Y-95890648D01*
X172981752Y-95919295D01*
X172929901Y-95919295D01*
X172843959Y-95890648D01*
X172788894Y-95835582D01*
X172759924Y-95777642D01*
X172726064Y-95642202D01*
X172726064Y-95546387D01*
X172759924Y-95410946D01*
X172788894Y-95353006D01*
X172843958Y-95297942D01*
X172929901Y-95269295D01*
X172981752Y-95269295D01*
X173067693Y-95297942D01*
X173093271Y-95323519D01*
X173139767Y-95345199D01*
X173189322Y-95331921D01*
X173218748Y-95289895D01*
X173214276Y-95238788D01*
X173199335Y-95217451D01*
X173161239Y-95179356D01*
X173157175Y-95177461D01*
X173154829Y-95173642D01*
X173131924Y-95161239D01*
X173017639Y-95123144D01*
X173016004Y-95123188D01*
X172993922Y-95119295D01*
X172917731Y-95119295D01*
X172916192Y-95119855D01*
X172894014Y-95123144D01*
X172779728Y-95161239D01*
X172776217Y-95164025D01*
X172771749Y-95164416D01*
X172750412Y-95179357D01*
X172674222Y-95255547D01*
X172673531Y-95257028D01*
X172660173Y-95275039D01*
X172622078Y-95351230D01*
X172621672Y-95354756D01*
X172616399Y-95366580D01*
X172578303Y-95518961D01*
X172578663Y-95522409D01*
X172576064Y-95537152D01*
X172576064Y-95651438D01*
X172461778Y-95651438D01*
X172461778Y-95005009D01*
X175582068Y-95005009D01*
X175582068Y-96183581D01*
G37*
G36*
X172556447Y-101207860D02*
G01*
X172573616Y-101225029D01*
X172598871Y-101275540D01*
X172629017Y-101396122D01*
X172629017Y-101549559D01*
X172598871Y-101670141D01*
X172573616Y-101720652D01*
X172556448Y-101737820D01*
X172514408Y-101758840D01*
X172481054Y-101758840D01*
X172439015Y-101737821D01*
X172421846Y-101720652D01*
X172396590Y-101670141D01*
X172366445Y-101549558D01*
X172366445Y-101396122D01*
X172396590Y-101275539D01*
X172421846Y-101225029D01*
X172439015Y-101207860D01*
X172481055Y-101186840D01*
X172514407Y-101186840D01*
X172556447Y-101207860D01*
G37*
G36*
X171877961Y-100390135D02*
G01*
X171742263Y-100390135D01*
X171810112Y-100186589D01*
X171877961Y-100390135D01*
G37*
G36*
X173707303Y-102011983D02*
G01*
X170738064Y-102011983D01*
X170738064Y-101820816D01*
X170842346Y-101820816D01*
X170851255Y-101871340D01*
X170890555Y-101904317D01*
X170916207Y-101908840D01*
X171328779Y-101908840D01*
X171376988Y-101891293D01*
X171402640Y-101846864D01*
X171399191Y-101827303D01*
X171494731Y-101827303D01*
X171500572Y-101849104D01*
X171504493Y-101871340D01*
X171507120Y-101873544D01*
X171508008Y-101876858D01*
X171526498Y-101889805D01*
X171543793Y-101904317D01*
X171548378Y-101905125D01*
X171550033Y-101906284D01*
X171553318Y-101905996D01*
X171569445Y-101908840D01*
X172016398Y-101908840D01*
X172064607Y-101891293D01*
X172090259Y-101846864D01*
X172081350Y-101796340D01*
X172042050Y-101763363D01*
X172016398Y-101758840D01*
X171750511Y-101758840D01*
X171950559Y-101558793D01*
X172216445Y-101558793D01*
X172217630Y-101562050D01*
X172218684Y-101576983D01*
X172253065Y-101714507D01*
X172255053Y-101717451D01*
X172258744Y-101729858D01*
X172293125Y-101798620D01*
X172294314Y-101799745D01*
X172307174Y-101818112D01*
X172341555Y-101852493D01*
X172343037Y-101853184D01*
X172361048Y-101866542D01*
X172429810Y-101900923D01*
X172434263Y-101901435D01*
X172437698Y-101904317D01*
X172463350Y-101908840D01*
X172532112Y-101908840D01*
X172536324Y-101907306D01*
X172540686Y-101908349D01*
X172565652Y-101900922D01*
X172634414Y-101866542D01*
X172635538Y-101865354D01*
X172653907Y-101852493D01*
X172688288Y-101818112D01*
X172688979Y-101816630D01*
X172702337Y-101798620D01*
X172736718Y-101729858D01*
X172737124Y-101726329D01*
X172742397Y-101714507D01*
X172776778Y-101576984D01*
X172776417Y-101573535D01*
X172779017Y-101558793D01*
X172779017Y-101490031D01*
X172904064Y-101490031D01*
X172904624Y-101491569D01*
X172907913Y-101513748D01*
X172942294Y-101616891D01*
X172945081Y-101620403D01*
X172945472Y-101624870D01*
X172960412Y-101646207D01*
X173029174Y-101714969D01*
X173030655Y-101715660D01*
X173048666Y-101729018D01*
X173075969Y-101742669D01*
X173075969Y-101758840D01*
X172979064Y-101758840D01*
X172930855Y-101776387D01*
X172905203Y-101820816D01*
X172914112Y-101871340D01*
X172953412Y-101904317D01*
X172979064Y-101908840D01*
X173150969Y-101908840D01*
X173169277Y-101902176D01*
X173188469Y-101898792D01*
X173192819Y-101893607D01*
X173199178Y-101891293D01*
X173208920Y-101874419D01*
X173221446Y-101859492D01*
X173223163Y-101849749D01*
X173224830Y-101846864D01*
X173224251Y-101843581D01*
X173225969Y-101833840D01*
X173225969Y-101696317D01*
X173225159Y-101694091D01*
X173225834Y-101691823D01*
X173216470Y-101670221D01*
X173208422Y-101648108D01*
X173206372Y-101646924D01*
X173205431Y-101644752D01*
X173184510Y-101629235D01*
X173126634Y-101600297D01*
X173078997Y-101552660D01*
X173054064Y-101477861D01*
X173054064Y-101330296D01*
X173078997Y-101255497D01*
X173122721Y-101211773D01*
X173197520Y-101186840D01*
X173310704Y-101186840D01*
X173385503Y-101211773D01*
X173429227Y-101255497D01*
X173454160Y-101330296D01*
X173454160Y-101477861D01*
X173429227Y-101552660D01*
X173381590Y-101600297D01*
X173323714Y-101629235D01*
X173322086Y-101630953D01*
X173319755Y-101631365D01*
X173304620Y-101649401D01*
X173288442Y-101666489D01*
X173288300Y-101668850D01*
X173286778Y-101670665D01*
X173282255Y-101696317D01*
X173282255Y-101833840D01*
X173288918Y-101852148D01*
X173292303Y-101871340D01*
X173297487Y-101875690D01*
X173299802Y-101882049D01*
X173316675Y-101891791D01*
X173331603Y-101904317D01*
X173341345Y-101906034D01*
X173344231Y-101907701D01*
X173347513Y-101907122D01*
X173357255Y-101908840D01*
X173529160Y-101908840D01*
X173577369Y-101891293D01*
X173603021Y-101846864D01*
X173594112Y-101796340D01*
X173554812Y-101763363D01*
X173529160Y-101758840D01*
X173432255Y-101758840D01*
X173432255Y-101742669D01*
X173459558Y-101729018D01*
X173460683Y-101727828D01*
X173479050Y-101714969D01*
X173547812Y-101646207D01*
X173549707Y-101642142D01*
X173553527Y-101639796D01*
X173565930Y-101616891D01*
X173600311Y-101513748D01*
X173600266Y-101512113D01*
X173604160Y-101490031D01*
X173604160Y-101318126D01*
X173603599Y-101316587D01*
X173600311Y-101294409D01*
X173565930Y-101191266D01*
X173563142Y-101187753D01*
X173562752Y-101183287D01*
X173547812Y-101161950D01*
X173479050Y-101093188D01*
X173474986Y-101091293D01*
X173472639Y-101087472D01*
X173449734Y-101075070D01*
X173346591Y-101040689D01*
X173344956Y-101040733D01*
X173322874Y-101036840D01*
X173185350Y-101036840D01*
X173183811Y-101037400D01*
X173161633Y-101040689D01*
X173058490Y-101075070D01*
X173054977Y-101077857D01*
X173050511Y-101078248D01*
X173029174Y-101093188D01*
X172960412Y-101161950D01*
X172958517Y-101166013D01*
X172954696Y-101168361D01*
X172942294Y-101191266D01*
X172907913Y-101294409D01*
X172907957Y-101296043D01*
X172904064Y-101318126D01*
X172904064Y-101490031D01*
X172779017Y-101490031D01*
X172779017Y-101386888D01*
X172777831Y-101383631D01*
X172776778Y-101368697D01*
X172742397Y-101231174D01*
X172740408Y-101228229D01*
X172736718Y-101215823D01*
X172702337Y-101147061D01*
X172701147Y-101145935D01*
X172688288Y-101127569D01*
X172653907Y-101093188D01*
X172652425Y-101092497D01*
X172634415Y-101079139D01*
X172565653Y-101044758D01*
X172561199Y-101044245D01*
X172557764Y-101041363D01*
X172532112Y-101036840D01*
X172463350Y-101036840D01*
X172459136Y-101038373D01*
X172454775Y-101037332D01*
X172429809Y-101044758D01*
X172361047Y-101079139D01*
X172359921Y-101080328D01*
X172341555Y-101093188D01*
X172307174Y-101127569D01*
X172306483Y-101129050D01*
X172293125Y-101147061D01*
X172258744Y-101215823D01*
X172258337Y-101219351D01*
X172253065Y-101231174D01*
X172218684Y-101368698D01*
X172219044Y-101372146D01*
X172216445Y-101386888D01*
X172216445Y-101558793D01*
X171950559Y-101558793D01*
X172035050Y-101474302D01*
X172036945Y-101470237D01*
X172040765Y-101467891D01*
X172053168Y-101444986D01*
X172087549Y-101341843D01*
X172087504Y-101340208D01*
X172091398Y-101318126D01*
X172091398Y-101249364D01*
X172089864Y-101245150D01*
X172090906Y-101240789D01*
X172083480Y-101215823D01*
X172049099Y-101147061D01*
X172047909Y-101145935D01*
X172035050Y-101127569D01*
X172000669Y-101093188D01*
X171999187Y-101092497D01*
X171981177Y-101079139D01*
X171912415Y-101044758D01*
X171907961Y-101044245D01*
X171904526Y-101041363D01*
X171878874Y-101036840D01*
X171706969Y-101036840D01*
X171702755Y-101038373D01*
X171698394Y-101037332D01*
X171673428Y-101044758D01*
X171604666Y-101079139D01*
X171603540Y-101080328D01*
X171585174Y-101093188D01*
X171550793Y-101127569D01*
X171529112Y-101174066D01*
X171542389Y-101223620D01*
X171584415Y-101253047D01*
X171635522Y-101248575D01*
X171656859Y-101233635D01*
X171682634Y-101207860D01*
X171724674Y-101186840D01*
X171861169Y-101186840D01*
X171903209Y-101207860D01*
X171920378Y-101225029D01*
X171941398Y-101267069D01*
X171941398Y-101305956D01*
X171916465Y-101380754D01*
X171516412Y-101780807D01*
X171506873Y-101801262D01*
X171495584Y-101820816D01*
X171496179Y-101824195D01*
X171494731Y-101827303D01*
X171399191Y-101827303D01*
X171393731Y-101796340D01*
X171354431Y-101763363D01*
X171328779Y-101758840D01*
X171197493Y-101758840D01*
X171197493Y-101111840D01*
X171196017Y-101107786D01*
X171197038Y-101103597D01*
X171187391Y-101084086D01*
X171179946Y-101063631D01*
X171176211Y-101061474D01*
X171174300Y-101057609D01*
X171154372Y-101048865D01*
X171135517Y-101037979D01*
X171131268Y-101038728D01*
X171127320Y-101036996D01*
X171106433Y-101043107D01*
X171084993Y-101046888D01*
X171082220Y-101050192D01*
X171078082Y-101051403D01*
X171060089Y-101070238D01*
X170995445Y-101167202D01*
X170940542Y-101222106D01*
X170882666Y-101251044D01*
X170847394Y-101288298D01*
X170844319Y-101339509D01*
X170874883Y-101380714D01*
X170924781Y-101392634D01*
X170949748Y-101385208D01*
X171018510Y-101350827D01*
X171019635Y-101349637D01*
X171038002Y-101336778D01*
X171047493Y-101327287D01*
X171047493Y-101758840D01*
X170916207Y-101758840D01*
X170867998Y-101776387D01*
X170842346Y-101820816D01*
X170738064Y-101820816D01*
X170738064Y-100361992D01*
X170841207Y-100361992D01*
X170842392Y-100365249D01*
X170843446Y-100380182D01*
X170877827Y-100517706D01*
X170879815Y-100520650D01*
X170883506Y-100533057D01*
X170917887Y-100601819D01*
X170919076Y-100602944D01*
X170931936Y-100621311D01*
X171000698Y-100690073D01*
X171004761Y-100691967D01*
X171007109Y-100695789D01*
X171030015Y-100708191D01*
X171133158Y-100742571D01*
X171134791Y-100742526D01*
X171156874Y-100746420D01*
X171225636Y-100746420D01*
X171227174Y-100745859D01*
X171249352Y-100742571D01*
X171352496Y-100708191D01*
X171356008Y-100705403D01*
X171360475Y-100705013D01*
X171381812Y-100690073D01*
X171416193Y-100655692D01*
X171419918Y-100647703D01*
X171498294Y-100647703D01*
X171499695Y-100698987D01*
X171533732Y-100737372D01*
X171584481Y-100744897D01*
X171628193Y-100718042D01*
X171640596Y-100695137D01*
X171692263Y-100540135D01*
X171927961Y-100540135D01*
X171979628Y-100695137D01*
X172011519Y-100735323D01*
X172061780Y-100745609D01*
X172106894Y-100721180D01*
X172125751Y-100673469D01*
X172125447Y-100671420D01*
X172216445Y-100671420D01*
X172233992Y-100719629D01*
X172278421Y-100745281D01*
X172328945Y-100736372D01*
X172361922Y-100697072D01*
X172366445Y-100671420D01*
X172366445Y-100231836D01*
X172638899Y-100708631D01*
X172644192Y-100713112D01*
X172646564Y-100719629D01*
X172663301Y-100729292D01*
X172678052Y-100741782D01*
X172684986Y-100741812D01*
X172690993Y-100745281D01*
X172710026Y-100741924D01*
X172729355Y-100742011D01*
X172734688Y-100737576D01*
X172741517Y-100736372D01*
X172753938Y-100721568D01*
X172768802Y-100709209D01*
X172770036Y-100702383D01*
X172774494Y-100697072D01*
X172779017Y-100671420D01*
X172779017Y-99949420D01*
X172761470Y-99901211D01*
X172717041Y-99875559D01*
X172666517Y-99884468D01*
X172633540Y-99923768D01*
X172629017Y-99949420D01*
X172629017Y-100389003D01*
X172356563Y-99912210D01*
X172351270Y-99907728D01*
X172348898Y-99901211D01*
X172332158Y-99891546D01*
X172317410Y-99879058D01*
X172310475Y-99879027D01*
X172304469Y-99875559D01*
X172285435Y-99878915D01*
X172266108Y-99878829D01*
X172260774Y-99883263D01*
X172253945Y-99884468D01*
X172241520Y-99899274D01*
X172226661Y-99911631D01*
X172225426Y-99918454D01*
X172220968Y-99923768D01*
X172216445Y-99949420D01*
X172216445Y-100671420D01*
X172125447Y-100671420D01*
X172121930Y-100647703D01*
X171881263Y-99925703D01*
X171879920Y-99924011D01*
X171879862Y-99921853D01*
X171864112Y-99904091D01*
X171849372Y-99885517D01*
X171847258Y-99885084D01*
X171845825Y-99883468D01*
X171822354Y-99879987D01*
X171799111Y-99875231D01*
X171797211Y-99876259D01*
X171795076Y-99875943D01*
X171774855Y-99888365D01*
X171753997Y-99899660D01*
X171753203Y-99901666D01*
X171751364Y-99902797D01*
X171738961Y-99925703D01*
X171498294Y-100647703D01*
X171419918Y-100647703D01*
X171437874Y-100609196D01*
X171424597Y-100559641D01*
X171382571Y-100530215D01*
X171331464Y-100534686D01*
X171310127Y-100549626D01*
X171288264Y-100571488D01*
X171213467Y-100596420D01*
X171169044Y-100596420D01*
X171094245Y-100571488D01*
X171046608Y-100523851D01*
X171021352Y-100473340D01*
X170991207Y-100352757D01*
X170991207Y-100268083D01*
X171021352Y-100147500D01*
X171046608Y-100096990D01*
X171094245Y-100049353D01*
X171169044Y-100024420D01*
X171213466Y-100024420D01*
X171288265Y-100049353D01*
X171310127Y-100071215D01*
X171356623Y-100092896D01*
X171406178Y-100079619D01*
X171435604Y-100037593D01*
X171431133Y-99986486D01*
X171416193Y-99965149D01*
X171381812Y-99930768D01*
X171377748Y-99928873D01*
X171375401Y-99925052D01*
X171352496Y-99912650D01*
X171249353Y-99878269D01*
X171247718Y-99878313D01*
X171225636Y-99874420D01*
X171156874Y-99874420D01*
X171155335Y-99874980D01*
X171133157Y-99878269D01*
X171030014Y-99912650D01*
X171026501Y-99915437D01*
X171022035Y-99915828D01*
X171000698Y-99930768D01*
X170931936Y-99999530D01*
X170931245Y-100001011D01*
X170917887Y-100019022D01*
X170883506Y-100087784D01*
X170883099Y-100091312D01*
X170877827Y-100103135D01*
X170843446Y-100240659D01*
X170843806Y-100244107D01*
X170841207Y-100258849D01*
X170841207Y-100361992D01*
X170738064Y-100361992D01*
X170738064Y-99771277D01*
X173707303Y-99771277D01*
X173707303Y-102011983D01*
G37*
G36*
X179956151Y-95088893D02*
G01*
X179973121Y-95105863D01*
X179997857Y-95155333D01*
X179997857Y-95234208D01*
X179973121Y-95283678D01*
X179952238Y-95304561D01*
X179902771Y-95329295D01*
X179690714Y-95329295D01*
X179690714Y-95060247D01*
X179870210Y-95060247D01*
X179956151Y-95088893D01*
G37*
G36*
X179914144Y-94704029D02*
G01*
X179935026Y-94724911D01*
X179959761Y-94774380D01*
X179959761Y-94815161D01*
X179935026Y-94864630D01*
X179914144Y-94885512D01*
X179864675Y-94910247D01*
X179690714Y-94910247D01*
X179690714Y-94679295D01*
X179864675Y-94679295D01*
X179914144Y-94704029D01*
G37*
G36*
X180946718Y-95593581D02*
G01*
X179426428Y-95593581D01*
X179426428Y-95404295D01*
X179540714Y-95404295D01*
X179547377Y-95422603D01*
X179550762Y-95441795D01*
X179555946Y-95446145D01*
X179558261Y-95452504D01*
X179575134Y-95462246D01*
X179590062Y-95474772D01*
X179599804Y-95476489D01*
X179602690Y-95478156D01*
X179605972Y-95477577D01*
X179615714Y-95479295D01*
X179920476Y-95479295D01*
X179924689Y-95477761D01*
X179929050Y-95478803D01*
X179954017Y-95471377D01*
X180030207Y-95433282D01*
X180031331Y-95432094D01*
X180049700Y-95419232D01*
X180087795Y-95381136D01*
X180088486Y-95379652D01*
X180101843Y-95361646D01*
X180139938Y-95285456D01*
X180140450Y-95281002D01*
X180143334Y-95277566D01*
X180147857Y-95251914D01*
X180147857Y-95137628D01*
X180146323Y-95133413D01*
X180147365Y-95129052D01*
X180139938Y-95104086D01*
X180101843Y-95027896D01*
X180100652Y-95026768D01*
X180087795Y-95008406D01*
X180049700Y-94970310D01*
X180045635Y-94968414D01*
X180044775Y-94967013D01*
X180049699Y-94962090D01*
X180050390Y-94960608D01*
X180063748Y-94942598D01*
X180101843Y-94866407D01*
X180102355Y-94861953D01*
X180105238Y-94858518D01*
X180109761Y-94832866D01*
X180109761Y-94756676D01*
X180108227Y-94752463D01*
X180109270Y-94748102D01*
X180101843Y-94723135D01*
X180063748Y-94646944D01*
X180062558Y-94645818D01*
X180049699Y-94627452D01*
X180013518Y-94591271D01*
X180227567Y-94591271D01*
X180236476Y-94641795D01*
X180275776Y-94674772D01*
X180301428Y-94679295D01*
X180454999Y-94679295D01*
X180454999Y-95404295D01*
X180472546Y-95452504D01*
X180516975Y-95478156D01*
X180567499Y-95469247D01*
X180600476Y-95429947D01*
X180604999Y-95404295D01*
X180604999Y-94679295D01*
X180758571Y-94679295D01*
X180806780Y-94661748D01*
X180832432Y-94617319D01*
X180823523Y-94566795D01*
X180784223Y-94533818D01*
X180758571Y-94529295D01*
X180301428Y-94529295D01*
X180253219Y-94546842D01*
X180227567Y-94591271D01*
X180013518Y-94591271D01*
X180011604Y-94589357D01*
X180010122Y-94588666D01*
X179992112Y-94575308D01*
X179915921Y-94537213D01*
X179911467Y-94536700D01*
X179908032Y-94533818D01*
X179882380Y-94529295D01*
X179615714Y-94529295D01*
X179597405Y-94535958D01*
X179578214Y-94539343D01*
X179573863Y-94544527D01*
X179567505Y-94546842D01*
X179557762Y-94563715D01*
X179545237Y-94578643D01*
X179543519Y-94588385D01*
X179541853Y-94591271D01*
X179542431Y-94594553D01*
X179540714Y-94604295D01*
X179540714Y-95404295D01*
X179426428Y-95404295D01*
X179426428Y-94415009D01*
X180946718Y-94415009D01*
X180946718Y-95593581D01*
G37*
G36*
X185510528Y-75933581D02*
G01*
X181704523Y-75933581D01*
X181704523Y-75401438D01*
X181818809Y-75401438D01*
X181819994Y-75404695D01*
X181821048Y-75419629D01*
X181859144Y-75572010D01*
X181861133Y-75574955D01*
X181864823Y-75587360D01*
X181902918Y-75663550D01*
X181904104Y-75664673D01*
X181916967Y-75683042D01*
X181993157Y-75759233D01*
X181997220Y-75761127D01*
X181999568Y-75764949D01*
X182022473Y-75777351D01*
X182136759Y-75815446D01*
X182138393Y-75815401D01*
X182160476Y-75819295D01*
X182236667Y-75819295D01*
X182238205Y-75818734D01*
X182260384Y-75815446D01*
X182374669Y-75777351D01*
X182378181Y-75774563D01*
X182382648Y-75774173D01*
X182403985Y-75759233D01*
X182418923Y-75744295D01*
X182656905Y-75744295D01*
X182674452Y-75792504D01*
X182718881Y-75818156D01*
X182769405Y-75809247D01*
X182802382Y-75769947D01*
X182806905Y-75744295D01*
X182806905Y-75226711D01*
X183123930Y-75781505D01*
X183129222Y-75785986D01*
X183131595Y-75792504D01*
X183148334Y-75802168D01*
X183163083Y-75814657D01*
X183170017Y-75814687D01*
X183176024Y-75818156D01*
X183195057Y-75814799D01*
X183214385Y-75814886D01*
X183219718Y-75810451D01*
X183226548Y-75809247D01*
X183238972Y-75794440D01*
X183253832Y-75782084D01*
X183255066Y-75775260D01*
X183259525Y-75769947D01*
X183264048Y-75744295D01*
X183264048Y-75172866D01*
X183456904Y-75172866D01*
X183458437Y-75177079D01*
X183457396Y-75181441D01*
X183464822Y-75206407D01*
X183502918Y-75282598D01*
X183504107Y-75283723D01*
X183516967Y-75302090D01*
X183555062Y-75340185D01*
X183556543Y-75340876D01*
X183574554Y-75354234D01*
X183650744Y-75392329D01*
X183654272Y-75392735D01*
X183666095Y-75398008D01*
X183810489Y-75434106D01*
X183868430Y-75463077D01*
X183889313Y-75483960D01*
X183914047Y-75533428D01*
X183914047Y-75574209D01*
X183889312Y-75623677D01*
X183868429Y-75644561D01*
X183818961Y-75669295D01*
X183658360Y-75669295D01*
X183555621Y-75635049D01*
X183504337Y-75636450D01*
X183465952Y-75670488D01*
X183458427Y-75721236D01*
X183485282Y-75764949D01*
X183508187Y-75777351D01*
X183622473Y-75815446D01*
X183624107Y-75815401D01*
X183646190Y-75819295D01*
X183836666Y-75819295D01*
X183840878Y-75817761D01*
X183845240Y-75818804D01*
X183870207Y-75811377D01*
X183946398Y-75773282D01*
X183947522Y-75772094D01*
X183965891Y-75759232D01*
X183980828Y-75744295D01*
X184256905Y-75744295D01*
X184263568Y-75762603D01*
X184266953Y-75781795D01*
X184272137Y-75786145D01*
X184274452Y-75792504D01*
X184291325Y-75802246D01*
X184306253Y-75814772D01*
X184315995Y-75816489D01*
X184318881Y-75818156D01*
X184322163Y-75817577D01*
X184331905Y-75819295D01*
X184712857Y-75819295D01*
X184761066Y-75801748D01*
X184786718Y-75757319D01*
X184777809Y-75706795D01*
X184738509Y-75673818D01*
X184712857Y-75669295D01*
X184406905Y-75669295D01*
X184406905Y-74944295D01*
X184402165Y-74931271D01*
X184791377Y-74931271D01*
X184800286Y-74981795D01*
X184839586Y-75014772D01*
X184865238Y-75019295D01*
X185018809Y-75019295D01*
X185018809Y-75744295D01*
X185036356Y-75792504D01*
X185080785Y-75818156D01*
X185131309Y-75809247D01*
X185164286Y-75769947D01*
X185168809Y-75744295D01*
X185168809Y-75019295D01*
X185322381Y-75019295D01*
X185370590Y-75001748D01*
X185396242Y-74957319D01*
X185387333Y-74906795D01*
X185348033Y-74873818D01*
X185322381Y-74869295D01*
X184865238Y-74869295D01*
X184817029Y-74886842D01*
X184791377Y-74931271D01*
X184402165Y-74931271D01*
X184389358Y-74896086D01*
X184344929Y-74870434D01*
X184294405Y-74879343D01*
X184261428Y-74918643D01*
X184256905Y-74944295D01*
X184256905Y-75744295D01*
X183980828Y-75744295D01*
X184003986Y-75721136D01*
X184004677Y-75719653D01*
X184018034Y-75701645D01*
X184056129Y-75625455D01*
X184056641Y-75621001D01*
X184059524Y-75617566D01*
X184064047Y-75591914D01*
X184064047Y-75515723D01*
X184062513Y-75511509D01*
X184063555Y-75507149D01*
X184056129Y-75482182D01*
X184018034Y-75405992D01*
X184016844Y-75404866D01*
X184003985Y-75386500D01*
X183965890Y-75348405D01*
X183964405Y-75347712D01*
X183946398Y-75334356D01*
X183870207Y-75296260D01*
X183866678Y-75295853D01*
X183854856Y-75290581D01*
X183710460Y-75254482D01*
X183652522Y-75225513D01*
X183631639Y-75204630D01*
X183606904Y-75155160D01*
X183606904Y-75114381D01*
X183631639Y-75064911D01*
X183652522Y-75044029D01*
X183701990Y-75019295D01*
X183862592Y-75019295D01*
X183965330Y-75053541D01*
X184016614Y-75052140D01*
X184054999Y-75018103D01*
X184062524Y-74967354D01*
X184035669Y-74923642D01*
X184012764Y-74911239D01*
X183898479Y-74873144D01*
X183896844Y-74873188D01*
X183874762Y-74869295D01*
X183684285Y-74869295D01*
X183680071Y-74870828D01*
X183675711Y-74869787D01*
X183650744Y-74877213D01*
X183574554Y-74915308D01*
X183573428Y-74916497D01*
X183555062Y-74929357D01*
X183516967Y-74967452D01*
X183516274Y-74968936D01*
X183502918Y-74986944D01*
X183464822Y-75063135D01*
X183464309Y-75067588D01*
X183461427Y-75071024D01*
X183456904Y-75096676D01*
X183456904Y-75172866D01*
X183264048Y-75172866D01*
X183264048Y-74944295D01*
X183246501Y-74896086D01*
X183202072Y-74870434D01*
X183151548Y-74879343D01*
X183118571Y-74918643D01*
X183114048Y-74944295D01*
X183114048Y-75461878D01*
X182797023Y-74907085D01*
X182791730Y-74902603D01*
X182789358Y-74896086D01*
X182772618Y-74886421D01*
X182757870Y-74873933D01*
X182750935Y-74873902D01*
X182744929Y-74870434D01*
X182725895Y-74873790D01*
X182706568Y-74873704D01*
X182701234Y-74878138D01*
X182694405Y-74879343D01*
X182681980Y-74894149D01*
X182667121Y-74906506D01*
X182665886Y-74913329D01*
X182661428Y-74918643D01*
X182656905Y-74944295D01*
X182656905Y-75744295D01*
X182418923Y-75744295D01*
X182442081Y-75721137D01*
X182463762Y-75674640D01*
X182450485Y-75625086D01*
X182408460Y-75595659D01*
X182357352Y-75600130D01*
X182336015Y-75615071D01*
X182310438Y-75640648D01*
X182224497Y-75669295D01*
X182172646Y-75669295D01*
X182086704Y-75640648D01*
X182031639Y-75585582D01*
X182002669Y-75527642D01*
X181968809Y-75392202D01*
X181968809Y-75296387D01*
X182002669Y-75160946D01*
X182031639Y-75103006D01*
X182086703Y-75047942D01*
X182172646Y-75019295D01*
X182224497Y-75019295D01*
X182310438Y-75047942D01*
X182336016Y-75073519D01*
X182382512Y-75095199D01*
X182432067Y-75081921D01*
X182461493Y-75039895D01*
X182457021Y-74988788D01*
X182442080Y-74967451D01*
X182403984Y-74929356D01*
X182399920Y-74927461D01*
X182397574Y-74923642D01*
X182374669Y-74911239D01*
X182260384Y-74873144D01*
X182258749Y-74873188D01*
X182236667Y-74869295D01*
X182160476Y-74869295D01*
X182158937Y-74869855D01*
X182136759Y-74873144D01*
X182022473Y-74911239D01*
X182018962Y-74914025D01*
X182014494Y-74914416D01*
X181993157Y-74929357D01*
X181916967Y-75005547D01*
X181916276Y-75007028D01*
X181902918Y-75025039D01*
X181864823Y-75101230D01*
X181864417Y-75104756D01*
X181859144Y-75116580D01*
X181821048Y-75268961D01*
X181821408Y-75272409D01*
X181818809Y-75287152D01*
X181818809Y-75401438D01*
X181704523Y-75401438D01*
X181704523Y-74755009D01*
X185510528Y-74755009D01*
X185510528Y-75933581D01*
G37*
D12*
%TO.C,C25*%
X205959420Y-93890000D02*
X206240580Y-93890000D01*
X205959420Y-94910000D02*
X206240580Y-94910000D01*
%TO.C,U5*%
X202600000Y-102710000D02*
X196590000Y-102710000D01*
X200350000Y-95890000D02*
X196590000Y-95890000D01*
X196590000Y-102710000D02*
X196590000Y-101450000D01*
X196590000Y-95890000D02*
X196590000Y-97150000D01*
%TO.C,R2*%
X190837258Y-80622500D02*
X190362742Y-80622500D01*
X190837258Y-79577500D02*
X190362742Y-79577500D01*
%TO.C,J4*%
X184160000Y-102510000D02*
X185760000Y-102510000D01*
X185760000Y-102510000D02*
X185760000Y-100710000D01*
X181290000Y-101240000D02*
X181290000Y-94060000D01*
X185760000Y-100710000D02*
X186700000Y-100710000D01*
X184160000Y-92790000D02*
X185760000Y-92790000D01*
X185760000Y-92790000D02*
X185760000Y-94590000D01*
%TO.C,C15*%
X181710000Y-90634420D02*
X181710000Y-90915580D01*
X180690000Y-90634420D02*
X180690000Y-90915580D01*
%TO.C,Q2*%
X186440000Y-76800000D02*
X186440000Y-78475000D01*
X186440000Y-76800000D02*
X186440000Y-76150000D01*
X189560000Y-76800000D02*
X189560000Y-77450000D01*
X189560000Y-76800000D02*
X189560000Y-76150000D01*
%TO.C,C23*%
X205984420Y-92190000D02*
X206265580Y-92190000D01*
X205984420Y-93210000D02*
X206265580Y-93210000D01*
%TO.C,R5*%
X192922500Y-76962742D02*
X192922500Y-77437258D01*
X191877500Y-76962742D02*
X191877500Y-77437258D01*
%TO.C,F1*%
X199758578Y-71710000D02*
X199241422Y-71710000D01*
X199758578Y-70290000D02*
X199241422Y-70290000D01*
%TO.C,C27*%
X206159420Y-88090000D02*
X206440580Y-88090000D01*
X206159420Y-89110000D02*
X206440580Y-89110000D01*
%TO.C,C4*%
X172440000Y-73307836D02*
X172440000Y-73092164D01*
X173160000Y-73307836D02*
X173160000Y-73092164D01*
%TO.C,C13*%
X188510000Y-90484420D02*
X188510000Y-90765580D01*
X187490000Y-90484420D02*
X187490000Y-90765580D01*
%TO.C,R9*%
X182262742Y-80040000D02*
X182737258Y-80040000D01*
X182262742Y-81085000D02*
X182737258Y-81085000D01*
%TO.C,FB1*%
X184710000Y-90612221D02*
X184710000Y-90937779D01*
X183690000Y-90612221D02*
X183690000Y-90937779D01*
%TO.C,C5*%
X166690000Y-82840580D02*
X166690000Y-82559420D01*
X167710000Y-82840580D02*
X167710000Y-82559420D01*
%TO.C,R1*%
X191337258Y-85422500D02*
X190862742Y-85422500D01*
X191337258Y-84377500D02*
X190862742Y-84377500D01*
%TO.C,R8*%
X173877500Y-76837258D02*
X173877500Y-76362742D01*
X174922500Y-76837258D02*
X174922500Y-76362742D01*
%TO.C,R7*%
X184537258Y-78022500D02*
X184062742Y-78022500D01*
X184537258Y-76977500D02*
X184062742Y-76977500D01*
%TO.C,C9*%
X190010000Y-90484420D02*
X190010000Y-90765580D01*
X188990000Y-90484420D02*
X188990000Y-90765580D01*
%TO.C,C2*%
X201785000Y-80564420D02*
X201785000Y-80845580D01*
X200765000Y-80564420D02*
X200765000Y-80845580D01*
%TO.C,C3*%
X173160000Y-77092164D02*
X173160000Y-77307836D01*
X172440000Y-77092164D02*
X172440000Y-77307836D01*
%TO.C,C12*%
X176438748Y-87427500D02*
X176961252Y-87427500D01*
X176438748Y-88897500D02*
X176961252Y-88897500D01*
%TO.C,D3*%
X202500000Y-84910000D02*
X202500000Y-76400000D01*
X209000000Y-84910000D02*
X202500000Y-84910000D01*
X209000000Y-84910000D02*
X209000000Y-76400000D01*
%TO.C,C21*%
X206360000Y-100859420D02*
X206360000Y-101140580D01*
X205340000Y-100859420D02*
X205340000Y-101140580D01*
%TO.C,R6*%
X199512742Y-76727500D02*
X199987258Y-76727500D01*
X199512742Y-77772500D02*
X199987258Y-77772500D01*
%TO.C,D2*%
X202090000Y-70350000D02*
X202090000Y-74650000D01*
X202090000Y-70350000D02*
X207900000Y-70350000D01*
X202090000Y-74650000D02*
X207900000Y-74650000D01*
%TO.C,C11*%
X178902500Y-81703080D02*
X178902500Y-81421920D01*
X179922500Y-81703080D02*
X179922500Y-81421920D01*
%TO.C,C14*%
X185803080Y-80910000D02*
X185521920Y-80910000D01*
X185803080Y-79890000D02*
X185521920Y-79890000D01*
%TO.C,J2*%
X180905000Y-76265000D02*
X180905000Y-76900000D01*
X180270000Y-76265000D02*
X180905000Y-76265000D01*
%TO.C,JP4*%
X170400000Y-99400000D02*
X170400000Y-102200000D01*
X168400000Y-99400000D02*
X170400000Y-99400000D01*
X170400000Y-102200000D02*
X168400000Y-102200000D01*
X168400000Y-102200000D02*
X168400000Y-99400000D01*
%TO.C,U4*%
X180802500Y-88510000D02*
X180802500Y-87785000D01*
X181527500Y-82290000D02*
X180802500Y-82290000D01*
X181527500Y-88510000D02*
X180802500Y-88510000D01*
X186297500Y-82290000D02*
X187022500Y-82290000D01*
X186297500Y-88510000D02*
X187022500Y-88510000D01*
X187022500Y-82290000D02*
X187022500Y-83015000D01*
X187022500Y-88510000D02*
X187022500Y-87785000D01*
%TO.C,C24*%
X193610000Y-100609420D02*
X193610000Y-100890580D01*
X192590000Y-100609420D02*
X192590000Y-100890580D01*
%TO.C,U1*%
X196600000Y-79190000D02*
X193150000Y-79190000D01*
X196600000Y-79190000D02*
X198550000Y-79190000D01*
X196600000Y-84310000D02*
X194650000Y-84310000D01*
X196600000Y-84310000D02*
X198550000Y-84310000D01*
%TO.C,C26*%
X192590000Y-97515580D02*
X192590000Y-97234420D01*
X193610000Y-97515580D02*
X193610000Y-97234420D01*
%TO.C,Y1*%
X166875000Y-78210000D02*
X166875000Y-71810000D01*
X171925000Y-78210000D02*
X171925000Y-71810000D01*
X166875000Y-78210000D02*
G75*
G03*
X171925000Y-78210000I2525000J0D01*
G01*
X171925000Y-71810000D02*
G75*
G03*
X166875000Y-71810000I-2525000J0D01*
G01*
%TO.C,U6*%
X201270000Y-93830000D02*
X201270000Y-93560000D01*
X201270000Y-93560000D02*
X204100000Y-93560000D01*
X201270000Y-87200000D02*
X202370000Y-87200000D01*
X201270000Y-86930000D02*
X201270000Y-87200000D01*
X194850000Y-93830000D02*
X201270000Y-93830000D01*
X194850000Y-86930000D02*
X201270000Y-86930000D01*
%TO.C,R3*%
X190362742Y-81177500D02*
X190837258Y-81177500D01*
X190362742Y-82222500D02*
X190837258Y-82222500D01*
%TO.C,Y2*%
X178300000Y-82850000D02*
X175000000Y-82850000D01*
X175000000Y-82850000D02*
X175000000Y-86850000D01*
%TO.C,J3*%
X172400000Y-90200000D02*
X171150000Y-90200000D01*
X172110000Y-90490000D02*
X166140000Y-90490000D01*
X166140000Y-90490000D02*
X166140000Y-98110000D01*
X172100000Y-90500000D02*
X171350000Y-90500000D01*
X171350000Y-90500000D02*
X171350000Y-92300000D01*
X169850000Y-90500000D02*
X169850000Y-91250000D01*
X169850000Y-91250000D02*
X166900000Y-91250000D01*
X166900000Y-91250000D02*
X166900000Y-94300000D01*
X172400000Y-91450000D02*
X172400000Y-90200000D01*
X172100000Y-92300000D02*
X172100000Y-90500000D01*
X171350000Y-92300000D02*
X172100000Y-92300000D01*
X172100000Y-93800000D02*
X171350000Y-93800000D01*
X171350000Y-93800000D02*
X171350000Y-94800000D01*
X172100000Y-94800000D02*
X172100000Y-93800000D01*
X171350000Y-94800000D02*
X172100000Y-94800000D01*
X172100000Y-96300000D02*
X171350000Y-96300000D01*
X171350000Y-96300000D02*
X171350000Y-98100000D01*
X169850000Y-97350000D02*
X166900000Y-97350000D01*
X166900000Y-97350000D02*
X166900000Y-94300000D01*
X172100000Y-98100000D02*
X172100000Y-96300000D01*
X171350000Y-98100000D02*
X172100000Y-98100000D01*
X169850000Y-98100000D02*
X169850000Y-97350000D01*
X172110000Y-98110000D02*
X172110000Y-90490000D01*
X166140000Y-98110000D02*
X172110000Y-98110000D01*
%TO.C,C20*%
X204610000Y-100859420D02*
X204610000Y-101140580D01*
X203590000Y-100859420D02*
X203590000Y-101140580D01*
%TO.C,R10*%
X167922500Y-100562742D02*
X167922500Y-101037258D01*
X166877500Y-100562742D02*
X166877500Y-101037258D01*
%TO.C,C10*%
X177559420Y-89802500D02*
X177840580Y-89802500D01*
X177559420Y-90822500D02*
X177840580Y-90822500D01*
%TO.C,C7*%
X176911252Y-82235000D02*
X176388748Y-82235000D01*
X176911252Y-80765000D02*
X176388748Y-80765000D01*
%TO.C,C1*%
X190740580Y-83810000D02*
X190459420Y-83810000D01*
X190740580Y-82790000D02*
X190459420Y-82790000D01*
%TO.C,C28*%
X206159420Y-86490000D02*
X206440580Y-86490000D01*
X206159420Y-87510000D02*
X206440580Y-87510000D01*
%TO.C,J1*%
X181040000Y-69340000D02*
X181040000Y-70590000D01*
X181340000Y-69640000D02*
X181340000Y-74360000D01*
X181340000Y-70950000D02*
X181950000Y-70950000D01*
X181340000Y-72250000D02*
X181950000Y-72250000D01*
X181340000Y-74360000D02*
X195460000Y-74360000D01*
X181950000Y-70250000D02*
X181950000Y-73750000D01*
X181950000Y-73750000D02*
X194850000Y-73750000D01*
X182290000Y-69340000D02*
X181040000Y-69340000D01*
X182800000Y-69440000D02*
X182800000Y-69640000D01*
X183100000Y-69440000D02*
X182800000Y-69440000D01*
X183100000Y-69540000D02*
X182800000Y-69540000D01*
X183100000Y-69640000D02*
X183100000Y-69440000D01*
X183900000Y-69640000D02*
X183900000Y-70250000D01*
X183900000Y-70250000D02*
X181950000Y-70250000D01*
X184300000Y-73250000D02*
X184500000Y-73250000D01*
X184300000Y-73750000D02*
X184300000Y-73250000D01*
X184400000Y-73750000D02*
X184400000Y-73250000D01*
X184500000Y-73250000D02*
X184500000Y-73750000D01*
X186300000Y-73250000D02*
X186500000Y-73250000D01*
X186300000Y-73750000D02*
X186300000Y-73250000D01*
X186400000Y-73750000D02*
X186400000Y-73250000D01*
X186500000Y-73250000D02*
X186500000Y-73750000D01*
X188300000Y-73250000D02*
X188500000Y-73250000D01*
X188300000Y-73750000D02*
X188300000Y-73250000D01*
X188400000Y-73750000D02*
X188400000Y-73250000D01*
X188500000Y-73250000D02*
X188500000Y-73750000D01*
X190300000Y-73250000D02*
X190500000Y-73250000D01*
X190300000Y-73750000D02*
X190300000Y-73250000D01*
X190400000Y-73750000D02*
X190400000Y-73250000D01*
X190500000Y-73250000D02*
X190500000Y-73750000D01*
X192300000Y-73250000D02*
X192500000Y-73250000D01*
X192300000Y-73750000D02*
X192300000Y-73250000D01*
X192400000Y-73750000D02*
X192400000Y-73250000D01*
X192500000Y-73250000D02*
X192500000Y-73750000D01*
X192900000Y-70250000D02*
X192900000Y-69640000D01*
X194850000Y-70250000D02*
X192900000Y-70250000D01*
X194850000Y-73750000D02*
X194850000Y-70250000D01*
X195460000Y-69640000D02*
X181340000Y-69640000D01*
X195460000Y-70950000D02*
X194850000Y-70950000D01*
X195460000Y-72250000D02*
X194850000Y-72250000D01*
X195460000Y-74360000D02*
X195460000Y-69640000D01*
%TO.C,R4*%
X190277500Y-77437258D02*
X190277500Y-76962742D01*
X191322500Y-77437258D02*
X191322500Y-76962742D01*
%TO.C,C17*%
X183210000Y-90634420D02*
X183210000Y-90915580D01*
X182190000Y-90634420D02*
X182190000Y-90915580D01*
%TO.C,Q1*%
X193440000Y-76800000D02*
X193440000Y-78475000D01*
X193440000Y-76800000D02*
X193440000Y-76150000D01*
X196560000Y-76800000D02*
X196560000Y-77450000D01*
X196560000Y-76800000D02*
X196560000Y-76150000D01*
%TO.C,U2*%
X168390000Y-85137500D02*
X168390000Y-88737500D01*
X168390000Y-85137500D02*
X168390000Y-82937500D01*
X173860000Y-85137500D02*
X173860000Y-87337500D01*
X173860000Y-85137500D02*
X173860000Y-82937500D01*
%TO.C,C19*%
X185190000Y-90915580D02*
X185190000Y-90634420D01*
X186210000Y-90915580D02*
X186210000Y-90634420D01*
%TD*%
M02*
