%TF.GenerationSoftware,KiCad,Pcbnew,7.0.9*%
%TF.CreationDate,2023-11-28T13:38:34+10:00*%
%TF.ProjectId,cansult,63616e73-756c-4742-9e6b-696361645f70,rev?*%
%TF.SameCoordinates,Original*%
%TF.FileFunction,Soldermask,Bot*%
%TF.FilePolarity,Negative*%
%FSLAX46Y46*%
G04 Gerber Fmt 4.6, Leading zero omitted, Abs format (unit mm)*
G04 Created by KiCad (PCBNEW 7.0.9) date 2023-11-28 13:38:34*
%MOMM*%
%LPD*%
G01*
G04 APERTURE LIST*
G04 Aperture macros list*
%AMRoundRect*
0 Rectangle with rounded corners*
0 $1 Rounding radius*
0 $2 $3 $4 $5 $6 $7 $8 $9 X,Y pos of 4 corners*
0 Add a 4 corners polygon primitive as box body*
4,1,4,$2,$3,$4,$5,$6,$7,$8,$9,$2,$3,0*
0 Add four circle primitives for the rounded corners*
1,1,$1+$1,$2,$3*
1,1,$1+$1,$4,$5*
1,1,$1+$1,$6,$7*
1,1,$1+$1,$8,$9*
0 Add four rect primitives between the rounded corners*
20,1,$1+$1,$2,$3,$4,$5,0*
20,1,$1+$1,$4,$5,$6,$7,0*
20,1,$1+$1,$6,$7,$8,$9,0*
20,1,$1+$1,$8,$9,$2,$3,0*%
%AMFreePoly0*
4,1,6,1.000000,0.000000,0.500000,-0.750000,-0.500000,-0.750000,-0.500000,0.750000,0.500000,0.750000,1.000000,0.000000,1.000000,0.000000,$1*%
%AMFreePoly1*
4,1,6,0.500000,-0.750000,-0.650000,-0.750000,-0.150000,0.000000,-0.650000,0.750000,0.500000,0.750000,0.500000,-0.750000,0.500000,-0.750000,$1*%
G04 Aperture macros list end*
%ADD10R,1.400000X3.200000*%
%ADD11R,3.200000X1.400000*%
%ADD12C,4.200000*%
%ADD13C,0.990600*%
%ADD14C,1.500000*%
%ADD15RoundRect,0.250000X-0.750000X0.600000X-0.750000X-0.600000X0.750000X-0.600000X0.750000X0.600000X0*%
%ADD16O,2.000000X1.700000*%
%ADD17RoundRect,0.250000X-0.350000X-0.625000X0.350000X-0.625000X0.350000X0.625000X-0.350000X0.625000X0*%
%ADD18O,1.200000X1.750000*%
%ADD19RoundRect,0.150000X-0.587500X-0.150000X0.587500X-0.150000X0.587500X0.150000X-0.587500X0.150000X0*%
%ADD20RoundRect,0.225000X0.225000X0.250000X-0.225000X0.250000X-0.225000X-0.250000X0.225000X-0.250000X0*%
%ADD21RoundRect,0.225000X-0.225000X-0.250000X0.225000X-0.250000X0.225000X0.250000X-0.225000X0.250000X0*%
%ADD22R,1.500000X1.500000*%
%ADD23FreePoly0,0.000000*%
%ADD24FreePoly0,180.000000*%
%ADD25FreePoly0,90.000000*%
%ADD26FreePoly1,90.000000*%
%ADD27RoundRect,0.150000X0.150000X-0.825000X0.150000X0.825000X-0.150000X0.825000X-0.150000X-0.825000X0*%
%ADD28FreePoly1,0.000000*%
G04 APERTURE END LIST*
D10*
%TO.C,TP7*%
X185500000Y-75200000D03*
%TD*%
D11*
%TO.C,TP6*%
X171250000Y-82250000D03*
%TD*%
%TO.C,TP5*%
X190200000Y-83400000D03*
%TD*%
D10*
%TO.C,TP4*%
X193500000Y-75250000D03*
%TD*%
%TO.C,TP3*%
X199250000Y-82500000D03*
%TD*%
%TO.C,TP2*%
X191250000Y-75250000D03*
%TD*%
D11*
%TO.C,TP1*%
X184100000Y-81900000D03*
%TD*%
D12*
%TO.C,H1*%
X177000000Y-100000000D03*
%TD*%
%TO.C,H2*%
X177000000Y-72000000D03*
%TD*%
D13*
%TO.C,J2*%
X181540000Y-77535000D03*
X176460000Y-78551000D03*
X176460000Y-76519000D03*
%TD*%
D14*
%TO.C,Y1*%
X169400000Y-77450000D03*
X169400000Y-72570000D03*
%TD*%
D15*
%TO.C,J3*%
X169650000Y-93050000D03*
D16*
X169650000Y-95550000D03*
%TD*%
D17*
%TO.C,J1*%
X183400000Y-71450000D03*
D18*
X185400000Y-71450000D03*
X187400000Y-71450000D03*
X189400000Y-71450000D03*
X191400000Y-71450000D03*
X193400000Y-71450000D03*
%TD*%
D19*
%TO.C,D1*%
X172362500Y-95250000D03*
X172362500Y-93350000D03*
X174237500Y-94300000D03*
%TD*%
D20*
%TO.C,C16*%
X173875000Y-97000000D03*
X172325000Y-97000000D03*
%TD*%
%TO.C,C8*%
X182925000Y-101650000D03*
X181375000Y-101650000D03*
%TD*%
%TO.C,C6*%
X179575000Y-95800000D03*
X178025000Y-95800000D03*
%TD*%
D21*
%TO.C,C18*%
X172325000Y-91600000D03*
X173875000Y-91600000D03*
%TD*%
D22*
%TO.C,JP1*%
X170050000Y-85200000D03*
X172450000Y-85200000D03*
D23*
X169250000Y-85200000D03*
D24*
X173250000Y-85200000D03*
%TD*%
D25*
%TO.C,JP3*%
X177600000Y-91925000D03*
D26*
X177600000Y-90475000D03*
%TD*%
D27*
%TO.C,U3*%
X185505000Y-99275000D03*
X184235000Y-99275000D03*
X182965000Y-99275000D03*
X181695000Y-99275000D03*
X181695000Y-94325000D03*
X182965000Y-94325000D03*
X184235000Y-94325000D03*
X185505000Y-94325000D03*
%TD*%
D23*
%TO.C,JP2*%
X177975000Y-81500000D03*
D28*
X179425000Y-81500000D03*
%TD*%
M02*
