%TF.GenerationSoftware,KiCad,Pcbnew,7.0.9*%
%TF.CreationDate,2023-11-28T13:38:34+10:00*%
%TF.ProjectId,cansult,63616e73-756c-4742-9e6b-696361645f70,rev?*%
%TF.SameCoordinates,Original*%
%TF.FileFunction,Soldermask,Top*%
%TF.FilePolarity,Negative*%
%FSLAX46Y46*%
G04 Gerber Fmt 4.6, Leading zero omitted, Abs format (unit mm)*
G04 Created by KiCad (PCBNEW 7.0.9) date 2023-11-28 13:38:34*
%MOMM*%
%LPD*%
G01*
G04 APERTURE LIST*
G04 Aperture macros list*
%AMRoundRect*
0 Rectangle with rounded corners*
0 $1 Rounding radius*
0 $2 $3 $4 $5 $6 $7 $8 $9 X,Y pos of 4 corners*
0 Add a 4 corners polygon primitive as box body*
4,1,4,$2,$3,$4,$5,$6,$7,$8,$9,$2,$3,0*
0 Add four circle primitives for the rounded corners*
1,1,$1+$1,$2,$3*
1,1,$1+$1,$4,$5*
1,1,$1+$1,$6,$7*
1,1,$1+$1,$8,$9*
0 Add four rect primitives between the rounded corners*
20,1,$1+$1,$2,$3,$4,$5,0*
20,1,$1+$1,$4,$5,$6,$7,0*
20,1,$1+$1,$6,$7,$8,$9,0*
20,1,$1+$1,$8,$9,$2,$3,0*%
%AMFreePoly0*
4,1,6,1.000000,0.000000,0.500000,-0.750000,-0.500000,-0.750000,-0.500000,0.750000,0.500000,0.750000,1.000000,0.000000,1.000000,0.000000,$1*%
%AMFreePoly1*
4,1,6,0.500000,-0.750000,-0.650000,-0.750000,-0.150000,0.000000,-0.650000,0.750000,0.500000,0.750000,0.500000,-0.750000,0.500000,-0.750000,$1*%
G04 Aperture macros list end*
%ADD10RoundRect,0.225000X-0.225000X-0.250000X0.225000X-0.250000X0.225000X0.250000X-0.225000X0.250000X0*%
%ADD11R,2.000000X1.500000*%
%ADD12R,2.000000X3.800000*%
%ADD13RoundRect,0.200000X0.200000X0.275000X-0.200000X0.275000X-0.200000X-0.275000X0.200000X-0.275000X0*%
%ADD14RoundRect,0.150000X0.700000X-0.150000X0.700000X0.150000X-0.700000X0.150000X-0.700000X-0.150000X0*%
%ADD15RoundRect,0.250000X1.150000X-0.250000X1.150000X0.250000X-1.150000X0.250000X-1.150000X-0.250000X0*%
%ADD16RoundRect,0.225000X-0.250000X0.225000X-0.250000X-0.225000X0.250000X-0.225000X0.250000X0.225000X0*%
%ADD17RoundRect,0.150000X0.150000X-0.587500X0.150000X0.587500X-0.150000X0.587500X-0.150000X-0.587500X0*%
%ADD18RoundRect,0.200000X-0.275000X0.200000X-0.275000X-0.200000X0.275000X-0.200000X0.275000X0.200000X0*%
%ADD19RoundRect,0.243750X0.243750X0.456250X-0.243750X0.456250X-0.243750X-0.456250X0.243750X-0.456250X0*%
%ADD20RoundRect,0.140000X0.170000X-0.140000X0.170000X0.140000X-0.170000X0.140000X-0.170000X-0.140000X0*%
%ADD21RoundRect,0.200000X-0.200000X-0.275000X0.200000X-0.275000X0.200000X0.275000X-0.200000X0.275000X0*%
%ADD22RoundRect,0.218750X-0.256250X0.218750X-0.256250X-0.218750X0.256250X-0.218750X0.256250X0.218750X0*%
%ADD23RoundRect,0.225000X0.250000X-0.225000X0.250000X0.225000X-0.250000X0.225000X-0.250000X-0.225000X0*%
%ADD24RoundRect,0.200000X0.275000X-0.200000X0.275000X0.200000X-0.275000X0.200000X-0.275000X-0.200000X0*%
%ADD25RoundRect,0.140000X-0.170000X0.140000X-0.170000X-0.140000X0.170000X-0.140000X0.170000X0.140000X0*%
%ADD26RoundRect,0.250000X-0.250000X-0.475000X0.250000X-0.475000X0.250000X0.475000X-0.250000X0.475000X0*%
%ADD27RoundRect,0.250000X1.400000X1.000000X-1.400000X1.000000X-1.400000X-1.000000X1.400000X-1.000000X0*%
%ADD28RoundRect,0.250000X-1.000000X-0.900000X1.000000X-0.900000X1.000000X0.900000X-1.000000X0.900000X0*%
%ADD29C,4.200000*%
%ADD30RoundRect,0.225000X0.225000X0.250000X-0.225000X0.250000X-0.225000X-0.250000X0.225000X-0.250000X0*%
%ADD31C,0.990600*%
%ADD32C,0.787400*%
%ADD33FreePoly0,270.000000*%
%ADD34FreePoly1,270.000000*%
%ADD35RoundRect,0.062500X-0.475000X-0.062500X0.475000X-0.062500X0.475000X0.062500X-0.475000X0.062500X0*%
%ADD36RoundRect,0.062500X-0.062500X-0.475000X0.062500X-0.475000X0.062500X0.475000X-0.062500X0.475000X0*%
%ADD37R,4.100000X4.100000*%
%ADD38RoundRect,0.150000X-0.825000X-0.150000X0.825000X-0.150000X0.825000X0.150000X-0.825000X0.150000X0*%
%ADD39C,1.500000*%
%ADD40RoundRect,0.250000X0.850000X0.350000X-0.850000X0.350000X-0.850000X-0.350000X0.850000X-0.350000X0*%
%ADD41RoundRect,0.249997X2.950003X2.650003X-2.950003X2.650003X-2.950003X-2.650003X2.950003X-2.650003X0*%
%ADD42R,1.200000X1.400000*%
%ADD43RoundRect,0.250000X-0.750000X0.600000X-0.750000X-0.600000X0.750000X-0.600000X0.750000X0.600000X0*%
%ADD44O,2.000000X1.700000*%
%ADD45RoundRect,0.250000X0.250000X0.475000X-0.250000X0.475000X-0.250000X-0.475000X0.250000X-0.475000X0*%
%ADD46RoundRect,0.250000X-0.350000X-0.625000X0.350000X-0.625000X0.350000X0.625000X-0.350000X0.625000X0*%
%ADD47O,1.200000X1.750000*%
%ADD48RoundRect,0.100000X0.100000X-0.637500X0.100000X0.637500X-0.100000X0.637500X-0.100000X-0.637500X0*%
G04 APERTURE END LIST*
D10*
%TO.C,C25*%
X205325000Y-94400000D03*
X206875000Y-94400000D03*
%TD*%
D11*
%TO.C,U5*%
X201650000Y-101600000D03*
X201650000Y-99300000D03*
D12*
X195350000Y-99300000D03*
D11*
X201650000Y-97000000D03*
%TD*%
D13*
%TO.C,R2*%
X191425000Y-80100000D03*
X189775000Y-80100000D03*
%TD*%
D14*
%TO.C,J4*%
X185850000Y-100150000D03*
X185850000Y-98900000D03*
X185850000Y-97650000D03*
X185850000Y-96400000D03*
X185850000Y-95150000D03*
D15*
X182500000Y-102000000D03*
X182500000Y-93300000D03*
%TD*%
D16*
%TO.C,C15*%
X181200000Y-90000000D03*
X181200000Y-91550000D03*
%TD*%
D17*
%TO.C,Q2*%
X187050000Y-77737500D03*
X188950000Y-77737500D03*
X188000000Y-75862500D03*
%TD*%
D10*
%TO.C,C23*%
X205350000Y-92700000D03*
X206900000Y-92700000D03*
%TD*%
D18*
%TO.C,R5*%
X192400000Y-76375000D03*
X192400000Y-78025000D03*
%TD*%
D19*
%TO.C,F1*%
X200437500Y-71000000D03*
X198562500Y-71000000D03*
%TD*%
D10*
%TO.C,C27*%
X205525000Y-88600000D03*
X207075000Y-88600000D03*
%TD*%
D20*
%TO.C,C4*%
X172800000Y-73680000D03*
X172800000Y-72720000D03*
%TD*%
D16*
%TO.C,C13*%
X188000000Y-89850000D03*
X188000000Y-91400000D03*
%TD*%
D21*
%TO.C,R9*%
X181675000Y-80562500D03*
X183325000Y-80562500D03*
%TD*%
D22*
%TO.C,FB1*%
X184200000Y-89987500D03*
X184200000Y-91562500D03*
%TD*%
D23*
%TO.C,C5*%
X167200000Y-83475000D03*
X167200000Y-81925000D03*
%TD*%
D13*
%TO.C,R1*%
X191925000Y-84900000D03*
X190275000Y-84900000D03*
%TD*%
D24*
%TO.C,R8*%
X174400000Y-77425000D03*
X174400000Y-75775000D03*
%TD*%
D13*
%TO.C,R7*%
X185125000Y-77500000D03*
X183475000Y-77500000D03*
%TD*%
D16*
%TO.C,C9*%
X189500000Y-89850000D03*
X189500000Y-91400000D03*
%TD*%
%TO.C,C2*%
X201275000Y-79930000D03*
X201275000Y-81480000D03*
%TD*%
D25*
%TO.C,C3*%
X172800000Y-76720000D03*
X172800000Y-77680000D03*
%TD*%
D26*
%TO.C,C12*%
X175750000Y-88162500D03*
X177650000Y-88162500D03*
%TD*%
D27*
%TO.C,D3*%
X205750000Y-83400000D03*
X205750000Y-76600000D03*
%TD*%
D16*
%TO.C,C21*%
X205850000Y-100225000D03*
X205850000Y-101775000D03*
%TD*%
D21*
%TO.C,R6*%
X198925000Y-77250000D03*
X200575000Y-77250000D03*
%TD*%
D28*
%TO.C,D2*%
X203600000Y-72500000D03*
X207900000Y-72500000D03*
%TD*%
D29*
%TO.C,H1*%
X177000000Y-100000000D03*
%TD*%
D23*
%TO.C,C11*%
X179412500Y-82337500D03*
X179412500Y-80787500D03*
%TD*%
D30*
%TO.C,C14*%
X186437500Y-80400000D03*
X184887500Y-80400000D03*
%TD*%
D29*
%TO.C,H2*%
X177000000Y-72000000D03*
%TD*%
D31*
%TO.C,J2*%
X181540000Y-77535000D03*
X176460000Y-78551000D03*
X176460000Y-76519000D03*
D32*
X180270000Y-76900000D03*
X180270000Y-78170000D03*
X179000000Y-76900000D03*
X179000000Y-78170000D03*
X177730000Y-76900000D03*
X177730000Y-78170000D03*
%TD*%
D33*
%TO.C,JP4*%
X169400000Y-100075000D03*
D34*
X169400000Y-101525000D03*
%TD*%
D35*
%TO.C,U4*%
X181075000Y-83400000D03*
X181075000Y-83900000D03*
X181075000Y-84400000D03*
X181075000Y-84900000D03*
X181075000Y-85400000D03*
X181075000Y-85900000D03*
X181075000Y-86400000D03*
X181075000Y-86900000D03*
X181075000Y-87400000D03*
D36*
X181912500Y-88237500D03*
X182412500Y-88237500D03*
X182912500Y-88237500D03*
X183412500Y-88237500D03*
X183912500Y-88237500D03*
X184412500Y-88237500D03*
X184912500Y-88237500D03*
X185412500Y-88237500D03*
X185912500Y-88237500D03*
D35*
X186750000Y-87400000D03*
X186750000Y-86900000D03*
X186750000Y-86400000D03*
X186750000Y-85900000D03*
X186750000Y-85400000D03*
X186750000Y-84900000D03*
X186750000Y-84400000D03*
X186750000Y-83900000D03*
X186750000Y-83400000D03*
D36*
X185912500Y-82562500D03*
X185412500Y-82562500D03*
X184912500Y-82562500D03*
X184412500Y-82562500D03*
X183912500Y-82562500D03*
X183412500Y-82562500D03*
X182912500Y-82562500D03*
X182412500Y-82562500D03*
X181912500Y-82562500D03*
D37*
X183912500Y-85400000D03*
%TD*%
D16*
%TO.C,C24*%
X193100000Y-99975000D03*
X193100000Y-101525000D03*
%TD*%
D38*
%TO.C,U1*%
X194125000Y-79845000D03*
X194125000Y-81115000D03*
X194125000Y-82385000D03*
X194125000Y-83655000D03*
X199075000Y-83655000D03*
X199075000Y-82385000D03*
X199075000Y-81115000D03*
X199075000Y-79845000D03*
%TD*%
D23*
%TO.C,C26*%
X193100000Y-98150000D03*
X193100000Y-96600000D03*
%TD*%
D39*
%TO.C,Y1*%
X169400000Y-77450000D03*
X169400000Y-72570000D03*
%TD*%
D40*
%TO.C,U6*%
X203000000Y-92660000D03*
D41*
X196700000Y-90380000D03*
D40*
X203000000Y-88100000D03*
%TD*%
D21*
%TO.C,R3*%
X189775000Y-81700000D03*
X191425000Y-81700000D03*
%TD*%
D42*
%TO.C,Y2*%
X175800000Y-83750000D03*
X175800000Y-85950000D03*
X177500000Y-85950000D03*
X177500000Y-83750000D03*
%TD*%
D43*
%TO.C,J3*%
X169650000Y-93050000D03*
D44*
X169650000Y-95550000D03*
%TD*%
D16*
%TO.C,C20*%
X204100000Y-100225000D03*
X204100000Y-101775000D03*
%TD*%
D18*
%TO.C,R10*%
X167400000Y-99975000D03*
X167400000Y-101625000D03*
%TD*%
D10*
%TO.C,C10*%
X176925000Y-90312500D03*
X178475000Y-90312500D03*
%TD*%
D45*
%TO.C,C7*%
X177600000Y-81500000D03*
X175700000Y-81500000D03*
%TD*%
D30*
%TO.C,C1*%
X191375000Y-83300000D03*
X189825000Y-83300000D03*
%TD*%
D10*
%TO.C,C28*%
X205525000Y-87000000D03*
X207075000Y-87000000D03*
%TD*%
D46*
%TO.C,J1*%
X183400000Y-71450000D03*
D47*
X185400000Y-71450000D03*
X187400000Y-71450000D03*
X189400000Y-71450000D03*
X191400000Y-71450000D03*
X193400000Y-71450000D03*
%TD*%
D24*
%TO.C,R4*%
X190800000Y-78025000D03*
X190800000Y-76375000D03*
%TD*%
D16*
%TO.C,C17*%
X182700000Y-90000000D03*
X182700000Y-91550000D03*
%TD*%
D17*
%TO.C,Q1*%
X194050000Y-77737500D03*
X195950000Y-77737500D03*
X195000000Y-75862500D03*
%TD*%
D48*
%TO.C,U2*%
X168850000Y-88000000D03*
X169500000Y-88000000D03*
X170150000Y-88000000D03*
X170800000Y-88000000D03*
X171450000Y-88000000D03*
X172100000Y-88000000D03*
X172750000Y-88000000D03*
X173400000Y-88000000D03*
X173400000Y-82275000D03*
X172750000Y-82275000D03*
X172100000Y-82275000D03*
X171450000Y-82275000D03*
X170800000Y-82275000D03*
X170150000Y-82275000D03*
X169500000Y-82275000D03*
X168850000Y-82275000D03*
%TD*%
D23*
%TO.C,C19*%
X185700000Y-91550000D03*
X185700000Y-90000000D03*
%TD*%
M02*
