%TF.GenerationSoftware,KiCad,Pcbnew,7.0.9*%
%TF.CreationDate,2023-11-27T14:53:40+10:00*%
%TF.ProjectId,cansult,63616e73-756c-4742-9e6b-696361645f70,rev?*%
%TF.SameCoordinates,Original*%
%TF.FileFunction,Copper,L2,Inr*%
%TF.FilePolarity,Positive*%
%FSLAX46Y46*%
G04 Gerber Fmt 4.6, Leading zero omitted, Abs format (unit mm)*
G04 Created by KiCad (PCBNEW 7.0.9) date 2023-11-27 14:53:40*
%MOMM*%
%LPD*%
G01*
G04 APERTURE LIST*
G04 Aperture macros list*
%AMRoundRect*
0 Rectangle with rounded corners*
0 $1 Rounding radius*
0 $2 $3 $4 $5 $6 $7 $8 $9 X,Y pos of 4 corners*
0 Add a 4 corners polygon primitive as box body*
4,1,4,$2,$3,$4,$5,$6,$7,$8,$9,$2,$3,0*
0 Add four circle primitives for the rounded corners*
1,1,$1+$1,$2,$3*
1,1,$1+$1,$4,$5*
1,1,$1+$1,$6,$7*
1,1,$1+$1,$8,$9*
0 Add four rect primitives between the rounded corners*
20,1,$1+$1,$2,$3,$4,$5,0*
20,1,$1+$1,$4,$5,$6,$7,0*
20,1,$1+$1,$6,$7,$8,$9,0*
20,1,$1+$1,$8,$9,$2,$3,0*%
G04 Aperture macros list end*
%TA.AperFunction,ComponentPad*%
%ADD10C,1.500000*%
%TD*%
%TA.AperFunction,ComponentPad*%
%ADD11RoundRect,0.250000X-0.750000X0.600000X-0.750000X-0.600000X0.750000X-0.600000X0.750000X0.600000X0*%
%TD*%
%TA.AperFunction,ComponentPad*%
%ADD12O,2.000000X1.700000*%
%TD*%
%TA.AperFunction,ComponentPad*%
%ADD13RoundRect,0.250000X-0.350000X-0.625000X0.350000X-0.625000X0.350000X0.625000X-0.350000X0.625000X0*%
%TD*%
%TA.AperFunction,ComponentPad*%
%ADD14O,1.200000X1.750000*%
%TD*%
%TA.AperFunction,ViaPad*%
%ADD15C,0.500000*%
%TD*%
%TA.AperFunction,ViaPad*%
%ADD16C,0.700000*%
%TD*%
G04 APERTURE END LIST*
D10*
%TO.N,OSC_IN*%
%TO.C,Y1*%
X169400000Y-77450000D03*
%TO.N,OSC_OUT*%
X169400000Y-72570000D03*
%TD*%
D11*
%TO.N,/mcu/CANH*%
%TO.C,J3*%
X169650000Y-93050000D03*
D12*
%TO.N,/mcu/CANL*%
X169650000Y-95550000D03*
%TD*%
D13*
%TO.N,unconnected-(J1-Pin_1-Pad1)*%
%TO.C,J1*%
X183400000Y-71450000D03*
D14*
%TO.N,CNSLT_CLK*%
X185400000Y-71450000D03*
%TO.N,GND*%
X187400000Y-71450000D03*
%TO.N,+12V*%
X189400000Y-71450000D03*
%TO.N,CNSLT_TX*%
X191400000Y-71450000D03*
%TO.N,CNSLT_RX*%
X193400000Y-71450000D03*
%TD*%
D15*
%TO.N,CNSLT_TX*%
X195750000Y-82000000D03*
%TO.N,GND*%
X183400000Y-73200000D03*
X170250000Y-89750000D03*
X167600000Y-74300000D03*
D16*
X198400000Y-94900000D03*
X195000000Y-86000000D03*
D15*
X199400000Y-73000000D03*
X187826500Y-83502796D03*
X199400000Y-97700000D03*
X180000000Y-102200000D03*
X167600000Y-77300000D03*
X198900000Y-88500000D03*
D16*
X195000000Y-94900000D03*
X207500000Y-69750000D03*
D15*
X180000000Y-71400000D03*
X170500000Y-91200000D03*
X207750000Y-81000000D03*
D16*
X207100000Y-89800000D03*
X208700000Y-100300000D03*
D15*
X182400000Y-83900000D03*
D16*
X208700000Y-94400000D03*
D15*
X206250000Y-81000000D03*
X175500000Y-97300000D03*
X191700000Y-101400000D03*
X197250000Y-77750000D03*
X196700000Y-92200000D03*
X206250000Y-79250000D03*
X174000000Y-69900000D03*
D16*
X186500000Y-72700000D03*
D15*
X188819785Y-81768699D03*
D16*
X193200000Y-94900000D03*
D15*
X197600000Y-97696228D03*
X175900000Y-90260000D03*
X201800000Y-69800000D03*
D16*
X198400000Y-86000000D03*
D15*
X167600000Y-72800000D03*
X201800000Y-75600000D03*
D16*
X202800000Y-86000000D03*
X192200000Y-89900000D03*
D15*
X169400000Y-70000000D03*
D16*
X187800000Y-73300000D03*
D15*
X199400000Y-100800000D03*
X197000000Y-69800000D03*
X180000000Y-99200000D03*
X172800000Y-75200000D03*
D16*
X200000000Y-94900000D03*
D15*
X207750000Y-79250000D03*
X186849812Y-90402843D03*
X177000000Y-97300000D03*
X180000000Y-100700000D03*
D16*
X208700000Y-92700000D03*
D15*
X174300000Y-80900000D03*
X180000000Y-69900000D03*
D16*
X192200000Y-93600000D03*
D15*
X198900000Y-92200000D03*
X171450000Y-80700000D03*
X172800000Y-78600000D03*
X167600000Y-71200000D03*
X197000000Y-73000000D03*
D16*
X208750000Y-69750000D03*
D15*
X203000000Y-82250000D03*
D16*
X192200000Y-88200000D03*
D15*
X172800000Y-71800000D03*
X204750000Y-81000000D03*
D16*
X196700000Y-94900000D03*
D15*
X197600000Y-100800000D03*
X204750000Y-79250000D03*
X185400000Y-87000000D03*
X194500000Y-92200000D03*
D16*
X208700000Y-97400000D03*
D15*
X184556358Y-92441960D03*
X201800000Y-73000000D03*
X185400000Y-83900000D03*
X197000000Y-75600000D03*
X192500000Y-83123500D03*
X180600000Y-81800000D03*
D16*
X192200000Y-86500000D03*
D15*
X194500000Y-88500000D03*
D16*
X196700000Y-86000000D03*
D15*
X203000000Y-84250000D03*
X204200000Y-69800000D03*
X174500000Y-86500000D03*
X200900000Y-82750000D03*
X180000000Y-72900000D03*
X184567947Y-79351108D03*
X188200000Y-82200000D03*
D16*
X207100000Y-85600000D03*
D15*
X174500000Y-88300000D03*
X167600000Y-78800000D03*
D16*
X175650000Y-94270000D03*
X177500000Y-75100000D03*
X200300000Y-86000000D03*
D15*
X189900000Y-92450000D03*
X180050000Y-91500000D03*
X196700000Y-88500000D03*
D16*
X184250000Y-97650000D03*
D15*
X170500000Y-97500000D03*
X167250000Y-89250000D03*
D16*
X205700000Y-71000000D03*
D15*
X199400000Y-69800000D03*
X182400000Y-87000000D03*
X167600000Y-75800000D03*
X180000000Y-74400000D03*
X167200000Y-80500000D03*
X183286768Y-79690595D03*
D16*
X192200000Y-91700000D03*
X206250000Y-69750000D03*
X208700000Y-101800000D03*
D15*
X199400000Y-75600000D03*
X179908819Y-85520497D03*
D16*
X187000000Y-73300000D03*
D15*
X189000000Y-79000000D03*
D16*
X193500000Y-86000000D03*
X188300000Y-72700000D03*
D15*
X174000000Y-71400000D03*
X178500000Y-97300000D03*
X174000000Y-72900000D03*
D16*
%TO.N,+3V3*%
X186902540Y-89605081D03*
X188700000Y-100000000D03*
X189124384Y-84775616D03*
X180400000Y-75700000D03*
X186850013Y-91202343D03*
X167200000Y-86700000D03*
X188700000Y-98100000D03*
X188600000Y-81000000D03*
X191200000Y-98100000D03*
X191200000Y-100000000D03*
X178800000Y-83400000D03*
X203250000Y-79900000D03*
X180000000Y-97300000D03*
X189900000Y-100000000D03*
X185687000Y-79399524D03*
X189900000Y-98100000D03*
%TO.N,+5V*%
X205100000Y-96900000D03*
X205100000Y-98400000D03*
X203300000Y-89400000D03*
X183250000Y-96400000D03*
X203300000Y-90600000D03*
X203700000Y-98400000D03*
X203700000Y-96900000D03*
X202000000Y-89400000D03*
X202000000Y-90600000D03*
D15*
%TO.N,+12V*%
X192250000Y-79000000D03*
D16*
%TO.N,NRST*%
X179100000Y-75700000D03*
D15*
X179000000Y-86200000D03*
%TO.N,/consult/CLK_Q5*%
X170000000Y-86630000D03*
%TO.N,CLK_O*%
X187800000Y-79100000D03*
%TO.N,/consult/CLK_Q4*%
X173250000Y-86700000D03*
%TO.N,/mcu/BOOT0*%
X180607372Y-80993128D03*
%TO.N,MCU_TX*%
X190750000Y-79000000D03*
X179900000Y-89200000D03*
X187700000Y-94000000D03*
X188192964Y-86708259D03*
%TO.N,MCU_RX*%
X187937500Y-86002796D03*
X181200000Y-88100000D03*
X187118555Y-92294094D03*
X200500000Y-78250000D03*
%TO.N,CAN_TX*%
X189400000Y-95600000D03*
%TO.N,CAN_RX*%
X189400000Y-94800000D03*
%TO.N,/mcu/NRST BJ*%
X179250000Y-91750000D03*
%TO.N,/consult/OA-*%
X197250000Y-82500000D03*
%TO.N,BT_EN*%
X186934148Y-92968852D03*
X188200000Y-87500000D03*
%TD*%
%TA.AperFunction,Conductor*%
%TO.N,GND*%
G36*
X176374465Y-69269454D02*
G01*
X176455247Y-69323430D01*
X176509223Y-69404212D01*
X176528177Y-69499500D01*
X176509223Y-69594788D01*
X176455247Y-69675570D01*
X176374465Y-69729546D01*
X176359216Y-69735285D01*
X176098577Y-69823760D01*
X176098559Y-69823767D01*
X175822239Y-69960034D01*
X175822222Y-69960044D01*
X175607164Y-70103741D01*
X175566036Y-70131222D01*
X175334380Y-70334380D01*
X175131222Y-70566036D01*
X175131220Y-70566038D01*
X175131219Y-70566040D01*
X174960044Y-70822221D01*
X174960034Y-70822238D01*
X174823767Y-71098559D01*
X174823760Y-71098578D01*
X174724721Y-71390333D01*
X174724720Y-71390340D01*
X174664610Y-71692529D01*
X174664608Y-71692541D01*
X174644457Y-72000000D01*
X174664608Y-72307458D01*
X174664610Y-72307470D01*
X174724720Y-72609659D01*
X174724721Y-72609666D01*
X174823760Y-72901421D01*
X174823767Y-72901440D01*
X174960034Y-73177760D01*
X174960035Y-73177761D01*
X174960040Y-73177771D01*
X175131222Y-73433964D01*
X175334380Y-73665620D01*
X175566036Y-73868778D01*
X175822229Y-74039960D01*
X175822238Y-74039964D01*
X175822239Y-74039965D01*
X176098559Y-74176232D01*
X176098566Y-74176234D01*
X176098573Y-74176238D01*
X176242559Y-74225114D01*
X176390333Y-74275278D01*
X176390336Y-74275278D01*
X176390341Y-74275280D01*
X176635082Y-74323962D01*
X176692529Y-74335389D01*
X176692534Y-74335389D01*
X176692540Y-74335391D01*
X176923059Y-74350500D01*
X176923065Y-74350500D01*
X177076935Y-74350500D01*
X177076941Y-74350500D01*
X177307460Y-74335391D01*
X177609659Y-74275280D01*
X177609664Y-74275278D01*
X177609666Y-74275278D01*
X177687344Y-74248909D01*
X177901427Y-74176238D01*
X177901436Y-74176233D01*
X177901440Y-74176232D01*
X178037333Y-74109216D01*
X178177771Y-74039960D01*
X178433964Y-73868778D01*
X178665620Y-73665620D01*
X178868778Y-73433964D01*
X179039960Y-73177772D01*
X179176238Y-72901427D01*
X179269903Y-72625500D01*
X179275278Y-72609666D01*
X179275278Y-72609664D01*
X179275280Y-72609659D01*
X179335391Y-72307460D01*
X179347802Y-72118102D01*
X182499500Y-72118102D01*
X182505337Y-72166706D01*
X182510123Y-72206564D01*
X182510124Y-72206568D01*
X182565637Y-72347340D01*
X182603969Y-72397888D01*
X182657078Y-72467922D01*
X182711448Y-72509152D01*
X182777659Y-72559362D01*
X182905204Y-72609659D01*
X182918436Y-72614877D01*
X183006898Y-72625500D01*
X183006901Y-72625500D01*
X183793099Y-72625500D01*
X183793102Y-72625500D01*
X183881564Y-72614877D01*
X183995364Y-72570000D01*
X184022340Y-72559362D01*
X184022340Y-72559361D01*
X184022342Y-72559361D01*
X184142922Y-72467922D01*
X184234361Y-72347342D01*
X184243437Y-72324325D01*
X184296023Y-72242636D01*
X184375870Y-72187287D01*
X184470820Y-72166706D01*
X184566419Y-72184029D01*
X184648111Y-72236616D01*
X184660120Y-72249056D01*
X184667466Y-72257214D01*
X184667467Y-72257216D01*
X184794129Y-72397888D01*
X184914385Y-72485259D01*
X184947271Y-72509152D01*
X185120189Y-72586141D01*
X185120192Y-72586142D01*
X185120197Y-72586144D01*
X185305354Y-72625500D01*
X185494645Y-72625500D01*
X185494646Y-72625500D01*
X185679803Y-72586144D01*
X185738301Y-72560099D01*
X185852728Y-72509152D01*
X185852728Y-72509151D01*
X185852730Y-72509151D01*
X186005871Y-72397888D01*
X186087598Y-72307120D01*
X186165444Y-72248990D01*
X186259609Y-72225075D01*
X186355759Y-72239016D01*
X186439254Y-72288691D01*
X186468368Y-72319812D01*
X186600272Y-72487541D01*
X186759034Y-72625109D01*
X186940967Y-72730148D01*
X186940971Y-72730149D01*
X187139483Y-72798855D01*
X187150000Y-72800366D01*
X187150000Y-71730617D01*
X187219052Y-71784363D01*
X187337424Y-71825000D01*
X187431073Y-71825000D01*
X187523446Y-71809586D01*
X187633514Y-71750019D01*
X187650000Y-71732110D01*
X187650000Y-72796258D01*
X187761411Y-72769230D01*
X187761414Y-72769229D01*
X187952496Y-72681965D01*
X187952500Y-72681962D01*
X188123619Y-72560109D01*
X188123630Y-72560099D01*
X188268587Y-72408072D01*
X188268591Y-72408067D01*
X188314980Y-72335886D01*
X188382442Y-72265972D01*
X188471523Y-72227196D01*
X188568663Y-72225462D01*
X188659072Y-72261034D01*
X188709492Y-72303889D01*
X188794129Y-72397888D01*
X188914385Y-72485259D01*
X188947271Y-72509152D01*
X189120189Y-72586141D01*
X189120192Y-72586142D01*
X189120197Y-72586144D01*
X189305354Y-72625500D01*
X189494645Y-72625500D01*
X189494646Y-72625500D01*
X189679803Y-72586144D01*
X189738301Y-72560099D01*
X189852728Y-72509152D01*
X189852728Y-72509151D01*
X189852730Y-72509151D01*
X190005871Y-72397888D01*
X190132533Y-72257216D01*
X190184359Y-72167448D01*
X190248417Y-72094405D01*
X190335553Y-72051434D01*
X190432500Y-72045079D01*
X190524499Y-72076308D01*
X190597544Y-72140366D01*
X190615641Y-72167450D01*
X190667466Y-72257215D01*
X190667469Y-72257219D01*
X190763675Y-72364066D01*
X190794129Y-72397888D01*
X190890519Y-72467919D01*
X190947271Y-72509152D01*
X191120189Y-72586141D01*
X191120192Y-72586142D01*
X191120197Y-72586144D01*
X191305354Y-72625500D01*
X191494645Y-72625500D01*
X191494646Y-72625500D01*
X191679803Y-72586144D01*
X191738301Y-72560099D01*
X191852728Y-72509152D01*
X191852728Y-72509151D01*
X191852730Y-72509151D01*
X192005871Y-72397888D01*
X192132533Y-72257216D01*
X192184359Y-72167448D01*
X192248417Y-72094405D01*
X192335553Y-72051434D01*
X192432500Y-72045079D01*
X192524499Y-72076308D01*
X192597544Y-72140366D01*
X192615641Y-72167450D01*
X192667466Y-72257215D01*
X192667469Y-72257219D01*
X192763675Y-72364066D01*
X192794129Y-72397888D01*
X192890519Y-72467919D01*
X192947271Y-72509152D01*
X193120189Y-72586141D01*
X193120192Y-72586142D01*
X193120197Y-72586144D01*
X193305354Y-72625500D01*
X193494645Y-72625500D01*
X193494646Y-72625500D01*
X193679803Y-72586144D01*
X193738301Y-72560099D01*
X193852728Y-72509152D01*
X193852728Y-72509151D01*
X193852730Y-72509151D01*
X194005871Y-72397888D01*
X194132533Y-72257216D01*
X194227179Y-72093284D01*
X194285674Y-71913256D01*
X194294950Y-71825000D01*
X194300500Y-71772195D01*
X194300500Y-71127804D01*
X194285674Y-70986744D01*
X194227179Y-70806716D01*
X194132533Y-70642784D01*
X194132531Y-70642781D01*
X194132530Y-70642780D01*
X194005873Y-70502114D01*
X194005872Y-70502113D01*
X194005871Y-70502112D01*
X193909477Y-70432078D01*
X193852728Y-70390847D01*
X193679810Y-70313858D01*
X193679796Y-70313854D01*
X193494646Y-70274500D01*
X193305354Y-70274500D01*
X193120203Y-70313854D01*
X193120189Y-70313858D01*
X192947271Y-70390847D01*
X192794126Y-70502114D01*
X192667469Y-70642780D01*
X192667464Y-70642787D01*
X192615640Y-70732550D01*
X192551582Y-70805595D01*
X192464446Y-70848566D01*
X192367499Y-70854920D01*
X192275500Y-70823690D01*
X192202455Y-70759632D01*
X192184360Y-70732550D01*
X192132535Y-70642787D01*
X192132530Y-70642780D01*
X192005873Y-70502114D01*
X192005872Y-70502113D01*
X192005871Y-70502112D01*
X191909477Y-70432078D01*
X191852728Y-70390847D01*
X191679810Y-70313858D01*
X191679796Y-70313854D01*
X191494646Y-70274500D01*
X191305354Y-70274500D01*
X191120203Y-70313854D01*
X191120189Y-70313858D01*
X190947271Y-70390847D01*
X190794126Y-70502114D01*
X190667469Y-70642780D01*
X190667464Y-70642787D01*
X190615640Y-70732550D01*
X190551582Y-70805595D01*
X190464446Y-70848566D01*
X190367499Y-70854920D01*
X190275500Y-70823690D01*
X190202455Y-70759632D01*
X190184360Y-70732550D01*
X190132535Y-70642787D01*
X190132530Y-70642780D01*
X190005873Y-70502114D01*
X190005872Y-70502113D01*
X190005871Y-70502112D01*
X189909477Y-70432078D01*
X189852728Y-70390847D01*
X189679810Y-70313858D01*
X189679796Y-70313854D01*
X189494646Y-70274500D01*
X189305354Y-70274500D01*
X189120203Y-70313854D01*
X189120189Y-70313858D01*
X188947271Y-70390847D01*
X188794126Y-70502114D01*
X188794125Y-70502114D01*
X188712399Y-70592880D01*
X188634553Y-70651010D01*
X188540387Y-70674924D01*
X188444238Y-70660982D01*
X188360743Y-70611306D01*
X188331631Y-70580187D01*
X188199727Y-70412458D01*
X188040965Y-70274890D01*
X187859032Y-70169851D01*
X187859029Y-70169850D01*
X187660518Y-70101145D01*
X187660509Y-70101143D01*
X187650000Y-70099631D01*
X187650000Y-71169382D01*
X187580948Y-71115637D01*
X187462576Y-71075000D01*
X187368927Y-71075000D01*
X187276554Y-71090414D01*
X187166486Y-71149981D01*
X187150000Y-71167889D01*
X187150000Y-70103741D01*
X187038581Y-70130772D01*
X186847503Y-70218034D01*
X186847499Y-70218037D01*
X186676380Y-70339890D01*
X186676369Y-70339900D01*
X186531412Y-70491927D01*
X186531403Y-70491938D01*
X186485017Y-70564115D01*
X186417554Y-70634029D01*
X186328472Y-70672803D01*
X186231333Y-70674536D01*
X186140925Y-70638963D01*
X186090507Y-70596109D01*
X186005871Y-70502112D01*
X185909474Y-70432076D01*
X185852728Y-70390847D01*
X185679810Y-70313858D01*
X185679796Y-70313854D01*
X185494646Y-70274500D01*
X185305354Y-70274500D01*
X185120203Y-70313854D01*
X185120189Y-70313858D01*
X184947271Y-70390847D01*
X184794129Y-70502112D01*
X184660119Y-70650944D01*
X184582273Y-70709073D01*
X184488107Y-70732988D01*
X184391958Y-70719046D01*
X184308462Y-70669371D01*
X184250333Y-70591525D01*
X184243446Y-70575697D01*
X184234361Y-70552658D01*
X184142922Y-70432078D01*
X184088551Y-70390847D01*
X184022340Y-70340637D01*
X183881568Y-70285124D01*
X183881564Y-70285123D01*
X183793102Y-70274500D01*
X183006898Y-70274500D01*
X182940551Y-70282467D01*
X182918435Y-70285123D01*
X182918431Y-70285124D01*
X182777659Y-70340637D01*
X182657080Y-70432076D01*
X182657076Y-70432080D01*
X182565637Y-70552659D01*
X182510124Y-70693431D01*
X182510123Y-70693435D01*
X182510123Y-70693436D01*
X182499500Y-70781898D01*
X182499500Y-72118102D01*
X179347802Y-72118102D01*
X179355543Y-72000000D01*
X179335391Y-71692540D01*
X179335346Y-71692316D01*
X179323962Y-71635082D01*
X179275280Y-71390341D01*
X179275278Y-71390336D01*
X179275278Y-71390333D01*
X179224945Y-71242059D01*
X179176238Y-71098573D01*
X179176234Y-71098566D01*
X179176232Y-71098559D01*
X179039965Y-70822239D01*
X179039964Y-70822238D01*
X179039960Y-70822229D01*
X178868778Y-70566036D01*
X178665620Y-70334380D01*
X178433964Y-70131222D01*
X178177771Y-69960040D01*
X178177766Y-69960037D01*
X178177760Y-69960034D01*
X177901440Y-69823767D01*
X177901422Y-69823760D01*
X177640784Y-69735285D01*
X177556645Y-69686708D01*
X177497501Y-69609629D01*
X177472356Y-69515785D01*
X177485038Y-69419461D01*
X177533615Y-69335322D01*
X177610694Y-69276178D01*
X177704538Y-69251033D01*
X177720823Y-69250500D01*
X209500500Y-69250500D01*
X209595788Y-69269454D01*
X209676570Y-69323430D01*
X209730546Y-69404212D01*
X209749500Y-69499500D01*
X209749500Y-102500500D01*
X209730546Y-102595788D01*
X209676570Y-102676570D01*
X209595788Y-102730546D01*
X209500500Y-102749500D01*
X177720823Y-102749500D01*
X177625535Y-102730546D01*
X177544753Y-102676570D01*
X177490777Y-102595788D01*
X177471823Y-102500500D01*
X177490777Y-102405212D01*
X177544753Y-102324430D01*
X177625535Y-102270454D01*
X177640784Y-102264715D01*
X177752798Y-102226690D01*
X177901427Y-102176238D01*
X177901436Y-102176233D01*
X177901440Y-102176232D01*
X178037333Y-102109216D01*
X178177771Y-102039960D01*
X178433964Y-101868778D01*
X178665620Y-101665620D01*
X178868778Y-101433964D01*
X179039960Y-101177772D01*
X179176238Y-100901427D01*
X179248909Y-100687344D01*
X179275278Y-100609666D01*
X179275278Y-100609664D01*
X179275280Y-100609659D01*
X179335391Y-100307460D01*
X179355543Y-100000000D01*
X188044722Y-100000000D01*
X188063763Y-100156818D01*
X188119780Y-100304523D01*
X188121814Y-100307470D01*
X188209517Y-100434530D01*
X188209519Y-100434532D01*
X188222796Y-100446294D01*
X188327760Y-100539283D01*
X188467635Y-100612696D01*
X188621015Y-100650500D01*
X188621020Y-100650500D01*
X188778980Y-100650500D01*
X188778985Y-100650500D01*
X188932365Y-100612696D01*
X189072240Y-100539283D01*
X189134884Y-100483786D01*
X189218777Y-100434786D01*
X189315036Y-100421620D01*
X189409005Y-100446294D01*
X189465116Y-100483786D01*
X189527760Y-100539283D01*
X189667635Y-100612696D01*
X189821015Y-100650500D01*
X189821020Y-100650500D01*
X189978980Y-100650500D01*
X189978985Y-100650500D01*
X190132365Y-100612696D01*
X190272240Y-100539283D01*
X190384886Y-100439487D01*
X190468776Y-100390490D01*
X190565035Y-100377324D01*
X190659005Y-100401997D01*
X190715111Y-100439486D01*
X190827760Y-100539283D01*
X190827761Y-100539283D01*
X190827763Y-100539285D01*
X190897697Y-100575989D01*
X190967635Y-100612696D01*
X191121015Y-100650500D01*
X191121020Y-100650500D01*
X191278980Y-100650500D01*
X191278985Y-100650500D01*
X191432365Y-100612696D01*
X191572240Y-100539283D01*
X191690483Y-100434530D01*
X191780220Y-100304523D01*
X191836237Y-100156818D01*
X191855278Y-100000000D01*
X191836237Y-99843182D01*
X191780220Y-99695477D01*
X191690483Y-99565470D01*
X191684884Y-99560510D01*
X191572239Y-99460716D01*
X191432367Y-99387305D01*
X191432366Y-99387304D01*
X191432365Y-99387304D01*
X191329155Y-99361865D01*
X191278986Y-99349500D01*
X191278985Y-99349500D01*
X191121015Y-99349500D01*
X191121013Y-99349500D01*
X191020673Y-99374231D01*
X190967635Y-99387304D01*
X190967634Y-99387304D01*
X190967632Y-99387305D01*
X190827763Y-99460714D01*
X190715116Y-99560510D01*
X190631222Y-99609509D01*
X190534964Y-99622675D01*
X190440994Y-99598001D01*
X190384884Y-99560510D01*
X190377202Y-99553704D01*
X190272240Y-99460717D01*
X190272238Y-99460716D01*
X190272236Y-99460714D01*
X190132367Y-99387305D01*
X190132366Y-99387304D01*
X190132365Y-99387304D01*
X190029155Y-99361865D01*
X189978986Y-99349500D01*
X189978985Y-99349500D01*
X189821015Y-99349500D01*
X189821013Y-99349500D01*
X189720673Y-99374231D01*
X189667635Y-99387304D01*
X189667634Y-99387304D01*
X189667632Y-99387305D01*
X189527760Y-99460716D01*
X189465115Y-99516214D01*
X189381221Y-99565214D01*
X189284962Y-99578379D01*
X189190993Y-99553704D01*
X189134885Y-99516214D01*
X189072239Y-99460716D01*
X188932367Y-99387305D01*
X188932366Y-99387304D01*
X188932365Y-99387304D01*
X188829155Y-99361865D01*
X188778986Y-99349500D01*
X188778985Y-99349500D01*
X188621015Y-99349500D01*
X188621013Y-99349500D01*
X188520673Y-99374231D01*
X188467635Y-99387304D01*
X188467634Y-99387304D01*
X188467632Y-99387305D01*
X188327760Y-99460716D01*
X188209519Y-99565467D01*
X188209517Y-99565469D01*
X188119781Y-99695475D01*
X188119779Y-99695479D01*
X188063763Y-99843180D01*
X188063763Y-99843182D01*
X188044722Y-100000000D01*
X179355543Y-100000000D01*
X179335391Y-99692540D01*
X179275280Y-99390341D01*
X179275278Y-99390336D01*
X179275278Y-99390333D01*
X179225114Y-99242559D01*
X179176238Y-99098573D01*
X179176234Y-99098566D01*
X179176232Y-99098559D01*
X179039965Y-98822239D01*
X179039964Y-98822238D01*
X179039960Y-98822229D01*
X178868778Y-98566036D01*
X178665620Y-98334380D01*
X178433964Y-98131222D01*
X178387237Y-98100000D01*
X188044722Y-98100000D01*
X188063763Y-98256818D01*
X188119780Y-98404523D01*
X188119781Y-98404524D01*
X188209517Y-98534530D01*
X188209519Y-98534532D01*
X188222796Y-98546294D01*
X188327760Y-98639283D01*
X188467635Y-98712696D01*
X188621015Y-98750500D01*
X188621020Y-98750500D01*
X188778980Y-98750500D01*
X188778985Y-98750500D01*
X188932365Y-98712696D01*
X189072240Y-98639283D01*
X189134884Y-98583786D01*
X189218777Y-98534786D01*
X189315036Y-98521620D01*
X189409005Y-98546294D01*
X189465116Y-98583786D01*
X189527760Y-98639283D01*
X189667635Y-98712696D01*
X189821015Y-98750500D01*
X189821020Y-98750500D01*
X189978980Y-98750500D01*
X189978985Y-98750500D01*
X190132365Y-98712696D01*
X190272240Y-98639283D01*
X190384886Y-98539487D01*
X190468776Y-98490490D01*
X190565035Y-98477324D01*
X190659005Y-98501997D01*
X190715111Y-98539486D01*
X190827760Y-98639283D01*
X190827761Y-98639283D01*
X190827763Y-98639285D01*
X190897697Y-98675989D01*
X190967635Y-98712696D01*
X191121015Y-98750500D01*
X191121020Y-98750500D01*
X191278980Y-98750500D01*
X191278985Y-98750500D01*
X191432365Y-98712696D01*
X191572240Y-98639283D01*
X191690483Y-98534530D01*
X191780220Y-98404523D01*
X191781935Y-98400000D01*
X203044722Y-98400000D01*
X203063763Y-98556819D01*
X203104854Y-98665166D01*
X203119780Y-98704523D01*
X203209517Y-98834530D01*
X203327760Y-98939283D01*
X203467635Y-99012696D01*
X203621015Y-99050500D01*
X203621020Y-99050500D01*
X203778980Y-99050500D01*
X203778985Y-99050500D01*
X203932365Y-99012696D01*
X204072240Y-98939283D01*
X204190483Y-98834530D01*
X204195074Y-98827879D01*
X204264801Y-98760223D01*
X204355111Y-98724402D01*
X204452255Y-98725867D01*
X204541443Y-98764396D01*
X204604926Y-98827879D01*
X204609515Y-98834528D01*
X204609517Y-98834530D01*
X204727760Y-98939283D01*
X204867635Y-99012696D01*
X205021015Y-99050500D01*
X205021020Y-99050500D01*
X205178980Y-99050500D01*
X205178985Y-99050500D01*
X205332365Y-99012696D01*
X205472240Y-98939283D01*
X205590483Y-98834530D01*
X205680220Y-98704523D01*
X205736237Y-98556818D01*
X205755278Y-98400000D01*
X205736237Y-98243182D01*
X205680220Y-98095477D01*
X205590483Y-97965470D01*
X205584358Y-97960044D01*
X205472241Y-97860718D01*
X205463843Y-97854921D01*
X205396191Y-97785192D01*
X205360372Y-97694880D01*
X205361841Y-97597737D01*
X205400373Y-97508549D01*
X205463843Y-97445079D01*
X205472232Y-97439287D01*
X205472240Y-97439283D01*
X205590483Y-97334530D01*
X205680220Y-97204523D01*
X205736237Y-97056818D01*
X205755278Y-96900000D01*
X205736237Y-96743182D01*
X205680220Y-96595477D01*
X205590483Y-96465470D01*
X205520952Y-96403872D01*
X205472239Y-96360716D01*
X205332367Y-96287305D01*
X205332366Y-96287304D01*
X205332365Y-96287304D01*
X205229155Y-96261865D01*
X205178986Y-96249500D01*
X205178985Y-96249500D01*
X205021015Y-96249500D01*
X205021013Y-96249500D01*
X204920673Y-96274231D01*
X204867635Y-96287304D01*
X204867634Y-96287304D01*
X204867632Y-96287305D01*
X204727760Y-96360716D01*
X204609519Y-96465467D01*
X204609515Y-96465471D01*
X204604923Y-96472125D01*
X204535194Y-96539779D01*
X204444883Y-96575598D01*
X204347739Y-96574131D01*
X204258552Y-96535600D01*
X204195077Y-96472125D01*
X204190484Y-96465471D01*
X204190480Y-96465467D01*
X204072239Y-96360716D01*
X203932367Y-96287305D01*
X203932366Y-96287304D01*
X203932365Y-96287304D01*
X203829155Y-96261865D01*
X203778986Y-96249500D01*
X203778985Y-96249500D01*
X203621015Y-96249500D01*
X203621013Y-96249500D01*
X203520673Y-96274231D01*
X203467635Y-96287304D01*
X203467634Y-96287304D01*
X203467632Y-96287305D01*
X203327760Y-96360716D01*
X203209519Y-96465467D01*
X203209517Y-96465469D01*
X203119781Y-96595475D01*
X203119779Y-96595479D01*
X203063763Y-96743180D01*
X203063763Y-96743182D01*
X203044722Y-96900000D01*
X203063763Y-97056818D01*
X203119780Y-97204523D01*
X203134513Y-97225867D01*
X203209517Y-97334530D01*
X203209519Y-97334532D01*
X203327761Y-97439284D01*
X203336160Y-97445082D01*
X203403811Y-97514813D01*
X203439628Y-97605125D01*
X203438157Y-97702269D01*
X203399623Y-97791455D01*
X203336160Y-97854918D01*
X203327761Y-97860715D01*
X203209519Y-97965467D01*
X203209517Y-97965469D01*
X203119781Y-98095475D01*
X203119779Y-98095479D01*
X203063763Y-98243180D01*
X203044722Y-98400000D01*
X191781935Y-98400000D01*
X191836237Y-98256818D01*
X191855278Y-98100000D01*
X191836237Y-97943182D01*
X191780220Y-97795477D01*
X191690483Y-97665470D01*
X191689512Y-97664610D01*
X191572239Y-97560716D01*
X191432367Y-97487305D01*
X191432366Y-97487304D01*
X191432365Y-97487304D01*
X191308676Y-97456818D01*
X191278986Y-97449500D01*
X191278985Y-97449500D01*
X191121015Y-97449500D01*
X191121013Y-97449500D01*
X191020673Y-97474231D01*
X190967635Y-97487304D01*
X190967634Y-97487304D01*
X190967632Y-97487305D01*
X190827763Y-97560714D01*
X190715116Y-97660510D01*
X190631222Y-97709509D01*
X190534964Y-97722675D01*
X190440994Y-97698001D01*
X190384884Y-97660510D01*
X190372456Y-97649500D01*
X190272240Y-97560717D01*
X190272238Y-97560716D01*
X190272236Y-97560714D01*
X190132367Y-97487305D01*
X190132366Y-97487304D01*
X190132365Y-97487304D01*
X190008676Y-97456818D01*
X189978986Y-97449500D01*
X189978985Y-97449500D01*
X189821015Y-97449500D01*
X189821013Y-97449500D01*
X189720673Y-97474231D01*
X189667635Y-97487304D01*
X189667634Y-97487304D01*
X189667632Y-97487305D01*
X189527760Y-97560716D01*
X189465115Y-97616214D01*
X189381221Y-97665214D01*
X189284962Y-97678379D01*
X189190993Y-97653704D01*
X189134885Y-97616214D01*
X189072239Y-97560716D01*
X188932367Y-97487305D01*
X188932366Y-97487304D01*
X188932365Y-97487304D01*
X188808676Y-97456818D01*
X188778986Y-97449500D01*
X188778985Y-97449500D01*
X188621015Y-97449500D01*
X188621013Y-97449500D01*
X188520673Y-97474231D01*
X188467635Y-97487304D01*
X188467634Y-97487304D01*
X188467632Y-97487305D01*
X188327760Y-97560716D01*
X188209519Y-97665467D01*
X188209517Y-97665469D01*
X188119781Y-97795475D01*
X188119779Y-97795479D01*
X188063763Y-97943180D01*
X188052034Y-98039779D01*
X188044722Y-98100000D01*
X178387237Y-98100000D01*
X178177771Y-97960040D01*
X178177766Y-97960037D01*
X178177760Y-97960034D01*
X177901440Y-97823767D01*
X177901428Y-97823762D01*
X177901427Y-97823762D01*
X177893836Y-97821185D01*
X177609666Y-97724721D01*
X177609659Y-97724720D01*
X177307470Y-97664610D01*
X177307458Y-97664608D01*
X177148759Y-97654207D01*
X177076941Y-97649500D01*
X176923059Y-97649500D01*
X176854785Y-97653974D01*
X176692541Y-97664608D01*
X176692529Y-97664610D01*
X176390340Y-97724720D01*
X176390333Y-97724721D01*
X176098578Y-97823760D01*
X176098559Y-97823767D01*
X175822239Y-97960034D01*
X175822222Y-97960044D01*
X175619535Y-98095475D01*
X175566036Y-98131222D01*
X175334380Y-98334380D01*
X175131222Y-98566036D01*
X175131220Y-98566038D01*
X175131219Y-98566040D01*
X174960044Y-98822221D01*
X174960034Y-98822238D01*
X174823767Y-99098559D01*
X174823760Y-99098578D01*
X174724721Y-99390333D01*
X174724720Y-99390340D01*
X174664610Y-99692529D01*
X174664608Y-99692541D01*
X174644457Y-100000000D01*
X174664608Y-100307458D01*
X174664610Y-100307470D01*
X174724720Y-100609659D01*
X174724721Y-100609666D01*
X174823760Y-100901421D01*
X174823767Y-100901440D01*
X174960034Y-101177760D01*
X174960035Y-101177761D01*
X174960040Y-101177771D01*
X175131222Y-101433964D01*
X175334380Y-101665620D01*
X175566036Y-101868778D01*
X175822229Y-102039960D01*
X175822238Y-102039964D01*
X175822239Y-102039965D01*
X176098559Y-102176232D01*
X176098567Y-102176235D01*
X176098573Y-102176238D01*
X176204155Y-102212078D01*
X176359216Y-102264715D01*
X176443355Y-102313292D01*
X176502499Y-102390371D01*
X176527644Y-102484215D01*
X176514962Y-102580539D01*
X176466385Y-102664678D01*
X176389306Y-102723822D01*
X176295462Y-102748967D01*
X176279177Y-102749500D01*
X166499500Y-102749500D01*
X166404212Y-102730546D01*
X166323430Y-102676570D01*
X166269454Y-102595788D01*
X166250500Y-102500500D01*
X166250500Y-97300000D01*
X179344722Y-97300000D01*
X179363763Y-97456819D01*
X179399292Y-97550500D01*
X179419780Y-97604523D01*
X179509517Y-97734530D01*
X179627760Y-97839283D01*
X179767635Y-97912696D01*
X179921015Y-97950500D01*
X179921020Y-97950500D01*
X180078980Y-97950500D01*
X180078985Y-97950500D01*
X180232365Y-97912696D01*
X180372240Y-97839283D01*
X180490483Y-97734530D01*
X180580220Y-97604523D01*
X180636237Y-97456818D01*
X180655278Y-97300000D01*
X180636237Y-97143182D01*
X180580220Y-96995477D01*
X180490483Y-96865470D01*
X180372240Y-96760717D01*
X180372239Y-96760716D01*
X180232367Y-96687305D01*
X180232366Y-96687304D01*
X180232365Y-96687304D01*
X180129155Y-96661865D01*
X180078986Y-96649500D01*
X180078985Y-96649500D01*
X179921015Y-96649500D01*
X179921013Y-96649500D01*
X179820673Y-96674231D01*
X179767635Y-96687304D01*
X179767634Y-96687304D01*
X179767632Y-96687305D01*
X179627760Y-96760716D01*
X179509519Y-96865467D01*
X179509517Y-96865469D01*
X179419781Y-96995475D01*
X179419779Y-96995479D01*
X179363763Y-97143180D01*
X179344722Y-97300000D01*
X166250500Y-97300000D01*
X166250500Y-95656613D01*
X168349500Y-95656613D01*
X168366864Y-95749500D01*
X168388679Y-95866198D01*
X168427137Y-95965470D01*
X168465702Y-96065019D01*
X168465704Y-96065022D01*
X168577942Y-96246294D01*
X168577945Y-96246297D01*
X168577948Y-96246302D01*
X168721593Y-96403872D01*
X168891745Y-96532366D01*
X168891748Y-96532368D01*
X168906632Y-96539779D01*
X169082611Y-96627405D01*
X169082617Y-96627406D01*
X169082620Y-96627408D01*
X169287685Y-96685755D01*
X169287687Y-96685755D01*
X169287690Y-96685756D01*
X169446806Y-96700500D01*
X169446809Y-96700500D01*
X169853191Y-96700500D01*
X169853194Y-96700500D01*
X170012310Y-96685756D01*
X170012314Y-96685755D01*
X170217379Y-96627408D01*
X170217379Y-96627407D01*
X170217389Y-96627405D01*
X170408255Y-96532366D01*
X170578407Y-96403872D01*
X170581937Y-96400000D01*
X182594722Y-96400000D01*
X182613763Y-96556819D01*
X182628424Y-96595477D01*
X182669780Y-96704523D01*
X182759517Y-96834530D01*
X182877760Y-96939283D01*
X183017635Y-97012696D01*
X183171015Y-97050500D01*
X183171020Y-97050500D01*
X183328980Y-97050500D01*
X183328985Y-97050500D01*
X183482365Y-97012696D01*
X183622240Y-96939283D01*
X183740483Y-96834530D01*
X183830220Y-96704523D01*
X183886237Y-96556818D01*
X183905278Y-96400000D01*
X183886237Y-96243182D01*
X183830220Y-96095477D01*
X183740483Y-95965470D01*
X183641325Y-95877625D01*
X183622239Y-95860716D01*
X183482367Y-95787305D01*
X183482366Y-95787304D01*
X183482365Y-95787304D01*
X183379155Y-95761865D01*
X183328986Y-95749500D01*
X183328985Y-95749500D01*
X183171015Y-95749500D01*
X183171013Y-95749500D01*
X183070673Y-95774231D01*
X183017635Y-95787304D01*
X183017634Y-95787304D01*
X183017632Y-95787305D01*
X182877760Y-95860716D01*
X182759519Y-95965467D01*
X182759517Y-95965469D01*
X182669781Y-96095475D01*
X182669779Y-96095479D01*
X182613763Y-96243180D01*
X182594722Y-96400000D01*
X170581937Y-96400000D01*
X170722052Y-96246302D01*
X170834298Y-96065019D01*
X170911321Y-95866198D01*
X170934218Y-95743709D01*
X170950500Y-95656613D01*
X170950500Y-95600000D01*
X188844750Y-95600000D01*
X188863670Y-95743709D01*
X188863670Y-95743711D01*
X188863671Y-95743712D01*
X188863671Y-95743714D01*
X188919136Y-95877621D01*
X188919141Y-95877628D01*
X189007374Y-95992616D01*
X189007383Y-95992625D01*
X189122371Y-96080858D01*
X189122378Y-96080863D01*
X189256286Y-96136328D01*
X189256291Y-96136330D01*
X189400000Y-96155250D01*
X189543709Y-96136330D01*
X189543714Y-96136328D01*
X189677621Y-96080863D01*
X189677622Y-96080862D01*
X189677625Y-96080861D01*
X189792621Y-95992621D01*
X189880861Y-95877625D01*
X189887865Y-95860717D01*
X189936328Y-95743714D01*
X189936328Y-95743713D01*
X189936330Y-95743709D01*
X189955250Y-95600000D01*
X189936330Y-95456291D01*
X189930986Y-95443390D01*
X189874616Y-95307297D01*
X189876047Y-95306704D01*
X189850858Y-95232501D01*
X189857212Y-95135554D01*
X189874911Y-95092825D01*
X189874616Y-95092703D01*
X189936328Y-94943714D01*
X189936328Y-94943713D01*
X189936330Y-94943709D01*
X189955250Y-94800000D01*
X189936330Y-94656291D01*
X189936328Y-94656285D01*
X189880863Y-94522378D01*
X189880858Y-94522371D01*
X189792625Y-94407383D01*
X189792616Y-94407374D01*
X189677628Y-94319141D01*
X189677621Y-94319136D01*
X189543713Y-94263671D01*
X189543710Y-94263670D01*
X189543709Y-94263670D01*
X189400000Y-94244750D01*
X189256291Y-94263670D01*
X189256289Y-94263670D01*
X189256287Y-94263671D01*
X189256285Y-94263671D01*
X189122378Y-94319136D01*
X189122371Y-94319141D01*
X189007383Y-94407374D01*
X189007374Y-94407383D01*
X188919141Y-94522371D01*
X188919136Y-94522378D01*
X188863671Y-94656285D01*
X188863671Y-94656287D01*
X188863670Y-94656289D01*
X188863670Y-94656291D01*
X188844750Y-94800000D01*
X188863670Y-94943709D01*
X188863670Y-94943711D01*
X188863671Y-94943712D01*
X188863671Y-94943714D01*
X188925384Y-95092703D01*
X188923954Y-95093295D01*
X188949143Y-95167514D01*
X188942783Y-95264461D01*
X188925089Y-95307175D01*
X188925384Y-95307297D01*
X188863671Y-95456285D01*
X188863671Y-95456287D01*
X188863670Y-95456289D01*
X188863670Y-95456291D01*
X188844750Y-95600000D01*
X170950500Y-95600000D01*
X170950500Y-95443386D01*
X170917052Y-95264461D01*
X170911321Y-95233802D01*
X170834298Y-95034981D01*
X170777788Y-94943714D01*
X170722057Y-94853705D01*
X170722054Y-94853702D01*
X170722052Y-94853698D01*
X170578407Y-94696128D01*
X170578406Y-94696127D01*
X170578404Y-94696125D01*
X170476163Y-94618916D01*
X170411544Y-94546367D01*
X170379608Y-94454611D01*
X170385216Y-94357618D01*
X170427515Y-94270154D01*
X170500064Y-94205535D01*
X170534874Y-94188572D01*
X170620578Y-94154773D01*
X170672342Y-94134361D01*
X170792922Y-94042922D01*
X170884361Y-93922342D01*
X170939877Y-93781564D01*
X170950500Y-93693102D01*
X170950500Y-92406898D01*
X170939877Y-92318436D01*
X170934677Y-92305249D01*
X170884362Y-92177659D01*
X170802522Y-92069738D01*
X170792922Y-92057078D01*
X170713682Y-91996988D01*
X170672340Y-91965637D01*
X170531568Y-91910124D01*
X170531564Y-91910123D01*
X170443102Y-91899500D01*
X168856898Y-91899500D01*
X168790551Y-91907467D01*
X168768435Y-91910123D01*
X168768431Y-91910124D01*
X168627659Y-91965637D01*
X168507080Y-92057076D01*
X168507076Y-92057080D01*
X168415637Y-92177659D01*
X168360124Y-92318431D01*
X168360123Y-92318435D01*
X168360123Y-92318436D01*
X168349500Y-92406898D01*
X168349500Y-93693102D01*
X168353016Y-93722378D01*
X168360123Y-93781564D01*
X168360124Y-93781568D01*
X168415637Y-93922340D01*
X168415639Y-93922342D01*
X168507078Y-94042922D01*
X168589231Y-94105221D01*
X168627659Y-94134362D01*
X168765126Y-94188572D01*
X168846817Y-94241161D01*
X168902165Y-94321009D01*
X168922743Y-94415960D01*
X168905418Y-94511558D01*
X168852829Y-94593249D01*
X168823837Y-94618916D01*
X168721593Y-94696128D01*
X168577942Y-94853705D01*
X168465704Y-95034977D01*
X168465702Y-95034980D01*
X168443293Y-95092825D01*
X168404633Y-95192621D01*
X168388678Y-95233805D01*
X168349500Y-95443386D01*
X168349500Y-95656613D01*
X166250500Y-95656613D01*
X166250500Y-91750000D01*
X178694750Y-91750000D01*
X178713670Y-91893709D01*
X178713670Y-91893711D01*
X178713671Y-91893712D01*
X178713671Y-91893714D01*
X178769136Y-92027621D01*
X178769141Y-92027628D01*
X178857374Y-92142616D01*
X178857383Y-92142625D01*
X178972371Y-92230858D01*
X178972378Y-92230863D01*
X179106286Y-92286328D01*
X179106291Y-92286330D01*
X179250000Y-92305250D01*
X179393709Y-92286330D01*
X179393714Y-92286328D01*
X179527621Y-92230863D01*
X179527622Y-92230862D01*
X179527625Y-92230861D01*
X179642621Y-92142621D01*
X179730861Y-92027625D01*
X179783113Y-91901477D01*
X179786328Y-91893714D01*
X179786328Y-91893713D01*
X179786330Y-91893709D01*
X179805250Y-91750000D01*
X179786330Y-91606291D01*
X179754471Y-91529375D01*
X179730863Y-91472378D01*
X179730858Y-91472371D01*
X179642625Y-91357383D01*
X179642616Y-91357374D01*
X179527628Y-91269141D01*
X179527621Y-91269136D01*
X179393713Y-91213671D01*
X179393710Y-91213670D01*
X179393709Y-91213670D01*
X179307673Y-91202343D01*
X186194735Y-91202343D01*
X186213776Y-91359161D01*
X186269793Y-91506866D01*
X186359530Y-91636873D01*
X186477773Y-91741626D01*
X186501300Y-91753974D01*
X186576864Y-91815040D01*
X186623308Y-91900375D01*
X186633560Y-91996988D01*
X186615629Y-92069738D01*
X186582226Y-92150381D01*
X186582225Y-92150383D01*
X186582225Y-92150385D01*
X186564327Y-92286330D01*
X186563305Y-92294096D01*
X186578357Y-92408433D01*
X186572002Y-92505380D01*
X186529032Y-92592513D01*
X186453289Y-92691223D01*
X186453284Y-92691230D01*
X186397819Y-92825137D01*
X186397819Y-92825139D01*
X186397818Y-92825141D01*
X186397818Y-92825143D01*
X186378898Y-92968852D01*
X186397818Y-93112561D01*
X186397818Y-93112563D01*
X186397819Y-93112564D01*
X186397819Y-93112566D01*
X186453284Y-93246473D01*
X186453289Y-93246480D01*
X186541522Y-93361468D01*
X186541531Y-93361477D01*
X186656519Y-93449710D01*
X186656526Y-93449715D01*
X186790434Y-93505180D01*
X186790439Y-93505182D01*
X186934148Y-93524102D01*
X186934149Y-93524101D01*
X186950329Y-93526232D01*
X186950048Y-93528365D01*
X187023900Y-93543056D01*
X187104682Y-93597032D01*
X187158658Y-93677814D01*
X187177612Y-93773102D01*
X187164391Y-93839584D01*
X187167895Y-93840523D01*
X187163671Y-93856287D01*
X187163670Y-93856289D01*
X187163670Y-93856291D01*
X187144750Y-94000000D01*
X187163670Y-94143709D01*
X187163670Y-94143711D01*
X187163671Y-94143712D01*
X187163671Y-94143714D01*
X187219136Y-94277621D01*
X187219141Y-94277628D01*
X187307374Y-94392616D01*
X187307383Y-94392625D01*
X187422371Y-94480858D01*
X187422378Y-94480863D01*
X187522590Y-94522371D01*
X187556291Y-94536330D01*
X187700000Y-94555250D01*
X187843709Y-94536330D01*
X187843714Y-94536328D01*
X187977621Y-94480863D01*
X187977622Y-94480862D01*
X187977625Y-94480861D01*
X188092621Y-94392621D01*
X188180861Y-94277625D01*
X188186642Y-94263670D01*
X188236328Y-94143714D01*
X188236328Y-94143713D01*
X188236330Y-94143709D01*
X188255250Y-94000000D01*
X188236330Y-93856291D01*
X188229410Y-93839584D01*
X188180863Y-93722378D01*
X188180858Y-93722371D01*
X188092625Y-93607383D01*
X188092616Y-93607374D01*
X187977628Y-93519141D01*
X187977621Y-93519136D01*
X187843713Y-93463671D01*
X187843710Y-93463670D01*
X187843709Y-93463670D01*
X187700000Y-93444750D01*
X187699998Y-93444750D01*
X187683819Y-93442620D01*
X187684099Y-93440486D01*
X187610248Y-93425796D01*
X187529466Y-93371820D01*
X187475490Y-93291038D01*
X187456536Y-93195750D01*
X187469756Y-93129267D01*
X187466253Y-93128329D01*
X187470474Y-93112569D01*
X187470478Y-93112561D01*
X187489398Y-92968852D01*
X187489398Y-92968849D01*
X187489398Y-92968848D01*
X187474345Y-92854517D01*
X187480698Y-92757570D01*
X187523666Y-92670437D01*
X187599416Y-92571719D01*
X187654885Y-92437803D01*
X187673805Y-92294094D01*
X187654885Y-92150385D01*
X187651671Y-92142625D01*
X187599418Y-92016472D01*
X187599413Y-92016465D01*
X187511180Y-91901477D01*
X187511172Y-91901469D01*
X187468037Y-91868371D01*
X187403978Y-91795326D01*
X187372747Y-91703328D01*
X187379101Y-91606381D01*
X187414692Y-91529380D01*
X187430233Y-91506866D01*
X187486250Y-91359161D01*
X187505291Y-91202343D01*
X187486250Y-91045525D01*
X187430233Y-90897820D01*
X187340496Y-90767813D01*
X187328086Y-90756819D01*
X187222252Y-90663059D01*
X187174457Y-90637974D01*
X187127467Y-90600000D01*
X201344722Y-90600000D01*
X201363763Y-90756819D01*
X201367932Y-90767812D01*
X201419780Y-90904523D01*
X201419781Y-90904524D01*
X201509517Y-91034530D01*
X201509519Y-91034532D01*
X201521928Y-91045525D01*
X201627760Y-91139283D01*
X201767635Y-91212696D01*
X201921015Y-91250500D01*
X201921020Y-91250500D01*
X202078980Y-91250500D01*
X202078985Y-91250500D01*
X202232365Y-91212696D01*
X202372240Y-91139283D01*
X202484886Y-91039487D01*
X202568776Y-90990490D01*
X202665035Y-90977324D01*
X202759005Y-91001997D01*
X202815111Y-91039486D01*
X202927760Y-91139283D01*
X202927761Y-91139283D01*
X202927763Y-91139285D01*
X202997697Y-91175989D01*
X203067635Y-91212696D01*
X203221015Y-91250500D01*
X203221020Y-91250500D01*
X203378980Y-91250500D01*
X203378985Y-91250500D01*
X203532365Y-91212696D01*
X203672240Y-91139283D01*
X203790483Y-91034530D01*
X203880220Y-90904523D01*
X203936237Y-90756818D01*
X203955278Y-90600000D01*
X203936237Y-90443182D01*
X203880220Y-90295477D01*
X203790483Y-90165470D01*
X203790482Y-90165469D01*
X203790173Y-90165120D01*
X203789796Y-90164475D01*
X203781926Y-90153073D01*
X203782788Y-90152477D01*
X203741171Y-90081227D01*
X203728004Y-89984969D01*
X203752676Y-89890999D01*
X203782061Y-89847020D01*
X203781926Y-89846927D01*
X203788103Y-89837976D01*
X203790173Y-89834880D01*
X203790478Y-89834534D01*
X203790483Y-89834530D01*
X203880220Y-89704523D01*
X203936237Y-89556818D01*
X203955278Y-89400000D01*
X203936237Y-89243182D01*
X203880220Y-89095477D01*
X203790483Y-88965470D01*
X203784884Y-88960510D01*
X203672239Y-88860716D01*
X203532367Y-88787305D01*
X203532366Y-88787304D01*
X203532365Y-88787304D01*
X203429155Y-88761865D01*
X203378986Y-88749500D01*
X203378985Y-88749500D01*
X203221015Y-88749500D01*
X203221013Y-88749500D01*
X203120673Y-88774231D01*
X203067635Y-88787304D01*
X203067634Y-88787304D01*
X203067632Y-88787305D01*
X202927763Y-88860714D01*
X202815116Y-88960510D01*
X202731222Y-89009509D01*
X202634964Y-89022675D01*
X202540994Y-88998001D01*
X202484884Y-88960510D01*
X202372240Y-88860717D01*
X202372238Y-88860716D01*
X202372236Y-88860714D01*
X202232367Y-88787305D01*
X202232366Y-88787304D01*
X202232365Y-88787304D01*
X202129155Y-88761865D01*
X202078986Y-88749500D01*
X202078985Y-88749500D01*
X201921015Y-88749500D01*
X201921013Y-88749500D01*
X201820673Y-88774231D01*
X201767635Y-88787304D01*
X201767634Y-88787304D01*
X201767632Y-88787305D01*
X201627760Y-88860716D01*
X201509519Y-88965467D01*
X201509517Y-88965469D01*
X201419781Y-89095475D01*
X201419779Y-89095479D01*
X201363763Y-89243180D01*
X201344722Y-89400000D01*
X201363763Y-89556819D01*
X201404854Y-89665166D01*
X201419780Y-89704523D01*
X201454794Y-89755250D01*
X201509520Y-89834535D01*
X201509834Y-89834889D01*
X201510214Y-89835540D01*
X201518074Y-89846927D01*
X201517212Y-89847521D01*
X201558832Y-89918784D01*
X201571994Y-90015043D01*
X201547318Y-90109012D01*
X201517939Y-90152980D01*
X201518074Y-90153073D01*
X201511927Y-90161977D01*
X201509834Y-90165111D01*
X201509520Y-90165464D01*
X201419781Y-90295475D01*
X201419779Y-90295479D01*
X201363763Y-90443180D01*
X201344722Y-90600000D01*
X187127467Y-90600000D01*
X187098892Y-90576908D01*
X187052448Y-90491573D01*
X187042196Y-90394960D01*
X187069696Y-90301779D01*
X187130762Y-90226214D01*
X187174458Y-90197018D01*
X187274776Y-90144366D01*
X187274775Y-90144366D01*
X187274780Y-90144364D01*
X187393023Y-90039611D01*
X187482760Y-89909604D01*
X187538777Y-89761899D01*
X187557818Y-89605081D01*
X187538777Y-89448263D01*
X187482760Y-89300558D01*
X187393023Y-89170551D01*
X187274780Y-89065798D01*
X187274779Y-89065797D01*
X187134907Y-88992386D01*
X187134906Y-88992385D01*
X187134905Y-88992385D01*
X187025692Y-88965467D01*
X186981526Y-88954581D01*
X186981525Y-88954581D01*
X186823555Y-88954581D01*
X186823553Y-88954581D01*
X186723213Y-88979312D01*
X186670175Y-88992385D01*
X186670174Y-88992385D01*
X186670172Y-88992386D01*
X186530300Y-89065797D01*
X186412059Y-89170548D01*
X186412057Y-89170550D01*
X186322321Y-89300556D01*
X186322319Y-89300560D01*
X186266303Y-89448261D01*
X186247262Y-89605081D01*
X186265495Y-89755249D01*
X186266303Y-89761899D01*
X186322320Y-89909604D01*
X186412057Y-90039611D01*
X186530300Y-90144364D01*
X186578095Y-90169449D01*
X186653659Y-90230514D01*
X186700103Y-90315849D01*
X186710356Y-90412461D01*
X186682857Y-90505643D01*
X186621791Y-90581208D01*
X186578097Y-90610404D01*
X186477774Y-90663059D01*
X186477773Y-90663059D01*
X186359532Y-90767810D01*
X186359530Y-90767812D01*
X186269794Y-90897818D01*
X186269792Y-90897822D01*
X186213776Y-91045523D01*
X186195657Y-91194750D01*
X186194735Y-91202343D01*
X179307673Y-91202343D01*
X179250000Y-91194750D01*
X179106291Y-91213670D01*
X179106289Y-91213670D01*
X179106287Y-91213671D01*
X179106285Y-91213671D01*
X178972378Y-91269136D01*
X178972371Y-91269141D01*
X178857383Y-91357374D01*
X178857374Y-91357383D01*
X178769141Y-91472371D01*
X178769136Y-91472378D01*
X178713671Y-91606285D01*
X178713671Y-91606287D01*
X178713670Y-91606289D01*
X178713670Y-91606291D01*
X178694750Y-91750000D01*
X166250500Y-91750000D01*
X166250500Y-89200000D01*
X179344750Y-89200000D01*
X179363670Y-89343709D01*
X179363670Y-89343711D01*
X179363671Y-89343712D01*
X179363671Y-89343714D01*
X179419136Y-89477621D01*
X179419141Y-89477628D01*
X179507374Y-89592616D01*
X179507383Y-89592625D01*
X179622371Y-89680858D01*
X179622378Y-89680863D01*
X179756286Y-89736328D01*
X179756291Y-89736330D01*
X179900000Y-89755250D01*
X180043709Y-89736330D01*
X180043714Y-89736328D01*
X180177621Y-89680863D01*
X180177622Y-89680862D01*
X180177625Y-89680861D01*
X180292621Y-89592621D01*
X180380861Y-89477625D01*
X180436330Y-89343709D01*
X180455250Y-89200000D01*
X180436330Y-89056291D01*
X180436328Y-89056285D01*
X180380863Y-88922378D01*
X180380858Y-88922371D01*
X180292625Y-88807383D01*
X180292616Y-88807374D01*
X180177628Y-88719141D01*
X180177621Y-88719136D01*
X180043713Y-88663671D01*
X180043710Y-88663670D01*
X180043709Y-88663670D01*
X179900000Y-88644750D01*
X179756291Y-88663670D01*
X179756289Y-88663670D01*
X179756287Y-88663671D01*
X179756285Y-88663671D01*
X179622378Y-88719136D01*
X179622371Y-88719141D01*
X179507383Y-88807374D01*
X179507374Y-88807383D01*
X179419141Y-88922371D01*
X179419136Y-88922378D01*
X179363671Y-89056285D01*
X179363671Y-89056287D01*
X179363670Y-89056289D01*
X179363670Y-89056291D01*
X179344750Y-89200000D01*
X166250500Y-89200000D01*
X166250500Y-88100000D01*
X180644750Y-88100000D01*
X180663670Y-88243709D01*
X180663670Y-88243711D01*
X180663671Y-88243712D01*
X180663671Y-88243714D01*
X180719136Y-88377621D01*
X180719141Y-88377628D01*
X180807374Y-88492616D01*
X180807383Y-88492625D01*
X180922371Y-88580858D01*
X180922378Y-88580863D01*
X181056286Y-88636328D01*
X181056291Y-88636330D01*
X181200000Y-88655250D01*
X181343709Y-88636330D01*
X181343714Y-88636328D01*
X181477621Y-88580863D01*
X181477622Y-88580862D01*
X181477625Y-88580861D01*
X181592621Y-88492621D01*
X181680861Y-88377625D01*
X181736330Y-88243709D01*
X181755250Y-88100000D01*
X181736330Y-87956291D01*
X181736328Y-87956285D01*
X181680863Y-87822378D01*
X181680858Y-87822371D01*
X181592625Y-87707383D01*
X181592616Y-87707374D01*
X181477628Y-87619141D01*
X181477621Y-87619136D01*
X181343713Y-87563671D01*
X181343710Y-87563670D01*
X181343709Y-87563670D01*
X181200000Y-87544750D01*
X181056291Y-87563670D01*
X181056289Y-87563670D01*
X181056287Y-87563671D01*
X181056285Y-87563671D01*
X180922378Y-87619136D01*
X180922371Y-87619141D01*
X180807383Y-87707374D01*
X180807374Y-87707383D01*
X180719141Y-87822371D01*
X180719136Y-87822378D01*
X180663671Y-87956285D01*
X180663671Y-87956287D01*
X180663670Y-87956289D01*
X180663670Y-87956291D01*
X180644750Y-88100000D01*
X166250500Y-88100000D01*
X166250500Y-87268598D01*
X166269454Y-87173310D01*
X166323430Y-87092528D01*
X166404212Y-87038552D01*
X166499500Y-87019598D01*
X166594788Y-87038552D01*
X166675570Y-87092528D01*
X166704425Y-87127153D01*
X166709516Y-87134529D01*
X166709519Y-87134532D01*
X166791177Y-87206874D01*
X166827760Y-87239283D01*
X166967635Y-87312696D01*
X167121015Y-87350500D01*
X167121020Y-87350500D01*
X167278980Y-87350500D01*
X167278985Y-87350500D01*
X167432365Y-87312696D01*
X167572240Y-87239283D01*
X167690483Y-87134530D01*
X167780220Y-87004523D01*
X167836237Y-86856818D01*
X167855278Y-86700000D01*
X167846779Y-86630000D01*
X169444750Y-86630000D01*
X169463670Y-86773709D01*
X169463670Y-86773711D01*
X169463671Y-86773712D01*
X169463671Y-86773714D01*
X169519136Y-86907621D01*
X169519141Y-86907628D01*
X169607374Y-87022616D01*
X169607383Y-87022625D01*
X169722371Y-87110858D01*
X169722378Y-87110863D01*
X169856286Y-87166328D01*
X169856291Y-87166330D01*
X170000000Y-87185250D01*
X170143709Y-87166330D01*
X170143714Y-87166328D01*
X170277621Y-87110863D01*
X170277622Y-87110862D01*
X170277625Y-87110861D01*
X170392621Y-87022621D01*
X170480861Y-86907625D01*
X170503913Y-86851973D01*
X170536328Y-86773714D01*
X170536328Y-86773713D01*
X170536330Y-86773709D01*
X170546034Y-86700000D01*
X172694750Y-86700000D01*
X172713670Y-86843709D01*
X172713670Y-86843711D01*
X172713671Y-86843712D01*
X172713671Y-86843714D01*
X172769136Y-86977621D01*
X172769141Y-86977628D01*
X172857374Y-87092616D01*
X172857383Y-87092625D01*
X172972371Y-87180858D01*
X172972378Y-87180863D01*
X173072600Y-87222375D01*
X173106291Y-87236330D01*
X173250000Y-87255250D01*
X173393709Y-87236330D01*
X173393714Y-87236328D01*
X173527621Y-87180863D01*
X173527622Y-87180862D01*
X173527625Y-87180861D01*
X173642621Y-87092621D01*
X173642693Y-87092528D01*
X173684110Y-87038552D01*
X173730861Y-86977625D01*
X173786330Y-86843709D01*
X173805250Y-86700000D01*
X173786330Y-86556291D01*
X173786328Y-86556285D01*
X173730863Y-86422378D01*
X173730858Y-86422371D01*
X173642625Y-86307383D01*
X173642616Y-86307374D01*
X173527628Y-86219141D01*
X173527621Y-86219136D01*
X173481421Y-86200000D01*
X178444750Y-86200000D01*
X178463670Y-86343709D01*
X178463670Y-86343711D01*
X178463671Y-86343712D01*
X178463671Y-86343714D01*
X178519136Y-86477621D01*
X178519141Y-86477628D01*
X178607374Y-86592616D01*
X178607383Y-86592625D01*
X178722371Y-86680858D01*
X178722378Y-86680863D01*
X178856286Y-86736328D01*
X178856291Y-86736330D01*
X179000000Y-86755250D01*
X179143709Y-86736330D01*
X179143714Y-86736328D01*
X179277621Y-86680863D01*
X179277622Y-86680862D01*
X179277625Y-86680861D01*
X179392621Y-86592621D01*
X179480861Y-86477625D01*
X179514887Y-86395479D01*
X179536328Y-86343714D01*
X179536328Y-86343713D01*
X179536330Y-86343709D01*
X179555250Y-86200000D01*
X179536330Y-86056291D01*
X179536328Y-86056285D01*
X179514173Y-86002796D01*
X187382250Y-86002796D01*
X187401170Y-86146505D01*
X187401170Y-86146507D01*
X187401171Y-86146508D01*
X187401171Y-86146510D01*
X187456636Y-86280417D01*
X187456641Y-86280424D01*
X187544874Y-86395412D01*
X187544882Y-86395420D01*
X187552549Y-86401303D01*
X187616608Y-86474347D01*
X187647838Y-86566346D01*
X187647839Y-86631349D01*
X187638801Y-86700000D01*
X187637714Y-86708259D01*
X187656634Y-86851968D01*
X187656634Y-86851970D01*
X187656635Y-86851971D01*
X187656635Y-86851973D01*
X187718348Y-87000962D01*
X187717326Y-87001385D01*
X187743239Y-87077725D01*
X187736883Y-87174672D01*
X187723672Y-87206588D01*
X187725384Y-87207297D01*
X187663671Y-87356285D01*
X187663671Y-87356287D01*
X187663670Y-87356289D01*
X187663670Y-87356291D01*
X187644750Y-87500000D01*
X187663670Y-87643709D01*
X187663670Y-87643711D01*
X187663671Y-87643712D01*
X187663671Y-87643714D01*
X187719136Y-87777621D01*
X187719141Y-87777628D01*
X187807374Y-87892616D01*
X187807383Y-87892625D01*
X187922371Y-87980858D01*
X187922378Y-87980863D01*
X188056286Y-88036328D01*
X188056291Y-88036330D01*
X188200000Y-88055250D01*
X188343709Y-88036330D01*
X188343714Y-88036328D01*
X188477621Y-87980863D01*
X188477622Y-87980862D01*
X188477625Y-87980861D01*
X188592621Y-87892621D01*
X188680861Y-87777625D01*
X188709958Y-87707379D01*
X188736328Y-87643714D01*
X188736328Y-87643713D01*
X188736330Y-87643709D01*
X188755250Y-87500000D01*
X188736330Y-87356291D01*
X188733931Y-87350500D01*
X188674616Y-87207297D01*
X188675637Y-87206874D01*
X188649724Y-87130538D01*
X188656078Y-87033591D01*
X188669300Y-87001674D01*
X188667580Y-87000962D01*
X188729292Y-86851973D01*
X188729292Y-86851972D01*
X188729294Y-86851968D01*
X188748214Y-86708259D01*
X188729294Y-86564550D01*
X188729292Y-86564544D01*
X188673827Y-86430637D01*
X188673822Y-86430630D01*
X188585589Y-86315642D01*
X188585580Y-86315633D01*
X188577913Y-86309750D01*
X188513854Y-86236705D01*
X188482624Y-86144706D01*
X188482624Y-86079709D01*
X188492750Y-86002796D01*
X188473830Y-85859087D01*
X188452414Y-85807383D01*
X188418363Y-85725174D01*
X188418358Y-85725167D01*
X188330125Y-85610179D01*
X188330116Y-85610170D01*
X188215128Y-85521937D01*
X188215121Y-85521932D01*
X188081213Y-85466467D01*
X188081210Y-85466466D01*
X188081209Y-85466466D01*
X187937500Y-85447546D01*
X187793791Y-85466466D01*
X187793789Y-85466466D01*
X187793787Y-85466467D01*
X187793785Y-85466467D01*
X187659878Y-85521932D01*
X187659871Y-85521937D01*
X187544883Y-85610170D01*
X187544874Y-85610179D01*
X187456641Y-85725167D01*
X187456636Y-85725174D01*
X187401171Y-85859081D01*
X187401171Y-85859083D01*
X187401170Y-85859085D01*
X187401170Y-85859087D01*
X187382250Y-86002796D01*
X179514173Y-86002796D01*
X179480863Y-85922378D01*
X179480858Y-85922371D01*
X179392625Y-85807383D01*
X179392616Y-85807374D01*
X179277628Y-85719141D01*
X179277621Y-85719136D01*
X179143713Y-85663671D01*
X179143710Y-85663670D01*
X179143709Y-85663670D01*
X179000000Y-85644750D01*
X178856291Y-85663670D01*
X178856289Y-85663670D01*
X178856287Y-85663671D01*
X178856285Y-85663671D01*
X178722378Y-85719136D01*
X178722371Y-85719141D01*
X178607383Y-85807374D01*
X178607374Y-85807383D01*
X178519141Y-85922371D01*
X178519136Y-85922378D01*
X178463671Y-86056285D01*
X178463671Y-86056287D01*
X178463670Y-86056289D01*
X178463670Y-86056291D01*
X178444750Y-86200000D01*
X173481421Y-86200000D01*
X173393713Y-86163671D01*
X173393710Y-86163670D01*
X173393709Y-86163670D01*
X173250000Y-86144750D01*
X173106291Y-86163670D01*
X173106289Y-86163670D01*
X173106287Y-86163671D01*
X173106285Y-86163671D01*
X172972378Y-86219136D01*
X172972371Y-86219141D01*
X172857383Y-86307374D01*
X172857374Y-86307383D01*
X172769141Y-86422371D01*
X172769136Y-86422378D01*
X172713671Y-86556285D01*
X172713671Y-86556287D01*
X172713670Y-86556289D01*
X172713670Y-86556291D01*
X172694750Y-86700000D01*
X170546034Y-86700000D01*
X170555250Y-86630000D01*
X170536330Y-86486291D01*
X170532742Y-86477628D01*
X170480863Y-86352378D01*
X170480858Y-86352371D01*
X170392625Y-86237383D01*
X170392616Y-86237374D01*
X170277628Y-86149141D01*
X170277621Y-86149136D01*
X170143713Y-86093671D01*
X170143710Y-86093670D01*
X170143709Y-86093670D01*
X170000000Y-86074750D01*
X169856291Y-86093670D01*
X169856289Y-86093670D01*
X169856287Y-86093671D01*
X169856285Y-86093671D01*
X169722378Y-86149136D01*
X169722371Y-86149141D01*
X169607383Y-86237374D01*
X169607374Y-86237383D01*
X169519141Y-86352371D01*
X169519136Y-86352378D01*
X169463671Y-86486285D01*
X169463671Y-86486287D01*
X169463670Y-86486289D01*
X169463670Y-86486291D01*
X169444750Y-86630000D01*
X167846779Y-86630000D01*
X167836237Y-86543182D01*
X167780220Y-86395477D01*
X167690483Y-86265470D01*
X167658774Y-86237379D01*
X167572239Y-86160716D01*
X167432367Y-86087305D01*
X167432366Y-86087304D01*
X167432365Y-86087304D01*
X167306522Y-86056287D01*
X167278986Y-86049500D01*
X167278985Y-86049500D01*
X167121015Y-86049500D01*
X167121013Y-86049500D01*
X167020673Y-86074231D01*
X166967635Y-86087304D01*
X166967634Y-86087304D01*
X166967632Y-86087305D01*
X166827760Y-86160716D01*
X166709519Y-86265467D01*
X166709516Y-86265470D01*
X166704422Y-86272851D01*
X166634692Y-86340504D01*
X166544381Y-86376323D01*
X166447237Y-86374854D01*
X166358050Y-86336323D01*
X166290397Y-86266593D01*
X166254578Y-86176282D01*
X166250500Y-86131401D01*
X166250500Y-84775616D01*
X188469106Y-84775616D01*
X188488147Y-84932434D01*
X188544164Y-85080139D01*
X188633901Y-85210146D01*
X188752144Y-85314899D01*
X188892019Y-85388312D01*
X189045399Y-85426116D01*
X189045404Y-85426116D01*
X189203364Y-85426116D01*
X189203369Y-85426116D01*
X189356749Y-85388312D01*
X189496624Y-85314899D01*
X189614867Y-85210146D01*
X189704604Y-85080139D01*
X189760621Y-84932434D01*
X189779662Y-84775616D01*
X189760621Y-84618798D01*
X189704604Y-84471093D01*
X189614867Y-84341086D01*
X189496624Y-84236333D01*
X189496623Y-84236332D01*
X189356751Y-84162921D01*
X189356750Y-84162920D01*
X189356749Y-84162920D01*
X189253539Y-84137481D01*
X189203370Y-84125116D01*
X189203369Y-84125116D01*
X189045399Y-84125116D01*
X189045397Y-84125116D01*
X188945057Y-84149847D01*
X188892019Y-84162920D01*
X188892018Y-84162920D01*
X188892016Y-84162921D01*
X188752144Y-84236332D01*
X188633903Y-84341083D01*
X188633901Y-84341085D01*
X188544165Y-84471091D01*
X188544163Y-84471095D01*
X188488147Y-84618796D01*
X188488147Y-84618798D01*
X188469106Y-84775616D01*
X166250500Y-84775616D01*
X166250500Y-83400000D01*
X178144722Y-83400000D01*
X178163763Y-83556818D01*
X178219780Y-83704523D01*
X178309517Y-83834530D01*
X178427760Y-83939283D01*
X178567635Y-84012696D01*
X178721015Y-84050500D01*
X178721020Y-84050500D01*
X178878980Y-84050500D01*
X178878985Y-84050500D01*
X179032365Y-84012696D01*
X179172240Y-83939283D01*
X179290483Y-83834530D01*
X179380220Y-83704523D01*
X179436237Y-83556818D01*
X179455278Y-83400000D01*
X179436237Y-83243182D01*
X179380220Y-83095477D01*
X179290483Y-82965470D01*
X179172240Y-82860717D01*
X179172239Y-82860716D01*
X179032367Y-82787305D01*
X179032366Y-82787304D01*
X179032365Y-82787304D01*
X178929155Y-82761865D01*
X178878986Y-82749500D01*
X178878985Y-82749500D01*
X178721015Y-82749500D01*
X178721013Y-82749500D01*
X178620673Y-82774231D01*
X178567635Y-82787304D01*
X178567634Y-82787304D01*
X178567632Y-82787305D01*
X178427760Y-82860716D01*
X178309519Y-82965467D01*
X178309517Y-82965469D01*
X178219781Y-83095475D01*
X178219779Y-83095479D01*
X178163763Y-83243180D01*
X178163763Y-83243182D01*
X178144722Y-83400000D01*
X166250500Y-83400000D01*
X166250500Y-82000000D01*
X195194750Y-82000000D01*
X195213670Y-82143709D01*
X195213670Y-82143711D01*
X195213671Y-82143712D01*
X195213671Y-82143714D01*
X195269136Y-82277621D01*
X195269141Y-82277628D01*
X195357374Y-82392616D01*
X195357383Y-82392625D01*
X195472371Y-82480858D01*
X195472378Y-82480863D01*
X195606286Y-82536328D01*
X195606291Y-82536330D01*
X195750000Y-82555250D01*
X195893709Y-82536330D01*
X195893714Y-82536328D01*
X195981419Y-82500000D01*
X196694750Y-82500000D01*
X196713670Y-82643709D01*
X196713670Y-82643711D01*
X196713671Y-82643712D01*
X196713671Y-82643714D01*
X196769136Y-82777621D01*
X196769141Y-82777628D01*
X196857374Y-82892616D01*
X196857383Y-82892625D01*
X196972371Y-82980858D01*
X196972378Y-82980863D01*
X197106286Y-83036328D01*
X197106291Y-83036330D01*
X197250000Y-83055250D01*
X197393709Y-83036330D01*
X197393714Y-83036328D01*
X197527621Y-82980863D01*
X197527622Y-82980862D01*
X197527625Y-82980861D01*
X197642621Y-82892621D01*
X197730861Y-82777625D01*
X197786330Y-82643709D01*
X197805250Y-82500000D01*
X197786330Y-82356291D01*
X197768763Y-82313879D01*
X197730863Y-82222378D01*
X197730858Y-82222371D01*
X197642625Y-82107383D01*
X197642616Y-82107374D01*
X197527628Y-82019141D01*
X197527621Y-82019136D01*
X197393713Y-81963671D01*
X197393710Y-81963670D01*
X197393709Y-81963670D01*
X197250000Y-81944750D01*
X197106291Y-81963670D01*
X197106289Y-81963670D01*
X197106287Y-81963671D01*
X197106285Y-81963671D01*
X196972378Y-82019136D01*
X196972371Y-82019141D01*
X196857383Y-82107374D01*
X196857374Y-82107383D01*
X196769141Y-82222371D01*
X196760979Y-82236509D01*
X196759680Y-82235759D01*
X196716002Y-82301128D01*
X196696917Y-82313879D01*
X196709065Y-82374923D01*
X196706935Y-82407443D01*
X196697269Y-82480863D01*
X196694750Y-82500000D01*
X195981419Y-82500000D01*
X196027621Y-82480863D01*
X196027622Y-82480862D01*
X196027625Y-82480861D01*
X196142621Y-82392621D01*
X196230861Y-82277625D01*
X196230864Y-82277617D01*
X196239021Y-82263491D01*
X196240320Y-82264241D01*
X196283981Y-82198888D01*
X196303080Y-82186123D01*
X196290934Y-82125053D01*
X196293063Y-82092567D01*
X196305250Y-82000000D01*
X196286330Y-81856291D01*
X196286328Y-81856285D01*
X196230863Y-81722378D01*
X196230858Y-81722371D01*
X196142625Y-81607383D01*
X196142616Y-81607374D01*
X196027628Y-81519141D01*
X196027621Y-81519136D01*
X195893713Y-81463671D01*
X195893710Y-81463670D01*
X195893709Y-81463670D01*
X195750000Y-81444750D01*
X195606291Y-81463670D01*
X195606289Y-81463670D01*
X195606287Y-81463671D01*
X195606285Y-81463671D01*
X195472378Y-81519136D01*
X195472371Y-81519141D01*
X195357383Y-81607374D01*
X195357374Y-81607383D01*
X195269141Y-81722371D01*
X195269136Y-81722378D01*
X195213671Y-81856285D01*
X195213671Y-81856287D01*
X195213670Y-81856289D01*
X195213670Y-81856291D01*
X195194750Y-82000000D01*
X166250500Y-82000000D01*
X166250500Y-80993128D01*
X180052122Y-80993128D01*
X180071042Y-81136837D01*
X180071042Y-81136839D01*
X180071043Y-81136840D01*
X180071043Y-81136842D01*
X180126508Y-81270749D01*
X180126513Y-81270756D01*
X180214746Y-81385744D01*
X180214755Y-81385753D01*
X180329743Y-81473986D01*
X180329750Y-81473991D01*
X180438743Y-81519136D01*
X180463663Y-81529458D01*
X180607372Y-81548378D01*
X180751081Y-81529458D01*
X180751086Y-81529456D01*
X180884993Y-81473991D01*
X180884994Y-81473990D01*
X180884997Y-81473989D01*
X180999993Y-81385749D01*
X181088233Y-81270753D01*
X181143702Y-81136837D01*
X181161717Y-81000000D01*
X187944722Y-81000000D01*
X187963763Y-81156818D01*
X188019780Y-81304523D01*
X188019781Y-81304524D01*
X188109517Y-81434530D01*
X188109519Y-81434532D01*
X188142411Y-81463671D01*
X188227760Y-81539283D01*
X188367635Y-81612696D01*
X188521015Y-81650500D01*
X188521020Y-81650500D01*
X188678980Y-81650500D01*
X188678985Y-81650500D01*
X188832365Y-81612696D01*
X188972240Y-81539283D01*
X189090483Y-81434530D01*
X189180220Y-81304523D01*
X189236237Y-81156818D01*
X189255278Y-81000000D01*
X189236237Y-80843182D01*
X189180220Y-80695477D01*
X189090483Y-80565470D01*
X189073585Y-80550500D01*
X188972239Y-80460716D01*
X188832367Y-80387305D01*
X188832366Y-80387304D01*
X188832365Y-80387304D01*
X188729155Y-80361865D01*
X188678986Y-80349500D01*
X188678985Y-80349500D01*
X188521015Y-80349500D01*
X188521013Y-80349500D01*
X188420673Y-80374231D01*
X188367635Y-80387304D01*
X188367634Y-80387304D01*
X188367632Y-80387305D01*
X188227760Y-80460716D01*
X188109519Y-80565467D01*
X188109517Y-80565469D01*
X188019781Y-80695475D01*
X188019779Y-80695479D01*
X187963763Y-80843180D01*
X187945556Y-80993128D01*
X187944722Y-81000000D01*
X181161717Y-81000000D01*
X181162622Y-80993128D01*
X181143702Y-80849419D01*
X181141118Y-80843180D01*
X181088235Y-80715506D01*
X181088230Y-80715499D01*
X180999997Y-80600511D01*
X180999988Y-80600502D01*
X180885000Y-80512269D01*
X180884993Y-80512264D01*
X180751085Y-80456799D01*
X180751082Y-80456798D01*
X180751081Y-80456798D01*
X180607372Y-80437878D01*
X180463663Y-80456798D01*
X180463661Y-80456798D01*
X180463659Y-80456799D01*
X180463657Y-80456799D01*
X180329750Y-80512264D01*
X180329743Y-80512269D01*
X180214755Y-80600502D01*
X180214746Y-80600511D01*
X180126513Y-80715499D01*
X180126508Y-80715506D01*
X180071043Y-80849413D01*
X180071043Y-80849415D01*
X180071042Y-80849417D01*
X180071042Y-80849419D01*
X180052122Y-80993128D01*
X166250500Y-80993128D01*
X166250500Y-79399524D01*
X185031722Y-79399524D01*
X185050763Y-79556343D01*
X185081098Y-79636328D01*
X185106780Y-79704047D01*
X185196517Y-79834054D01*
X185314760Y-79938807D01*
X185454635Y-80012220D01*
X185608015Y-80050024D01*
X185608020Y-80050024D01*
X185765980Y-80050024D01*
X185765985Y-80050024D01*
X185919365Y-80012220D01*
X186059240Y-79938807D01*
X186103045Y-79900000D01*
X202594722Y-79900000D01*
X202613763Y-80056818D01*
X202669780Y-80204523D01*
X202759517Y-80334530D01*
X202877760Y-80439283D01*
X203017635Y-80512696D01*
X203171015Y-80550500D01*
X203171020Y-80550500D01*
X203328980Y-80550500D01*
X203328985Y-80550500D01*
X203482365Y-80512696D01*
X203622240Y-80439283D01*
X203740483Y-80334530D01*
X203830220Y-80204523D01*
X203886237Y-80056818D01*
X203905278Y-79900000D01*
X203886237Y-79743182D01*
X203830220Y-79595477D01*
X203740483Y-79465470D01*
X203641325Y-79377625D01*
X203622239Y-79360716D01*
X203482367Y-79287305D01*
X203482366Y-79287304D01*
X203482365Y-79287304D01*
X203379155Y-79261865D01*
X203328986Y-79249500D01*
X203328985Y-79249500D01*
X203171015Y-79249500D01*
X203171013Y-79249500D01*
X203070673Y-79274231D01*
X203017635Y-79287304D01*
X203017634Y-79287304D01*
X203017632Y-79287305D01*
X202877760Y-79360716D01*
X202759519Y-79465467D01*
X202759517Y-79465469D01*
X202669781Y-79595475D01*
X202669779Y-79595479D01*
X202613763Y-79743180D01*
X202613763Y-79743182D01*
X202594722Y-79900000D01*
X186103045Y-79900000D01*
X186177483Y-79834054D01*
X186267220Y-79704047D01*
X186323237Y-79556342D01*
X186342278Y-79399524D01*
X186323237Y-79242706D01*
X186269116Y-79100000D01*
X187244750Y-79100000D01*
X187263670Y-79243709D01*
X187263670Y-79243711D01*
X187263671Y-79243712D01*
X187263671Y-79243714D01*
X187319136Y-79377621D01*
X187319141Y-79377628D01*
X187407374Y-79492616D01*
X187407383Y-79492625D01*
X187522371Y-79580858D01*
X187522378Y-79580863D01*
X187656286Y-79636328D01*
X187656291Y-79636330D01*
X187800000Y-79655250D01*
X187943709Y-79636330D01*
X187943714Y-79636328D01*
X188077621Y-79580863D01*
X188077622Y-79580862D01*
X188077625Y-79580861D01*
X188192621Y-79492621D01*
X188280861Y-79377625D01*
X188287865Y-79360717D01*
X188336328Y-79243714D01*
X188336328Y-79243713D01*
X188336330Y-79243709D01*
X188355250Y-79100000D01*
X188342085Y-79000000D01*
X190194750Y-79000000D01*
X190213670Y-79143709D01*
X190213670Y-79143711D01*
X190213671Y-79143712D01*
X190213671Y-79143714D01*
X190269136Y-79277621D01*
X190269141Y-79277628D01*
X190357374Y-79392616D01*
X190357383Y-79392625D01*
X190472371Y-79480858D01*
X190472378Y-79480863D01*
X190606286Y-79536328D01*
X190606291Y-79536330D01*
X190750000Y-79555250D01*
X190893709Y-79536330D01*
X190893714Y-79536328D01*
X191027621Y-79480863D01*
X191027622Y-79480862D01*
X191027625Y-79480861D01*
X191142621Y-79392621D01*
X191230861Y-79277625D01*
X191230863Y-79277621D01*
X191269954Y-79183246D01*
X191323930Y-79102464D01*
X191404711Y-79048487D01*
X191499999Y-79029533D01*
X191595287Y-79048487D01*
X191676069Y-79102463D01*
X191730046Y-79183244D01*
X191730046Y-79183246D01*
X191769136Y-79277621D01*
X191769141Y-79277628D01*
X191857374Y-79392616D01*
X191857383Y-79392625D01*
X191972371Y-79480858D01*
X191972378Y-79480863D01*
X192106286Y-79536328D01*
X192106291Y-79536330D01*
X192250000Y-79555250D01*
X192393709Y-79536330D01*
X192393714Y-79536328D01*
X192527621Y-79480863D01*
X192527622Y-79480862D01*
X192527625Y-79480861D01*
X192642621Y-79392621D01*
X192730861Y-79277625D01*
X192739572Y-79256596D01*
X192786328Y-79143714D01*
X192786328Y-79143713D01*
X192786330Y-79143709D01*
X192805250Y-79000000D01*
X192786330Y-78856291D01*
X192786328Y-78856285D01*
X192730863Y-78722378D01*
X192730858Y-78722371D01*
X192642625Y-78607383D01*
X192642616Y-78607374D01*
X192527628Y-78519141D01*
X192527621Y-78519136D01*
X192393713Y-78463671D01*
X192393710Y-78463670D01*
X192393709Y-78463670D01*
X192250000Y-78444750D01*
X192106291Y-78463670D01*
X192106289Y-78463670D01*
X192106287Y-78463671D01*
X192106285Y-78463671D01*
X191972378Y-78519136D01*
X191972371Y-78519141D01*
X191857383Y-78607374D01*
X191857374Y-78607383D01*
X191769141Y-78722371D01*
X191769138Y-78722376D01*
X191730046Y-78816754D01*
X191676070Y-78897535D01*
X191595288Y-78951512D01*
X191500000Y-78970466D01*
X191404712Y-78951512D01*
X191323931Y-78897536D01*
X191269954Y-78816754D01*
X191241899Y-78749024D01*
X191230861Y-78722375D01*
X191219350Y-78707374D01*
X191142625Y-78607383D01*
X191142616Y-78607374D01*
X191027628Y-78519141D01*
X191027621Y-78519136D01*
X190893713Y-78463671D01*
X190893710Y-78463670D01*
X190893709Y-78463670D01*
X190750000Y-78444750D01*
X190606291Y-78463670D01*
X190606289Y-78463670D01*
X190606287Y-78463671D01*
X190606285Y-78463671D01*
X190472378Y-78519136D01*
X190472371Y-78519141D01*
X190357383Y-78607374D01*
X190357374Y-78607383D01*
X190269141Y-78722371D01*
X190269136Y-78722378D01*
X190213671Y-78856285D01*
X190213671Y-78856287D01*
X190213670Y-78856289D01*
X190213670Y-78856291D01*
X190194750Y-79000000D01*
X188342085Y-79000000D01*
X188336330Y-78956291D01*
X188323965Y-78926438D01*
X188280863Y-78822378D01*
X188280858Y-78822371D01*
X188192625Y-78707383D01*
X188192616Y-78707374D01*
X188077628Y-78619141D01*
X188077621Y-78619136D01*
X187943713Y-78563671D01*
X187943710Y-78563670D01*
X187943709Y-78563670D01*
X187800000Y-78544750D01*
X187656291Y-78563670D01*
X187656289Y-78563670D01*
X187656287Y-78563671D01*
X187656285Y-78563671D01*
X187522378Y-78619136D01*
X187522371Y-78619141D01*
X187407383Y-78707374D01*
X187407374Y-78707383D01*
X187319141Y-78822371D01*
X187319136Y-78822378D01*
X187263671Y-78956285D01*
X187263671Y-78956287D01*
X187263670Y-78956289D01*
X187263670Y-78956291D01*
X187244750Y-79100000D01*
X186269116Y-79100000D01*
X186267220Y-79095001D01*
X186177483Y-78964994D01*
X186167659Y-78956291D01*
X186059239Y-78860240D01*
X185919367Y-78786829D01*
X185919366Y-78786828D01*
X185919365Y-78786828D01*
X185816155Y-78761389D01*
X185765986Y-78749024D01*
X185765985Y-78749024D01*
X185608015Y-78749024D01*
X185608013Y-78749024D01*
X185507673Y-78773755D01*
X185454635Y-78786828D01*
X185454634Y-78786828D01*
X185454632Y-78786829D01*
X185314760Y-78860240D01*
X185196519Y-78964991D01*
X185196517Y-78964993D01*
X185106781Y-79094999D01*
X185106779Y-79095003D01*
X185050763Y-79242704D01*
X185031722Y-79399524D01*
X166250500Y-79399524D01*
X166250500Y-78594663D01*
X175710393Y-78594663D01*
X175740667Y-78766353D01*
X175809720Y-78926438D01*
X175864034Y-78999393D01*
X175913832Y-79066283D01*
X175980609Y-79122316D01*
X176047387Y-79178350D01*
X176125285Y-79217471D01*
X176203185Y-79256594D01*
X176203187Y-79256594D01*
X176203191Y-79256596D01*
X176291935Y-79277628D01*
X176372829Y-79296800D01*
X176372832Y-79296800D01*
X176503428Y-79296800D01*
X176503436Y-79296800D01*
X176633164Y-79281637D01*
X176796993Y-79222008D01*
X176942654Y-79126205D01*
X177062296Y-78999393D01*
X177149467Y-78848407D01*
X177199469Y-78681388D01*
X177209607Y-78507340D01*
X177179332Y-78335646D01*
X177149133Y-78265636D01*
X177110279Y-78175561D01*
X177061621Y-78110203D01*
X177006168Y-78035717D01*
X176872612Y-77923649D01*
X176716815Y-77845406D01*
X176716808Y-77845403D01*
X176547177Y-77805201D01*
X176547173Y-77805200D01*
X176547171Y-77805200D01*
X176416564Y-77805200D01*
X176322216Y-77816227D01*
X176286833Y-77820363D01*
X176123007Y-77879992D01*
X175977344Y-77975796D01*
X175857704Y-78102605D01*
X175770534Y-78253590D01*
X175770532Y-78253594D01*
X175720532Y-78420606D01*
X175720531Y-78420609D01*
X175720531Y-78420612D01*
X175713300Y-78544750D01*
X175710393Y-78594657D01*
X175710393Y-78594663D01*
X166250500Y-78594663D01*
X166250500Y-77450000D01*
X168344417Y-77450000D01*
X168364700Y-77655934D01*
X168424768Y-77853955D01*
X168522316Y-78036452D01*
X168653583Y-78196403D01*
X168653596Y-78196416D01*
X168813547Y-78327683D01*
X168813548Y-78327683D01*
X168813550Y-78327685D01*
X168996046Y-78425232D01*
X169194066Y-78485300D01*
X169400000Y-78505583D01*
X169605934Y-78485300D01*
X169803954Y-78425232D01*
X169986450Y-78327685D01*
X170146410Y-78196410D01*
X170163520Y-78175562D01*
X170223393Y-78102605D01*
X170277685Y-78036450D01*
X170375232Y-77853954D01*
X170435300Y-77655934D01*
X170442911Y-77578663D01*
X180790393Y-77578663D01*
X180820667Y-77750353D01*
X180889720Y-77910438D01*
X180938378Y-77975796D01*
X180993831Y-78050282D01*
X181127387Y-78162350D01*
X181153693Y-78175561D01*
X181283185Y-78240594D01*
X181283187Y-78240594D01*
X181283191Y-78240596D01*
X181388846Y-78265636D01*
X181452829Y-78280800D01*
X181452832Y-78280800D01*
X181583428Y-78280800D01*
X181583436Y-78280800D01*
X181713164Y-78265637D01*
X181756126Y-78250000D01*
X199944750Y-78250000D01*
X199963670Y-78393709D01*
X199963670Y-78393711D01*
X199963671Y-78393712D01*
X199963671Y-78393714D01*
X200019136Y-78527621D01*
X200019141Y-78527628D01*
X200107374Y-78642616D01*
X200107383Y-78642625D01*
X200222371Y-78730858D01*
X200222378Y-78730863D01*
X200356286Y-78786328D01*
X200356291Y-78786330D01*
X200500000Y-78805250D01*
X200643709Y-78786330D01*
X200643714Y-78786328D01*
X200777621Y-78730863D01*
X200777622Y-78730862D01*
X200777625Y-78730861D01*
X200892621Y-78642621D01*
X200980861Y-78527625D01*
X200984378Y-78519136D01*
X201036328Y-78393714D01*
X201036328Y-78393713D01*
X201036330Y-78393709D01*
X201055250Y-78250000D01*
X201036330Y-78106291D01*
X201036328Y-78106285D01*
X200980863Y-77972378D01*
X200980858Y-77972371D01*
X200892625Y-77857383D01*
X200892616Y-77857374D01*
X200777628Y-77769141D01*
X200777621Y-77769136D01*
X200643713Y-77713671D01*
X200643710Y-77713670D01*
X200643709Y-77713670D01*
X200500000Y-77694750D01*
X200356291Y-77713670D01*
X200356289Y-77713670D01*
X200356287Y-77713671D01*
X200356285Y-77713671D01*
X200222378Y-77769136D01*
X200222371Y-77769141D01*
X200107383Y-77857374D01*
X200107374Y-77857383D01*
X200019141Y-77972371D01*
X200019136Y-77972378D01*
X199963671Y-78106285D01*
X199963671Y-78106287D01*
X199963670Y-78106289D01*
X199963670Y-78106291D01*
X199944750Y-78250000D01*
X181756126Y-78250000D01*
X181876993Y-78206008D01*
X182022654Y-78110205D01*
X182142296Y-77983393D01*
X182229467Y-77832407D01*
X182279469Y-77665388D01*
X182289607Y-77491340D01*
X182259332Y-77319646D01*
X182226730Y-77244065D01*
X182190279Y-77159561D01*
X182105769Y-77046046D01*
X182086168Y-77019717D01*
X181952612Y-76907649D01*
X181796815Y-76829406D01*
X181796808Y-76829403D01*
X181627177Y-76789201D01*
X181627173Y-76789200D01*
X181627171Y-76789200D01*
X181496564Y-76789200D01*
X181402216Y-76800227D01*
X181366833Y-76804363D01*
X181203007Y-76863992D01*
X181057344Y-76959796D01*
X180937704Y-77086605D01*
X180850534Y-77237590D01*
X180850532Y-77237594D01*
X180800532Y-77404606D01*
X180800531Y-77404609D01*
X180800531Y-77404612D01*
X180795479Y-77491340D01*
X180790393Y-77578657D01*
X180790393Y-77578663D01*
X170442911Y-77578663D01*
X170455583Y-77450000D01*
X170435300Y-77244066D01*
X170375232Y-77046046D01*
X170368944Y-77034283D01*
X170329129Y-76959795D01*
X170277685Y-76863550D01*
X170277683Y-76863547D01*
X170146416Y-76703596D01*
X170146403Y-76703583D01*
X169986452Y-76572316D01*
X169968393Y-76562663D01*
X175710393Y-76562663D01*
X175740667Y-76734353D01*
X175809720Y-76894438D01*
X175858378Y-76959796D01*
X175913832Y-77034283D01*
X175976186Y-77086605D01*
X176047387Y-77146350D01*
X176073693Y-77159561D01*
X176203185Y-77224594D01*
X176203187Y-77224594D01*
X176203191Y-77224596D01*
X176308846Y-77249636D01*
X176372829Y-77264800D01*
X176372832Y-77264800D01*
X176503428Y-77264800D01*
X176503436Y-77264800D01*
X176633164Y-77249637D01*
X176796993Y-77190008D01*
X176942654Y-77094205D01*
X177062296Y-76967393D01*
X177149467Y-76816407D01*
X177199469Y-76649388D01*
X177209607Y-76475340D01*
X177179332Y-76303646D01*
X177151569Y-76239283D01*
X177110279Y-76143561D01*
X177065848Y-76083880D01*
X177006168Y-76003717D01*
X176872612Y-75891649D01*
X176716815Y-75813406D01*
X176716808Y-75813403D01*
X176547177Y-75773201D01*
X176547173Y-75773200D01*
X176547171Y-75773200D01*
X176416564Y-75773200D01*
X176322216Y-75784227D01*
X176286833Y-75788363D01*
X176123007Y-75847992D01*
X175977344Y-75943796D01*
X175857704Y-76070605D01*
X175770534Y-76221590D01*
X175770532Y-76221594D01*
X175720532Y-76388606D01*
X175720531Y-76388609D01*
X175720531Y-76388612D01*
X175715479Y-76475340D01*
X175710393Y-76562657D01*
X175710393Y-76562663D01*
X169968393Y-76562663D01*
X169803955Y-76474768D01*
X169605934Y-76414700D01*
X169400000Y-76394417D01*
X169194065Y-76414700D01*
X168996044Y-76474768D01*
X168813547Y-76572316D01*
X168653596Y-76703583D01*
X168653583Y-76703596D01*
X168522316Y-76863547D01*
X168424768Y-77046044D01*
X168364700Y-77244065D01*
X168344417Y-77450000D01*
X166250500Y-77450000D01*
X166250500Y-75700000D01*
X178444722Y-75700000D01*
X178463763Y-75856819D01*
X178476973Y-75891651D01*
X178519780Y-76004523D01*
X178519781Y-76004524D01*
X178609517Y-76134530D01*
X178609519Y-76134532D01*
X178707792Y-76221593D01*
X178727760Y-76239283D01*
X178867635Y-76312696D01*
X179021015Y-76350500D01*
X179021020Y-76350500D01*
X179178980Y-76350500D01*
X179178985Y-76350500D01*
X179332365Y-76312696D01*
X179472240Y-76239283D01*
X179584886Y-76139487D01*
X179668776Y-76090490D01*
X179765035Y-76077324D01*
X179859005Y-76101997D01*
X179915111Y-76139486D01*
X180027760Y-76239283D01*
X180027761Y-76239283D01*
X180027763Y-76239285D01*
X180097697Y-76275989D01*
X180167635Y-76312696D01*
X180321015Y-76350500D01*
X180321020Y-76350500D01*
X180478980Y-76350500D01*
X180478985Y-76350500D01*
X180632365Y-76312696D01*
X180772240Y-76239283D01*
X180890483Y-76134530D01*
X180980220Y-76004523D01*
X181036237Y-75856818D01*
X181055278Y-75700000D01*
X181036237Y-75543182D01*
X180980220Y-75395477D01*
X180890483Y-75265470D01*
X180884884Y-75260510D01*
X180772239Y-75160716D01*
X180632367Y-75087305D01*
X180632366Y-75087304D01*
X180632365Y-75087304D01*
X180529155Y-75061865D01*
X180478986Y-75049500D01*
X180478985Y-75049500D01*
X180321015Y-75049500D01*
X180321013Y-75049500D01*
X180220673Y-75074231D01*
X180167635Y-75087304D01*
X180167634Y-75087304D01*
X180167632Y-75087305D01*
X180027763Y-75160714D01*
X179915116Y-75260510D01*
X179831222Y-75309509D01*
X179734964Y-75322675D01*
X179640994Y-75298001D01*
X179584884Y-75260510D01*
X179472240Y-75160717D01*
X179472238Y-75160716D01*
X179472236Y-75160714D01*
X179332367Y-75087305D01*
X179332366Y-75087304D01*
X179332365Y-75087304D01*
X179229155Y-75061865D01*
X179178986Y-75049500D01*
X179178985Y-75049500D01*
X179021015Y-75049500D01*
X179021013Y-75049500D01*
X178920673Y-75074231D01*
X178867635Y-75087304D01*
X178867634Y-75087304D01*
X178867632Y-75087305D01*
X178727760Y-75160716D01*
X178609519Y-75265467D01*
X178609517Y-75265469D01*
X178519781Y-75395475D01*
X178519779Y-75395479D01*
X178463763Y-75543180D01*
X178444722Y-75700000D01*
X166250500Y-75700000D01*
X166250500Y-72570000D01*
X168344417Y-72570000D01*
X168364700Y-72775934D01*
X168424768Y-72973955D01*
X168522316Y-73156452D01*
X168653583Y-73316403D01*
X168653596Y-73316416D01*
X168813547Y-73447683D01*
X168813548Y-73447683D01*
X168813550Y-73447685D01*
X168996046Y-73545232D01*
X169194066Y-73605300D01*
X169400000Y-73625583D01*
X169605934Y-73605300D01*
X169803954Y-73545232D01*
X169986450Y-73447685D01*
X170146410Y-73316410D01*
X170277685Y-73156450D01*
X170375232Y-72973954D01*
X170435300Y-72775934D01*
X170455583Y-72570000D01*
X170435300Y-72364066D01*
X170375232Y-72166046D01*
X170277685Y-71983550D01*
X170219996Y-71913255D01*
X170146416Y-71823596D01*
X170146403Y-71823583D01*
X169986452Y-71692316D01*
X169803955Y-71594768D01*
X169605934Y-71534700D01*
X169400000Y-71514417D01*
X169194065Y-71534700D01*
X168996044Y-71594768D01*
X168813547Y-71692316D01*
X168653596Y-71823583D01*
X168653583Y-71823596D01*
X168522316Y-71983547D01*
X168424768Y-72166044D01*
X168364700Y-72364065D01*
X168344417Y-72570000D01*
X166250500Y-72570000D01*
X166250500Y-69499500D01*
X166269454Y-69404212D01*
X166323430Y-69323430D01*
X166404212Y-69269454D01*
X166499500Y-69250500D01*
X176279177Y-69250500D01*
X176374465Y-69269454D01*
G37*
%TD.AperFunction*%
%TD*%
M02*
