%TF.GenerationSoftware,KiCad,Pcbnew,7.0.9*%
%TF.CreationDate,2023-11-28T13:38:34+10:00*%
%TF.ProjectId,cansult,63616e73-756c-4742-9e6b-696361645f70,rev?*%
%TF.SameCoordinates,Original*%
%TF.FileFunction,Copper,L4,Bot*%
%TF.FilePolarity,Positive*%
%FSLAX46Y46*%
G04 Gerber Fmt 4.6, Leading zero omitted, Abs format (unit mm)*
G04 Created by KiCad (PCBNEW 7.0.9) date 2023-11-28 13:38:34*
%MOMM*%
%LPD*%
G01*
G04 APERTURE LIST*
G04 Aperture macros list*
%AMRoundRect*
0 Rectangle with rounded corners*
0 $1 Rounding radius*
0 $2 $3 $4 $5 $6 $7 $8 $9 X,Y pos of 4 corners*
0 Add a 4 corners polygon primitive as box body*
4,1,4,$2,$3,$4,$5,$6,$7,$8,$9,$2,$3,0*
0 Add four circle primitives for the rounded corners*
1,1,$1+$1,$2,$3*
1,1,$1+$1,$4,$5*
1,1,$1+$1,$6,$7*
1,1,$1+$1,$8,$9*
0 Add four rect primitives between the rounded corners*
20,1,$1+$1,$2,$3,$4,$5,0*
20,1,$1+$1,$4,$5,$6,$7,0*
20,1,$1+$1,$6,$7,$8,$9,0*
20,1,$1+$1,$8,$9,$2,$3,0*%
%AMFreePoly0*
4,1,6,1.000000,0.000000,0.500000,-0.750000,-0.500000,-0.750000,-0.500000,0.750000,0.500000,0.750000,1.000000,0.000000,1.000000,0.000000,$1*%
%AMFreePoly1*
4,1,7,0.700000,0.000000,1.200000,-0.750000,-1.200000,-0.750000,-0.700000,0.000000,-1.200000,0.750000,1.200000,0.750000,0.700000,0.000000,0.700000,0.000000,$1*%
%AMFreePoly2*
4,1,6,0.500000,-0.750000,-0.650000,-0.750000,-0.150000,0.000000,-0.650000,0.750000,0.500000,0.750000,0.500000,-0.750000,0.500000,-0.750000,$1*%
G04 Aperture macros list end*
%TA.AperFunction,SMDPad,CuDef*%
%ADD10R,1.400000X3.200000*%
%TD*%
%TA.AperFunction,SMDPad,CuDef*%
%ADD11R,3.200000X1.400000*%
%TD*%
%TA.AperFunction,ComponentPad*%
%ADD12C,1.500000*%
%TD*%
%TA.AperFunction,ComponentPad*%
%ADD13RoundRect,0.250000X-0.750000X0.600000X-0.750000X-0.600000X0.750000X-0.600000X0.750000X0.600000X0*%
%TD*%
%TA.AperFunction,ComponentPad*%
%ADD14O,2.000000X1.700000*%
%TD*%
%TA.AperFunction,ComponentPad*%
%ADD15RoundRect,0.250000X-0.350000X-0.625000X0.350000X-0.625000X0.350000X0.625000X-0.350000X0.625000X0*%
%TD*%
%TA.AperFunction,ComponentPad*%
%ADD16O,1.200000X1.750000*%
%TD*%
%TA.AperFunction,SMDPad,CuDef*%
%ADD17RoundRect,0.150000X-0.587500X-0.150000X0.587500X-0.150000X0.587500X0.150000X-0.587500X0.150000X0*%
%TD*%
%TA.AperFunction,SMDPad,CuDef*%
%ADD18RoundRect,0.225000X0.225000X0.250000X-0.225000X0.250000X-0.225000X-0.250000X0.225000X-0.250000X0*%
%TD*%
%TA.AperFunction,SMDPad,CuDef*%
%ADD19RoundRect,0.225000X-0.225000X-0.250000X0.225000X-0.250000X0.225000X0.250000X-0.225000X0.250000X0*%
%TD*%
%TA.AperFunction,SMDPad,CuDef*%
%ADD20FreePoly0,0.000000*%
%TD*%
%TA.AperFunction,SMDPad,CuDef*%
%ADD21FreePoly1,0.000000*%
%TD*%
%TA.AperFunction,SMDPad,CuDef*%
%ADD22FreePoly0,180.000000*%
%TD*%
%TA.AperFunction,SMDPad,CuDef*%
%ADD23FreePoly0,90.000000*%
%TD*%
%TA.AperFunction,SMDPad,CuDef*%
%ADD24FreePoly2,90.000000*%
%TD*%
%TA.AperFunction,SMDPad,CuDef*%
%ADD25RoundRect,0.150000X0.150000X-0.825000X0.150000X0.825000X-0.150000X0.825000X-0.150000X-0.825000X0*%
%TD*%
%TA.AperFunction,SMDPad,CuDef*%
%ADD26FreePoly2,0.000000*%
%TD*%
%TA.AperFunction,ViaPad*%
%ADD27C,0.500000*%
%TD*%
%TA.AperFunction,ViaPad*%
%ADD28C,0.700000*%
%TD*%
%TA.AperFunction,Conductor*%
%ADD29C,0.500000*%
%TD*%
%TA.AperFunction,Conductor*%
%ADD30C,0.254000*%
%TD*%
G04 APERTURE END LIST*
D10*
%TO.P,TP7,1,1*%
%TO.N,CNSLT_CLK*%
X185500000Y-75200000D03*
%TD*%
D11*
%TO.P,TP6,1,1*%
%TO.N,CLK_O*%
X171250000Y-82250000D03*
%TD*%
%TO.P,TP5,1,1*%
%TO.N,MCU_RX*%
X190200000Y-83400000D03*
%TD*%
D10*
%TO.P,TP4,1,1*%
%TO.N,CNSLT_RX*%
X193500000Y-75250000D03*
%TD*%
%TO.P,TP3,1,1*%
%TO.N,/consult/OA-*%
X199250000Y-82500000D03*
%TD*%
%TO.P,TP2,1,1*%
%TO.N,CNSLT_TX*%
X191250000Y-75250000D03*
%TD*%
D11*
%TO.P,TP1,1,1*%
%TO.N,MCU_TX*%
X184100000Y-81900000D03*
%TD*%
D12*
%TO.P,Y1,1,1*%
%TO.N,OSC_IN*%
X169400000Y-77450000D03*
%TO.P,Y1,2,2*%
%TO.N,OSC_OUT*%
X169400000Y-72570000D03*
%TD*%
D13*
%TO.P,J3,1,Pin_1*%
%TO.N,/mcu/CANH*%
X169650000Y-93050000D03*
D14*
%TO.P,J3,2,Pin_2*%
%TO.N,/mcu/CANL*%
X169650000Y-95550000D03*
%TD*%
D15*
%TO.P,J1,1,Pin_1*%
%TO.N,unconnected-(J1-Pin_1-Pad1)*%
X183400000Y-71450000D03*
D16*
%TO.P,J1,2,Pin_2*%
%TO.N,CNSLT_CLK*%
X185400000Y-71450000D03*
%TO.P,J1,3,Pin_3*%
%TO.N,GND*%
X187400000Y-71450000D03*
%TO.P,J1,4,Pin_4*%
%TO.N,+12V*%
X189400000Y-71450000D03*
%TO.P,J1,5,Pin_5*%
%TO.N,CNSLT_TX*%
X191400000Y-71450000D03*
%TO.P,J1,6,Pin_6*%
%TO.N,CNSLT_RX*%
X193400000Y-71450000D03*
%TD*%
D17*
%TO.P,D1,1,K*%
%TO.N,/mcu/CANL*%
X172362500Y-95250000D03*
%TO.P,D1,2,K*%
%TO.N,/mcu/CANH*%
X172362500Y-93350000D03*
%TO.P,D1,3,A*%
%TO.N,GND*%
X174237500Y-94300000D03*
%TD*%
D18*
%TO.P,C16,1*%
%TO.N,GND*%
X173875000Y-97000000D03*
%TO.P,C16,2*%
%TO.N,/mcu/CANL*%
X172325000Y-97000000D03*
%TD*%
%TO.P,C8,1*%
%TO.N,+5V*%
X182925000Y-101650000D03*
%TO.P,C8,2*%
%TO.N,GND*%
X181375000Y-101650000D03*
%TD*%
%TO.P,C6,1*%
%TO.N,+3V3*%
X179575000Y-95800000D03*
%TO.P,C6,2*%
%TO.N,GND*%
X178025000Y-95800000D03*
%TD*%
D19*
%TO.P,C18,1*%
%TO.N,/mcu/CANH*%
X172325000Y-91600000D03*
%TO.P,C18,2*%
%TO.N,GND*%
X173875000Y-91600000D03*
%TD*%
D20*
%TO.P,JP1,1,A*%
%TO.N,/consult/CLK_Q5*%
X169250000Y-85200000D03*
D21*
%TO.P,JP1,2,C*%
%TO.N,CLK_O*%
X171250000Y-85200000D03*
D22*
%TO.P,JP1,3,B*%
%TO.N,/consult/CLK_Q4*%
X173250000Y-85200000D03*
%TD*%
D23*
%TO.P,JP3,1,A*%
%TO.N,/mcu/NRST BJ*%
X177600000Y-91925000D03*
D24*
%TO.P,JP3,2,B*%
%TO.N,NRST*%
X177600000Y-90475000D03*
%TD*%
D25*
%TO.P,U3,1,TXD*%
%TO.N,CAN_TX*%
X185505000Y-99275000D03*
%TO.P,U3,2,VSS*%
%TO.N,GND*%
X184235000Y-99275000D03*
%TO.P,U3,3,VDD*%
%TO.N,+5V*%
X182965000Y-99275000D03*
%TO.P,U3,4,RXD*%
%TO.N,CAN_RX*%
X181695000Y-99275000D03*
%TO.P,U3,5,Vio*%
%TO.N,+3V3*%
X181695000Y-94325000D03*
%TO.P,U3,6,CANL*%
%TO.N,/mcu/CANL*%
X182965000Y-94325000D03*
%TO.P,U3,7,CANH*%
%TO.N,/mcu/CANH*%
X184235000Y-94325000D03*
%TO.P,U3,8,STBY*%
%TO.N,GND*%
X185505000Y-94325000D03*
%TD*%
D20*
%TO.P,JP2,1,A*%
%TO.N,+3V3*%
X177975000Y-81500000D03*
D26*
%TO.P,JP2,2,B*%
%TO.N,/mcu/BOOT0*%
X179425000Y-81500000D03*
%TD*%
D27*
%TO.N,GND*%
X196977000Y-72009000D03*
X195199000Y-72009000D03*
X196977000Y-73152000D03*
X195199000Y-73152000D03*
D28*
%TO.N,+12VF*%
X183261000Y-75819000D03*
X199644000Y-72898000D03*
D27*
%TO.N,CNSLT_TX*%
X195750000Y-82000000D03*
%TO.N,GND*%
X183400000Y-73200000D03*
X170250000Y-89750000D03*
X167600000Y-74300000D03*
D28*
X198400000Y-94900000D03*
X195000000Y-86000000D03*
D27*
X187826500Y-83502796D03*
X199400000Y-97700000D03*
X180000000Y-102200000D03*
X167600000Y-77300000D03*
X198900000Y-88500000D03*
D28*
X195000000Y-94900000D03*
X207500000Y-69750000D03*
D27*
X180000000Y-71400000D03*
X170500000Y-91200000D03*
X207750000Y-81000000D03*
D28*
X207100000Y-89800000D03*
X208700000Y-100300000D03*
D27*
X182400000Y-83900000D03*
D28*
X208700000Y-94400000D03*
D27*
X206250000Y-81000000D03*
X175500000Y-97300000D03*
X191700000Y-101400000D03*
X197250000Y-77750000D03*
X196700000Y-92200000D03*
X206250000Y-79250000D03*
X174000000Y-69900000D03*
D28*
X186500000Y-72700000D03*
D27*
X188819785Y-81768699D03*
D28*
X193200000Y-94900000D03*
D27*
X197600000Y-97696228D03*
X175900000Y-90260000D03*
X201800000Y-69800000D03*
D28*
X198400000Y-86000000D03*
D27*
X167600000Y-72800000D03*
X201800000Y-75600000D03*
D28*
X202800000Y-86000000D03*
X192200000Y-89900000D03*
D27*
X169400000Y-70000000D03*
D28*
X187800000Y-73300000D03*
D27*
X199400000Y-100800000D03*
X180000000Y-99200000D03*
X172800000Y-75200000D03*
D28*
X200000000Y-94900000D03*
D27*
X207750000Y-79250000D03*
X186849812Y-90402843D03*
X177000000Y-97300000D03*
X180000000Y-100700000D03*
D28*
X208700000Y-92700000D03*
D27*
X174300000Y-80900000D03*
X180000000Y-69900000D03*
D28*
X192200000Y-93600000D03*
D27*
X198900000Y-92200000D03*
X171450000Y-80700000D03*
X172800000Y-78600000D03*
X167600000Y-71200000D03*
D28*
X208750000Y-69750000D03*
D27*
X203000000Y-82250000D03*
D28*
X192200000Y-88200000D03*
D27*
X172800000Y-71800000D03*
X204750000Y-81000000D03*
D28*
X196700000Y-94900000D03*
D27*
X197600000Y-100800000D03*
X204750000Y-79250000D03*
X185400000Y-87000000D03*
X194500000Y-92200000D03*
D28*
X208700000Y-97400000D03*
D27*
X184556358Y-92441960D03*
X185400000Y-83900000D03*
X197000000Y-75600000D03*
X192500000Y-83123500D03*
X180600000Y-81800000D03*
D28*
X192200000Y-86500000D03*
D27*
X194500000Y-88500000D03*
D28*
X196700000Y-86000000D03*
D27*
X203000000Y-84250000D03*
X204200000Y-69800000D03*
X174500000Y-86500000D03*
X200900000Y-82750000D03*
X180000000Y-72900000D03*
X184567947Y-79351108D03*
X188200000Y-82200000D03*
D28*
X207100000Y-85600000D03*
D27*
X174500000Y-88300000D03*
X167600000Y-78800000D03*
D28*
X175650000Y-94270000D03*
X177500000Y-75100000D03*
X200300000Y-86000000D03*
D27*
X189900000Y-92450000D03*
X180050000Y-91500000D03*
X196700000Y-88500000D03*
D28*
X184250000Y-97650000D03*
D27*
X170500000Y-97500000D03*
X167250000Y-89250000D03*
D28*
X205700000Y-71000000D03*
D27*
X182400000Y-87000000D03*
X167600000Y-75800000D03*
X180000000Y-74400000D03*
X167200000Y-80500000D03*
X183286768Y-79690595D03*
D28*
X192200000Y-91700000D03*
X206250000Y-69750000D03*
X208700000Y-101800000D03*
D27*
X199400000Y-75600000D03*
X179908819Y-85520497D03*
D28*
X187000000Y-73300000D03*
D27*
X189000000Y-79000000D03*
D28*
X193500000Y-86000000D03*
X188300000Y-72700000D03*
D27*
X174000000Y-71400000D03*
X178500000Y-97300000D03*
X174000000Y-72900000D03*
D28*
%TO.N,+3V3*%
X186902540Y-89605081D03*
X188700000Y-100000000D03*
X189124384Y-84775616D03*
X180400000Y-75700000D03*
X186850013Y-91202343D03*
X167200000Y-86700000D03*
X188700000Y-98100000D03*
X188600000Y-81000000D03*
X191200000Y-98100000D03*
X191200000Y-100000000D03*
X178800000Y-83400000D03*
X203250000Y-79900000D03*
X180000000Y-97300000D03*
X189900000Y-100000000D03*
X185687000Y-79399524D03*
X189900000Y-98100000D03*
%TO.N,+5V*%
X205100000Y-96900000D03*
X205100000Y-98400000D03*
X203300000Y-89400000D03*
X183250000Y-96400000D03*
X203300000Y-90600000D03*
X203700000Y-98400000D03*
X203700000Y-96900000D03*
X202000000Y-89400000D03*
X202000000Y-90600000D03*
D27*
%TO.N,+12VF*%
X192250000Y-79000000D03*
D28*
%TO.N,NRST*%
X179100000Y-75700000D03*
D27*
X179000000Y-86200000D03*
%TO.N,/consult/CLK_Q5*%
X170000000Y-86630000D03*
%TO.N,CLK_O*%
X187800000Y-79100000D03*
%TO.N,/consult/CLK_Q4*%
X173250000Y-86700000D03*
%TO.N,/mcu/BOOT0*%
X180607372Y-80993128D03*
%TO.N,MCU_TX*%
X190750000Y-79000000D03*
X179900000Y-89200000D03*
X187700000Y-94000000D03*
X188192964Y-86708259D03*
%TO.N,MCU_RX*%
X187937500Y-86002796D03*
X181200000Y-88100000D03*
X187118555Y-92294094D03*
X200500000Y-78250000D03*
%TO.N,CAN_TX*%
X189400000Y-95600000D03*
%TO.N,CAN_RX*%
X189400000Y-94800000D03*
%TO.N,/mcu/NRST BJ*%
X179250000Y-91750000D03*
%TO.N,/consult/OA-*%
X197250000Y-82500000D03*
%TO.N,BT_EN*%
X186934148Y-92968852D03*
X188200000Y-87500000D03*
%TD*%
D29*
%TO.N,+12VF*%
X181610000Y-74168000D02*
X181610000Y-70612000D01*
X181610000Y-70612000D02*
X182626000Y-69596000D01*
X183261000Y-75819000D02*
X181610000Y-74168000D01*
X197866000Y-69596000D02*
X199644000Y-71374000D01*
X182626000Y-69596000D02*
X197866000Y-69596000D01*
X199644000Y-71374000D02*
X199644000Y-72898000D01*
X197358000Y-74422000D02*
X196088000Y-74422000D01*
X199644000Y-72898000D02*
X198882000Y-72898000D01*
X195580000Y-77470000D02*
X194310000Y-78740000D01*
X198882000Y-72898000D02*
X197358000Y-74422000D01*
X196088000Y-74422000D02*
X195580000Y-74930000D01*
X195580000Y-74930000D02*
X195580000Y-77470000D01*
X194310000Y-78740000D02*
X192510000Y-78740000D01*
X192510000Y-78740000D02*
X192250000Y-79000000D01*
D30*
%TO.N,CNSLT_TX*%
X195750000Y-82000000D02*
X193506000Y-82000000D01*
X191516000Y-80010000D02*
X191516000Y-75516000D01*
X193506000Y-82000000D02*
X191516000Y-80010000D01*
X191516000Y-75516000D02*
X191250000Y-75250000D01*
D29*
X191400000Y-75100000D02*
X191250000Y-75250000D01*
X191400000Y-71450000D02*
X191400000Y-75100000D01*
%TO.N,GND*%
X184556358Y-92441960D02*
X185505000Y-93390602D01*
X180000000Y-102200000D02*
X180550000Y-101650000D01*
X180550000Y-101650000D02*
X181375000Y-101650000D01*
X184250000Y-99260000D02*
X184235000Y-99275000D01*
X175650000Y-94270000D02*
X175620000Y-94300000D01*
X185505000Y-93390602D02*
X185505000Y-94325000D01*
X175620000Y-94300000D02*
X174237500Y-94300000D01*
X184250000Y-97650000D02*
X184250000Y-99260000D01*
D30*
%TO.N,+3V3*%
X177975000Y-83025000D02*
X178350000Y-83400000D01*
X177975000Y-81500000D02*
X177975000Y-83025000D01*
D29*
X181695000Y-95105000D02*
X181695000Y-94325000D01*
X181350000Y-95450000D02*
X181695000Y-95105000D01*
D30*
X178350000Y-83400000D02*
X178800000Y-83400000D01*
D29*
X179575000Y-95800000D02*
X179925000Y-95450000D01*
X180000000Y-97300000D02*
X179600000Y-96900000D01*
X179600000Y-96900000D02*
X179600000Y-95825000D01*
X179600000Y-95825000D02*
X179575000Y-95800000D01*
X179925000Y-95450000D02*
X181350000Y-95450000D01*
%TO.N,+5V*%
X203700000Y-98400000D02*
X203700000Y-101000000D01*
X182925000Y-101650000D02*
X182925000Y-99315000D01*
X203700000Y-101000000D02*
X202400000Y-102300000D01*
X202400000Y-102300000D02*
X183575000Y-102300000D01*
X182965000Y-96685000D02*
X183250000Y-96400000D01*
X183575000Y-102300000D02*
X182925000Y-101650000D01*
X182925000Y-99315000D02*
X182965000Y-99275000D01*
X182965000Y-99275000D02*
X182965000Y-96685000D01*
%TO.N,/mcu/CANL*%
X172325000Y-95287500D02*
X172362500Y-95250000D01*
D30*
X176450000Y-95250000D02*
X172362500Y-95250000D01*
D29*
X172312500Y-95300000D02*
X172362500Y-95250000D01*
D30*
X182965000Y-93365000D02*
X182450000Y-92850000D01*
X182965000Y-94325000D02*
X182965000Y-93365000D01*
X181000000Y-92850000D02*
X179146500Y-94703500D01*
X182450000Y-92850000D02*
X181000000Y-92850000D01*
D29*
X172325000Y-97000000D02*
X172325000Y-95287500D01*
D30*
X176996500Y-94703500D02*
X176450000Y-95250000D01*
X179146500Y-94703500D02*
X176996500Y-94703500D01*
D29*
X169650000Y-95550000D02*
X169900000Y-95300000D01*
X169900000Y-95300000D02*
X172312500Y-95300000D01*
D30*
%TO.N,/mcu/CANH*%
X184235000Y-93185000D02*
X183446000Y-92396000D01*
D29*
X172325000Y-91600000D02*
X172325000Y-93312500D01*
X172325000Y-93312500D02*
X172362500Y-93350000D01*
D30*
X184235000Y-94325000D02*
X184235000Y-93185000D01*
X179857947Y-93350000D02*
X172362500Y-93350000D01*
X180811947Y-92396000D02*
X179857947Y-93350000D01*
D29*
X169900000Y-93300000D02*
X172312500Y-93300000D01*
D30*
X183446000Y-92396000D02*
X180811947Y-92396000D01*
D29*
X172312500Y-93300000D02*
X172362500Y-93350000D01*
X169650000Y-93050000D02*
X169900000Y-93300000D01*
%TO.N,CNSLT_CLK*%
X185400000Y-71450000D02*
X185400000Y-74900000D01*
X185400000Y-74900000D02*
X185500000Y-75000000D01*
%TO.N,CNSLT_RX*%
X193400000Y-75150000D02*
X193500000Y-75250000D01*
X193400000Y-71450000D02*
X193400000Y-75150000D01*
D30*
%TO.N,NRST*%
X178000000Y-87200000D02*
X179000000Y-86200000D01*
X168250000Y-86500000D02*
X171000000Y-89250000D01*
X177300000Y-77500000D02*
X172500000Y-77500000D01*
X172500000Y-77500000D02*
X168250000Y-81750000D01*
X176375000Y-89250000D02*
X177600000Y-90475000D01*
X168250000Y-81750000D02*
X168250000Y-86500000D01*
X177600000Y-90475000D02*
X178000000Y-90075000D01*
X179100000Y-75700000D02*
X177300000Y-77500000D01*
X171000000Y-89250000D02*
X176375000Y-89250000D01*
X178000000Y-90075000D02*
X178000000Y-87200000D01*
%TO.N,/consult/CLK_Q5*%
X169250000Y-85880000D02*
X169250000Y-84750000D01*
X170000000Y-86630000D02*
X169250000Y-85880000D01*
%TO.N,CLK_O*%
X183460998Y-78723000D02*
X182983998Y-79200000D01*
X186257423Y-78900000D02*
X186080423Y-78723000D01*
X171250000Y-84750000D02*
X171250000Y-82250000D01*
X187800000Y-79100000D02*
X187600000Y-78900000D01*
X186080423Y-78723000D02*
X183460998Y-78723000D01*
X187600000Y-78900000D02*
X186257423Y-78900000D01*
X173500000Y-80000000D02*
X171250000Y-82250000D01*
X180050000Y-79200000D02*
X179250000Y-80000000D01*
X182983998Y-79200000D02*
X180050000Y-79200000D01*
X179250000Y-80000000D02*
X173500000Y-80000000D01*
%TO.N,/consult/CLK_Q4*%
X173250000Y-84750000D02*
X173250000Y-86700000D01*
%TO.N,/mcu/BOOT0*%
X180006872Y-80993128D02*
X179500000Y-81500000D01*
X180607372Y-80993128D02*
X180006872Y-80993128D01*
X179500000Y-81500000D02*
X179425000Y-81500000D01*
%TO.N,MCU_TX*%
X181800000Y-81900000D02*
X184100000Y-81900000D01*
X186850000Y-93700000D02*
X187400000Y-93700000D01*
X184100000Y-81900000D02*
X186600000Y-81900000D01*
X181000000Y-85650000D02*
X181000000Y-82700000D01*
X179900000Y-89200000D02*
X181008000Y-90308000D01*
X179900000Y-86750000D02*
X181000000Y-85650000D01*
X187826961Y-86708259D02*
X187200000Y-86081298D01*
X183458000Y-90308000D02*
X186850000Y-93700000D01*
X186600000Y-81900000D02*
X188500000Y-80000000D01*
X187400000Y-93700000D02*
X187700000Y-94000000D01*
X188500000Y-80000000D02*
X189750000Y-80000000D01*
X187200000Y-82500000D02*
X186600000Y-81900000D01*
X179900000Y-89200000D02*
X179900000Y-86750000D01*
X181008000Y-90308000D02*
X183458000Y-90308000D01*
X187200000Y-86081298D02*
X187200000Y-82500000D01*
X188192964Y-86708259D02*
X187826961Y-86708259D01*
X189750000Y-80000000D02*
X190750000Y-79000000D01*
X181000000Y-82700000D02*
X181800000Y-81900000D01*
%TO.N,MCU_RX*%
X181200000Y-88100000D02*
X181200000Y-87350000D01*
X181200000Y-88100000D02*
X182100000Y-89000000D01*
X187937500Y-84862500D02*
X189400000Y-83400000D01*
X183690248Y-89000000D02*
X186984342Y-92294094D01*
X188950000Y-86649293D02*
X188303503Y-86002796D01*
X190200000Y-83400000D02*
X190500000Y-83700000D01*
X187937500Y-86002796D02*
X187937500Y-84862500D01*
X186984342Y-92294094D02*
X187118555Y-92294094D01*
X185350000Y-86000000D02*
X187550000Y-88200000D01*
X188475000Y-88200000D02*
X188950000Y-87725000D01*
X188303503Y-86002796D02*
X187937500Y-86002796D01*
X195050000Y-83700000D02*
X200500000Y-78250000D01*
X182550000Y-86000000D02*
X185350000Y-86000000D01*
X182100000Y-89000000D02*
X183690248Y-89000000D01*
X188950000Y-87725000D02*
X188950000Y-86649293D01*
X190500000Y-83700000D02*
X195050000Y-83700000D01*
X187550000Y-88200000D02*
X188475000Y-88200000D01*
X181200000Y-87350000D02*
X182550000Y-86000000D01*
X189400000Y-83400000D02*
X190200000Y-83400000D01*
%TO.N,CAN_TX*%
X189395003Y-95604997D02*
X188017503Y-95604997D01*
X189400000Y-95600000D02*
X189395003Y-95604997D01*
X185505000Y-98117500D02*
X185505000Y-99275000D01*
X188017503Y-95604997D02*
X185505000Y-98117500D01*
%TO.N,CAN_RX*%
X187077000Y-95723000D02*
X182877000Y-95723000D01*
X188000000Y-94800000D02*
X187077000Y-95723000D01*
X182877000Y-95723000D02*
X181695000Y-96905000D01*
X189400000Y-94800000D02*
X188000000Y-94800000D01*
X181695000Y-96905000D02*
X181695000Y-99275000D01*
%TO.N,/mcu/NRST BJ*%
X177775000Y-91750000D02*
X179250000Y-91750000D01*
X177600000Y-91925000D02*
X177775000Y-91750000D01*
%TO.N,/consult/OA-*%
X199250000Y-82500000D02*
X197250000Y-82500000D01*
%TO.N,BT_EN*%
X180550000Y-88700000D02*
X180550000Y-87100000D01*
X187562259Y-87162259D02*
X187830962Y-87162259D01*
X183600000Y-89650000D02*
X181500000Y-89650000D01*
X187830962Y-87162259D02*
X188168703Y-87500000D01*
X186918852Y-92968852D02*
X183600000Y-89650000D01*
X185800000Y-85400000D02*
X187562259Y-87162259D01*
X188168703Y-87500000D02*
X188200000Y-87500000D01*
X180550000Y-87100000D02*
X182250000Y-85400000D01*
X181500000Y-89650000D02*
X180550000Y-88700000D01*
X182250000Y-85400000D02*
X185800000Y-85400000D01*
X186934148Y-92968852D02*
X186918852Y-92968852D01*
%TD*%
%TA.AperFunction,Conductor*%
%TO.N,GND*%
G36*
X168018662Y-86929666D02*
G01*
X168107850Y-86968196D01*
X168142473Y-86997050D01*
X170675788Y-89530364D01*
X170685098Y-89540783D01*
X170705942Y-89566920D01*
X170752584Y-89598720D01*
X170797986Y-89632228D01*
X170797990Y-89632229D01*
X170805146Y-89636011D01*
X170805164Y-89636020D01*
X170805198Y-89636038D01*
X170812417Y-89639514D01*
X170812419Y-89639515D01*
X170866357Y-89656152D01*
X170919625Y-89674792D01*
X170919629Y-89674792D01*
X170927545Y-89676289D01*
X170927555Y-89676291D01*
X170927558Y-89676291D01*
X170935559Y-89677498D01*
X170935565Y-89677500D01*
X170935571Y-89677500D01*
X170992007Y-89677500D01*
X171020206Y-89678555D01*
X171048404Y-89679610D01*
X171048404Y-89679609D01*
X171048405Y-89679610D01*
X171048405Y-89679609D01*
X171060174Y-89678284D01*
X171074127Y-89677500D01*
X176094784Y-89677500D01*
X176190072Y-89696454D01*
X176270853Y-89750430D01*
X176471364Y-89950940D01*
X176525341Y-90031721D01*
X176544295Y-90127009D01*
X176544295Y-91125000D01*
X176556628Y-91203721D01*
X176562228Y-91239466D01*
X176558450Y-91240057D01*
X176566101Y-91299002D01*
X176562424Y-91328013D01*
X176544295Y-91424995D01*
X176544295Y-92424998D01*
X176545598Y-92453204D01*
X176576345Y-92561268D01*
X176576966Y-92562514D01*
X176602472Y-92656262D01*
X176590160Y-92752634D01*
X176541905Y-92836958D01*
X176465055Y-92896397D01*
X176371307Y-92921903D01*
X176354069Y-92922500D01*
X174620224Y-92922500D01*
X174524936Y-92903546D01*
X174444154Y-92849570D01*
X174390178Y-92768788D01*
X174371224Y-92673500D01*
X174390178Y-92578212D01*
X174444154Y-92497430D01*
X174489505Y-92461572D01*
X174552729Y-92422574D01*
X174672574Y-92302729D01*
X174761546Y-92158483D01*
X174814855Y-91997603D01*
X174824999Y-91898317D01*
X174825000Y-91898307D01*
X174825000Y-91850001D01*
X174824999Y-91850000D01*
X173874000Y-91850000D01*
X173778712Y-91831046D01*
X173697930Y-91777070D01*
X173643954Y-91696288D01*
X173625000Y-91601000D01*
X173625000Y-91349999D01*
X174125000Y-91349999D01*
X174125001Y-91350000D01*
X174824998Y-91350000D01*
X174824999Y-91349999D01*
X174824999Y-91301696D01*
X174824998Y-91301679D01*
X174814855Y-91202390D01*
X174814854Y-91202387D01*
X174761548Y-91041519D01*
X174672574Y-90897270D01*
X174552729Y-90777425D01*
X174408483Y-90688453D01*
X174247603Y-90635144D01*
X174148317Y-90625000D01*
X174125001Y-90625000D01*
X174125000Y-90625001D01*
X174125000Y-91349999D01*
X173625000Y-91349999D01*
X173625000Y-90625000D01*
X173624999Y-90624999D01*
X173601688Y-90625000D01*
X173502389Y-90635144D01*
X173502387Y-90635145D01*
X173341519Y-90688451D01*
X173197270Y-90777425D01*
X173120851Y-90853844D01*
X173040069Y-90907820D01*
X172944781Y-90926773D01*
X172849492Y-90907818D01*
X172822739Y-90894814D01*
X172809977Y-90887637D01*
X172809975Y-90887636D01*
X172809972Y-90887634D01*
X172809967Y-90887632D01*
X172675595Y-90834642D01*
X172675591Y-90834641D01*
X172654478Y-90832105D01*
X172591144Y-90824500D01*
X172058856Y-90824500D01*
X172008188Y-90830584D01*
X171974408Y-90834641D01*
X171974404Y-90834642D01*
X171840027Y-90887634D01*
X171724927Y-90974917D01*
X171724917Y-90974927D01*
X171637634Y-91090027D01*
X171584642Y-91224404D01*
X171584641Y-91224408D01*
X171584641Y-91224410D01*
X171574500Y-91308856D01*
X171574500Y-91891144D01*
X171582105Y-91954478D01*
X171584641Y-91975591D01*
X171584642Y-91975595D01*
X171637634Y-92109972D01*
X171637635Y-92109974D01*
X171637636Y-92109975D01*
X171665051Y-92146127D01*
X171723904Y-92223736D01*
X171766378Y-92311115D01*
X171774500Y-92374191D01*
X171774500Y-92500500D01*
X171755546Y-92595788D01*
X171701570Y-92676570D01*
X171620788Y-92730546D01*
X171525500Y-92749500D01*
X171199500Y-92749500D01*
X171104212Y-92730546D01*
X171023430Y-92676570D01*
X170969454Y-92595788D01*
X170950500Y-92500500D01*
X170950500Y-92406900D01*
X170946572Y-92374191D01*
X170939877Y-92318436D01*
X170909165Y-92240556D01*
X170884362Y-92177659D01*
X170845526Y-92126447D01*
X170792922Y-92057078D01*
X170739366Y-92016465D01*
X170672340Y-91965637D01*
X170531568Y-91910124D01*
X170531564Y-91910123D01*
X170443102Y-91899500D01*
X168856898Y-91899500D01*
X168790551Y-91907467D01*
X168768435Y-91910123D01*
X168768431Y-91910124D01*
X168627659Y-91965637D01*
X168507080Y-92057076D01*
X168507076Y-92057080D01*
X168415637Y-92177659D01*
X168360124Y-92318431D01*
X168360123Y-92318435D01*
X168360123Y-92318436D01*
X168349500Y-92406898D01*
X168349500Y-93693102D01*
X168353016Y-93722378D01*
X168360123Y-93781564D01*
X168360124Y-93781568D01*
X168415637Y-93922340D01*
X168415639Y-93922342D01*
X168507078Y-94042922D01*
X168570476Y-94090998D01*
X168627659Y-94134362D01*
X168765126Y-94188572D01*
X168846817Y-94241161D01*
X168902165Y-94321009D01*
X168922743Y-94415960D01*
X168905418Y-94511558D01*
X168852829Y-94593249D01*
X168823837Y-94618916D01*
X168721593Y-94696128D01*
X168577942Y-94853705D01*
X168465704Y-95034977D01*
X168465702Y-95034980D01*
X168411489Y-95174922D01*
X168404633Y-95192621D01*
X168388678Y-95233805D01*
X168349500Y-95443386D01*
X168349500Y-95656613D01*
X168385757Y-95850566D01*
X168388679Y-95866198D01*
X168450096Y-96024735D01*
X168465702Y-96065019D01*
X168465704Y-96065022D01*
X168577942Y-96246294D01*
X168577945Y-96246297D01*
X168577948Y-96246302D01*
X168721593Y-96403872D01*
X168835680Y-96490027D01*
X168891748Y-96532368D01*
X168955892Y-96564307D01*
X169082611Y-96627405D01*
X169082617Y-96627406D01*
X169082620Y-96627408D01*
X169287685Y-96685755D01*
X169287687Y-96685755D01*
X169287690Y-96685756D01*
X169446806Y-96700500D01*
X169446809Y-96700500D01*
X169853191Y-96700500D01*
X169853194Y-96700500D01*
X170012310Y-96685756D01*
X170111351Y-96657576D01*
X170217379Y-96627408D01*
X170217379Y-96627407D01*
X170217389Y-96627405D01*
X170408255Y-96532366D01*
X170578407Y-96403872D01*
X170722052Y-96246302D01*
X170834298Y-96065019D01*
X170855787Y-96009550D01*
X170907883Y-95927544D01*
X170987396Y-95871716D01*
X171082221Y-95850566D01*
X171087972Y-95850500D01*
X171525500Y-95850500D01*
X171620788Y-95869454D01*
X171701570Y-95923430D01*
X171755546Y-96004212D01*
X171774500Y-96099500D01*
X171774500Y-96225809D01*
X171755546Y-96321097D01*
X171723904Y-96376264D01*
X171637634Y-96490027D01*
X171584642Y-96624404D01*
X171584641Y-96624408D01*
X171584641Y-96624410D01*
X171574500Y-96708856D01*
X171574500Y-97291144D01*
X171580084Y-97337643D01*
X171584641Y-97375591D01*
X171584642Y-97375595D01*
X171637634Y-97509972D01*
X171709334Y-97604523D01*
X171724922Y-97625078D01*
X171840025Y-97712364D01*
X171840026Y-97712364D01*
X171840027Y-97712365D01*
X171840026Y-97712365D01*
X171974404Y-97765357D01*
X171974406Y-97765357D01*
X171974410Y-97765359D01*
X172058856Y-97775500D01*
X172058859Y-97775500D01*
X172591141Y-97775500D01*
X172591144Y-97775500D01*
X172675590Y-97765359D01*
X172809975Y-97712364D01*
X172809982Y-97712358D01*
X172822733Y-97705189D01*
X172915080Y-97675004D01*
X173011949Y-97682456D01*
X173098592Y-97726411D01*
X173120852Y-97746156D01*
X173197270Y-97822574D01*
X173341516Y-97911546D01*
X173502396Y-97964855D01*
X173601687Y-97974999D01*
X173601688Y-97974999D01*
X173625000Y-97974998D01*
X174125000Y-97974998D01*
X174125001Y-97974999D01*
X174148304Y-97974999D01*
X174148320Y-97974998D01*
X174247609Y-97964855D01*
X174247612Y-97964854D01*
X174408480Y-97911548D01*
X174552729Y-97822574D01*
X174672574Y-97702729D01*
X174761546Y-97558483D01*
X174814855Y-97397603D01*
X174824999Y-97298317D01*
X174825000Y-97298307D01*
X174825000Y-97250001D01*
X174824999Y-97250000D01*
X174125001Y-97250000D01*
X174125000Y-97250001D01*
X174125000Y-97974998D01*
X173625000Y-97974998D01*
X173625000Y-96999000D01*
X173643954Y-96903712D01*
X173697930Y-96822930D01*
X173778712Y-96768954D01*
X173874000Y-96750000D01*
X174824998Y-96750000D01*
X174824999Y-96749999D01*
X174824999Y-96701696D01*
X174824998Y-96701679D01*
X174814855Y-96602390D01*
X174814854Y-96602387D01*
X174761548Y-96441519D01*
X174672574Y-96297270D01*
X174552729Y-96177425D01*
X174489505Y-96138428D01*
X174446369Y-96098320D01*
X177075001Y-96098320D01*
X177085144Y-96197609D01*
X177085145Y-96197612D01*
X177138451Y-96358480D01*
X177227425Y-96502729D01*
X177347270Y-96622574D01*
X177491516Y-96711546D01*
X177652396Y-96764855D01*
X177751687Y-96774999D01*
X177751688Y-96774999D01*
X177775000Y-96774998D01*
X177775000Y-96050001D01*
X177774999Y-96050000D01*
X177075002Y-96050000D01*
X177075001Y-96050001D01*
X177075001Y-96098320D01*
X174446369Y-96098320D01*
X174418354Y-96072272D01*
X174377936Y-95983923D01*
X174374404Y-95886832D01*
X174408296Y-95795781D01*
X174474452Y-95724630D01*
X174562801Y-95684212D01*
X174620224Y-95677500D01*
X176418994Y-95677500D01*
X176432947Y-95678284D01*
X176466164Y-95682027D01*
X176466164Y-95682026D01*
X176466166Y-95682027D01*
X176521623Y-95671533D01*
X176577431Y-95663122D01*
X176577438Y-95663118D01*
X176585160Y-95660736D01*
X176592780Y-95658069D01*
X176592789Y-95658068D01*
X176642684Y-95631697D01*
X176693540Y-95607207D01*
X176693547Y-95607200D01*
X176700200Y-95602664D01*
X176700212Y-95602656D01*
X176700222Y-95602648D01*
X176706719Y-95597854D01*
X176706726Y-95597851D01*
X176738715Y-95565860D01*
X176819495Y-95511883D01*
X176914782Y-95492927D01*
X177010071Y-95511879D01*
X177067126Y-95550000D01*
X178026000Y-95550000D01*
X178121288Y-95568954D01*
X178202070Y-95622930D01*
X178256046Y-95703712D01*
X178275000Y-95799000D01*
X178275000Y-96774998D01*
X178275001Y-96774999D01*
X178298304Y-96774999D01*
X178298320Y-96774998D01*
X178397609Y-96764855D01*
X178397612Y-96764854D01*
X178558478Y-96711549D01*
X178669780Y-96642897D01*
X178760832Y-96609005D01*
X178857922Y-96612537D01*
X178946271Y-96652954D01*
X179012428Y-96724105D01*
X179046320Y-96815157D01*
X179049500Y-96854825D01*
X179049500Y-96890602D01*
X179047238Y-96956826D01*
X179047238Y-96956831D01*
X179056955Y-96996703D01*
X179059337Y-97009234D01*
X179064929Y-97049917D01*
X179064929Y-97049919D01*
X179067817Y-97056566D01*
X179081352Y-97096816D01*
X179083065Y-97103846D01*
X179083068Y-97103854D01*
X179103190Y-97139641D01*
X179108863Y-97151064D01*
X179125218Y-97188717D01*
X179125222Y-97188723D01*
X179129793Y-97194342D01*
X179153676Y-97229432D01*
X179157232Y-97235757D01*
X179157235Y-97235760D01*
X179186270Y-97264796D01*
X179194813Y-97274262D01*
X179220722Y-97306108D01*
X179226642Y-97310286D01*
X179259119Y-97337643D01*
X179317091Y-97395616D01*
X179371067Y-97476398D01*
X179373839Y-97483387D01*
X179383923Y-97509975D01*
X179419780Y-97604523D01*
X179509517Y-97734530D01*
X179627760Y-97839283D01*
X179767635Y-97912696D01*
X179921015Y-97950500D01*
X179921020Y-97950500D01*
X180078980Y-97950500D01*
X180078985Y-97950500D01*
X180232365Y-97912696D01*
X180372240Y-97839283D01*
X180490483Y-97734530D01*
X180580220Y-97604523D01*
X180636237Y-97456818D01*
X180655278Y-97300000D01*
X180636237Y-97143182D01*
X180580220Y-96995477D01*
X180490483Y-96865470D01*
X180478467Y-96854825D01*
X180372239Y-96760716D01*
X180309500Y-96727788D01*
X180233935Y-96666723D01*
X180187491Y-96581388D01*
X180177239Y-96484775D01*
X180204739Y-96391593D01*
X180226806Y-96356864D01*
X180262364Y-96309975D01*
X180267374Y-96297270D01*
X180321216Y-96160739D01*
X180324648Y-96162092D01*
X180353847Y-96100717D01*
X180425982Y-96035636D01*
X180517532Y-96003113D01*
X180553509Y-96000500D01*
X181340601Y-96000500D01*
X181344861Y-96000645D01*
X181400386Y-96002542D01*
X181494968Y-96024735D01*
X181573861Y-96081437D01*
X181625049Y-96164013D01*
X181640741Y-96259892D01*
X181618547Y-96354478D01*
X181567956Y-96427466D01*
X181414630Y-96580791D01*
X181404214Y-96590100D01*
X181378076Y-96610945D01*
X181346284Y-96657575D01*
X181312768Y-96702989D01*
X181308979Y-96710157D01*
X181305486Y-96717412D01*
X181288850Y-96771347D01*
X181270207Y-96824626D01*
X181268705Y-96832567D01*
X181267500Y-96840561D01*
X181267500Y-96896992D01*
X181265388Y-96953407D01*
X181266716Y-96965187D01*
X181267500Y-96979139D01*
X181267500Y-97985415D01*
X181248546Y-98080703D01*
X181218845Y-98133275D01*
X181142210Y-98237112D01*
X181142206Y-98237119D01*
X181097353Y-98365304D01*
X181094500Y-98395726D01*
X181094500Y-100154273D01*
X181097353Y-100184695D01*
X181142206Y-100312880D01*
X181150927Y-100329381D01*
X181147078Y-100331415D01*
X181172967Y-100386522D01*
X181177482Y-100483572D01*
X181144514Y-100574962D01*
X181079082Y-100646779D01*
X181009595Y-100682757D01*
X180841519Y-100738451D01*
X180697270Y-100827425D01*
X180577425Y-100947270D01*
X180488453Y-101091516D01*
X180435144Y-101252396D01*
X180425000Y-101351682D01*
X180425000Y-101399999D01*
X180425001Y-101400000D01*
X181376000Y-101400000D01*
X181471288Y-101418954D01*
X181552070Y-101472930D01*
X181606046Y-101553712D01*
X181625000Y-101649000D01*
X181625000Y-101651000D01*
X181606046Y-101746288D01*
X181552070Y-101827070D01*
X181471288Y-101881046D01*
X181376000Y-101900000D01*
X180425002Y-101900000D01*
X180425001Y-101900001D01*
X180425001Y-101948320D01*
X180435144Y-102047609D01*
X180435145Y-102047612D01*
X180488451Y-102208480D01*
X180585041Y-102365076D01*
X180582635Y-102366559D01*
X180616388Y-102432570D01*
X180624148Y-102529415D01*
X180594258Y-102621857D01*
X180531266Y-102695824D01*
X180444763Y-102740055D01*
X180376833Y-102749500D01*
X177720823Y-102749500D01*
X177625535Y-102730546D01*
X177544753Y-102676570D01*
X177490777Y-102595788D01*
X177471823Y-102500500D01*
X177490777Y-102405212D01*
X177544753Y-102324430D01*
X177625535Y-102270454D01*
X177640784Y-102264715D01*
X177752798Y-102226690D01*
X177901427Y-102176238D01*
X177901436Y-102176233D01*
X177901440Y-102176232D01*
X178162260Y-102047609D01*
X178177771Y-102039960D01*
X178433964Y-101868778D01*
X178665620Y-101665620D01*
X178868778Y-101433964D01*
X179039960Y-101177772D01*
X179140508Y-100973880D01*
X179176232Y-100901440D01*
X179176233Y-100901436D01*
X179176238Y-100901427D01*
X179250467Y-100682757D01*
X179275278Y-100609666D01*
X179275278Y-100609664D01*
X179275280Y-100609659D01*
X179335391Y-100307460D01*
X179355543Y-100000000D01*
X179335391Y-99692540D01*
X179332741Y-99679220D01*
X179312683Y-99578379D01*
X179275280Y-99390341D01*
X179275278Y-99390336D01*
X179275278Y-99390333D01*
X179214264Y-99210595D01*
X179176238Y-99098573D01*
X179176234Y-99098566D01*
X179176232Y-99098559D01*
X179039965Y-98822239D01*
X179039964Y-98822238D01*
X179039960Y-98822229D01*
X178868778Y-98566036D01*
X178665620Y-98334380D01*
X178433964Y-98131222D01*
X178177771Y-97960040D01*
X178177766Y-97960037D01*
X178177760Y-97960034D01*
X177901440Y-97823767D01*
X177901428Y-97823762D01*
X177901427Y-97823762D01*
X177893836Y-97821185D01*
X177609666Y-97724721D01*
X177609659Y-97724720D01*
X177307470Y-97664610D01*
X177307458Y-97664608D01*
X177148759Y-97654207D01*
X177076941Y-97649500D01*
X176923059Y-97649500D01*
X176854785Y-97653974D01*
X176692541Y-97664608D01*
X176692529Y-97664610D01*
X176390340Y-97724720D01*
X176390333Y-97724721D01*
X176098578Y-97823760D01*
X176098559Y-97823767D01*
X175822239Y-97960034D01*
X175822222Y-97960044D01*
X175566040Y-98131219D01*
X175566036Y-98131222D01*
X175445284Y-98237119D01*
X175334381Y-98334379D01*
X175334379Y-98334381D01*
X175318606Y-98352367D01*
X175131222Y-98566036D01*
X175131220Y-98566038D01*
X175131219Y-98566040D01*
X174960044Y-98822221D01*
X174960034Y-98822238D01*
X174823767Y-99098559D01*
X174823760Y-99098578D01*
X174724721Y-99390333D01*
X174724720Y-99390340D01*
X174664610Y-99692529D01*
X174664608Y-99692541D01*
X174644457Y-100000000D01*
X174664608Y-100307458D01*
X174664610Y-100307470D01*
X174724720Y-100609659D01*
X174724721Y-100609666D01*
X174823760Y-100901421D01*
X174823767Y-100901440D01*
X174960034Y-101177760D01*
X174960035Y-101177761D01*
X174960040Y-101177771D01*
X175131222Y-101433964D01*
X175334380Y-101665620D01*
X175566036Y-101868778D01*
X175822229Y-102039960D01*
X175822238Y-102039964D01*
X175822239Y-102039965D01*
X176098559Y-102176232D01*
X176098567Y-102176235D01*
X176098573Y-102176238D01*
X176193555Y-102208480D01*
X176359216Y-102264715D01*
X176443355Y-102313292D01*
X176502499Y-102390371D01*
X176527644Y-102484215D01*
X176514962Y-102580539D01*
X176466385Y-102664678D01*
X176389306Y-102723822D01*
X176295462Y-102748967D01*
X176279177Y-102749500D01*
X166499500Y-102749500D01*
X166404212Y-102730546D01*
X166323430Y-102676570D01*
X166269454Y-102595788D01*
X166250500Y-102500500D01*
X166250500Y-87268598D01*
X166269454Y-87173310D01*
X166323430Y-87092528D01*
X166404212Y-87038552D01*
X166499500Y-87019598D01*
X166594788Y-87038552D01*
X166675570Y-87092528D01*
X166704425Y-87127153D01*
X166709517Y-87134530D01*
X166827760Y-87239283D01*
X166967635Y-87312696D01*
X167121015Y-87350500D01*
X167121020Y-87350500D01*
X167278980Y-87350500D01*
X167278985Y-87350500D01*
X167432365Y-87312696D01*
X167572240Y-87239283D01*
X167690483Y-87134530D01*
X167761481Y-87031670D01*
X167831207Y-86964019D01*
X167921518Y-86928199D01*
X168018662Y-86929666D01*
G37*
%TD.AperFunction*%
%TA.AperFunction,Conductor*%
G36*
X209595788Y-69269454D02*
G01*
X209676570Y-69323430D01*
X209730546Y-69404212D01*
X209749500Y-69499500D01*
X209749500Y-102500500D01*
X209730546Y-102595788D01*
X209676570Y-102676570D01*
X209595788Y-102730546D01*
X209500500Y-102749500D01*
X203330164Y-102749500D01*
X203234876Y-102730546D01*
X203154094Y-102676570D01*
X203100118Y-102595788D01*
X203081164Y-102500500D01*
X203100118Y-102405212D01*
X203154094Y-102324431D01*
X203829524Y-101649000D01*
X204082618Y-101395906D01*
X204131044Y-101350680D01*
X204152375Y-101315600D01*
X204159545Y-101305065D01*
X204184361Y-101272342D01*
X204187018Y-101265603D01*
X204205911Y-101227566D01*
X204209672Y-101221382D01*
X204220751Y-101181837D01*
X204224806Y-101169776D01*
X204239876Y-101131564D01*
X204240616Y-101124361D01*
X204248545Y-101082641D01*
X204250500Y-101075665D01*
X204250500Y-101034605D01*
X204251152Y-101021878D01*
X204255352Y-100981028D01*
X204254120Y-100973880D01*
X204250500Y-100931578D01*
X204250500Y-99954500D01*
X204269454Y-99859212D01*
X204323430Y-99778430D01*
X204404212Y-99724454D01*
X204499500Y-99705500D01*
X206350997Y-99705500D01*
X206351000Y-99705500D01*
X206410600Y-99699630D01*
X206490006Y-99683835D01*
X206505889Y-99680676D01*
X206508941Y-99680031D01*
X206512791Y-99679220D01*
X206616013Y-99635061D01*
X206696795Y-99581085D01*
X206702620Y-99577095D01*
X206781085Y-99496795D01*
X206835061Y-99416013D01*
X206838912Y-99410102D01*
X206880676Y-99305888D01*
X206899630Y-99210600D01*
X206905500Y-99151000D01*
X206905500Y-95849000D01*
X206899630Y-95789400D01*
X206880676Y-95694112D01*
X206879220Y-95687209D01*
X206835061Y-95583987D01*
X206781085Y-95503205D01*
X206777095Y-95497380D01*
X206777093Y-95497378D01*
X206777091Y-95497375D01*
X206704409Y-95426355D01*
X206696795Y-95418915D01*
X206616013Y-95364939D01*
X206610102Y-95361088D01*
X206505888Y-95319324D01*
X206505885Y-95319323D01*
X206505884Y-95319323D01*
X206410595Y-95300369D01*
X206351003Y-95294500D01*
X206351000Y-95294500D01*
X205054500Y-95294500D01*
X204959212Y-95275546D01*
X204878430Y-95221570D01*
X204824454Y-95140788D01*
X204805500Y-95045500D01*
X204805500Y-87749003D01*
X204805500Y-87749000D01*
X204799630Y-87689400D01*
X204784466Y-87613169D01*
X204780676Y-87594111D01*
X204779221Y-87587214D01*
X204779220Y-87587209D01*
X204735061Y-87483987D01*
X204681085Y-87403205D01*
X204677095Y-87397380D01*
X204677093Y-87397378D01*
X204677091Y-87397375D01*
X204596800Y-87318920D01*
X204596796Y-87318916D01*
X204574690Y-87304145D01*
X204516013Y-87264939D01*
X204510102Y-87261088D01*
X204405888Y-87219324D01*
X204405885Y-87219323D01*
X204405884Y-87219323D01*
X204310595Y-87200369D01*
X204251003Y-87194500D01*
X204251000Y-87194500D01*
X201349000Y-87194500D01*
X201348996Y-87194500D01*
X201289404Y-87200369D01*
X201194111Y-87219324D01*
X201187214Y-87220778D01*
X201187210Y-87220779D01*
X201187209Y-87220780D01*
X201161485Y-87231784D01*
X201083991Y-87264936D01*
X201083990Y-87264937D01*
X201083987Y-87264938D01*
X201083987Y-87264939D01*
X201003205Y-87318915D01*
X200999113Y-87321717D01*
X200997375Y-87322908D01*
X200918920Y-87403199D01*
X200918916Y-87403203D01*
X200918915Y-87403205D01*
X200864939Y-87483987D01*
X200861088Y-87489898D01*
X200819325Y-87594111D01*
X200819323Y-87594115D01*
X200800369Y-87689404D01*
X200794500Y-87748996D01*
X200794500Y-99151003D01*
X200800369Y-99210595D01*
X200819324Y-99305889D01*
X200820778Y-99312785D01*
X200820779Y-99312787D01*
X200820780Y-99312791D01*
X200842789Y-99364237D01*
X200864936Y-99416008D01*
X200864937Y-99416009D01*
X200864939Y-99416013D01*
X200918915Y-99496795D01*
X200922905Y-99502620D01*
X200922908Y-99502624D01*
X200982149Y-99560510D01*
X201003205Y-99581085D01*
X201083987Y-99635061D01*
X201089898Y-99638912D01*
X201194112Y-99680676D01*
X201289400Y-99699630D01*
X201349000Y-99705500D01*
X202900500Y-99705500D01*
X202995788Y-99724454D01*
X203076570Y-99778430D01*
X203130546Y-99859212D01*
X203149500Y-99954500D01*
X203149500Y-100668835D01*
X203130546Y-100764123D01*
X203076570Y-100844905D01*
X202244905Y-101676570D01*
X202164123Y-101730546D01*
X202068835Y-101749500D01*
X183924500Y-101749500D01*
X183829212Y-101730546D01*
X183748430Y-101676570D01*
X183694454Y-101595788D01*
X183675500Y-101500500D01*
X183675500Y-101358858D01*
X183670306Y-101315606D01*
X183665359Y-101274410D01*
X183664543Y-101272342D01*
X183612365Y-101140027D01*
X183612364Y-101140026D01*
X183612364Y-101140025D01*
X183580199Y-101097610D01*
X183537726Y-101010233D01*
X183531923Y-100913251D01*
X183563675Y-100821431D01*
X183628149Y-100748752D01*
X183715527Y-100706278D01*
X183812509Y-100700475D01*
X183848072Y-100708043D01*
X183982507Y-100747099D01*
X183984999Y-100747296D01*
X183985000Y-100747295D01*
X183985000Y-99274000D01*
X184003954Y-99178712D01*
X184057930Y-99097930D01*
X184138712Y-99043954D01*
X184234000Y-99025000D01*
X184236000Y-99025000D01*
X184331288Y-99043954D01*
X184412070Y-99097930D01*
X184466046Y-99178712D01*
X184485000Y-99274000D01*
X184485000Y-100747296D01*
X184487492Y-100747099D01*
X184645193Y-100701283D01*
X184645195Y-100701283D01*
X184786554Y-100617683D01*
X184786556Y-100617682D01*
X184854716Y-100549522D01*
X184935497Y-100495545D01*
X185030785Y-100476590D01*
X185126074Y-100495543D01*
X185139678Y-100501939D01*
X185142117Y-100502792D01*
X185142118Y-100502793D01*
X185270301Y-100547646D01*
X185300727Y-100550499D01*
X185300729Y-100550500D01*
X185300734Y-100550500D01*
X185709271Y-100550500D01*
X185709272Y-100550499D01*
X185739699Y-100547646D01*
X185867882Y-100502793D01*
X185977150Y-100422150D01*
X186057793Y-100312882D01*
X186102646Y-100184699D01*
X186105500Y-100154266D01*
X186105500Y-100000000D01*
X188044722Y-100000000D01*
X188063453Y-100154270D01*
X188063763Y-100156818D01*
X188119780Y-100304523D01*
X188170031Y-100377324D01*
X188209517Y-100434530D01*
X188209519Y-100434532D01*
X188265116Y-100483786D01*
X188327760Y-100539283D01*
X188467635Y-100612696D01*
X188621015Y-100650500D01*
X188621020Y-100650500D01*
X188778980Y-100650500D01*
X188778985Y-100650500D01*
X188932365Y-100612696D01*
X189072240Y-100539283D01*
X189134884Y-100483786D01*
X189218777Y-100434786D01*
X189315036Y-100421620D01*
X189409005Y-100446294D01*
X189465116Y-100483786D01*
X189486571Y-100502793D01*
X189527760Y-100539283D01*
X189667635Y-100612696D01*
X189821015Y-100650500D01*
X189821020Y-100650500D01*
X189978980Y-100650500D01*
X189978985Y-100650500D01*
X190132365Y-100612696D01*
X190272240Y-100539283D01*
X190384886Y-100439487D01*
X190468776Y-100390490D01*
X190565035Y-100377324D01*
X190659005Y-100401997D01*
X190715111Y-100439486D01*
X190827760Y-100539283D01*
X190827761Y-100539283D01*
X190827763Y-100539285D01*
X190895740Y-100574962D01*
X190967635Y-100612696D01*
X191121015Y-100650500D01*
X191121020Y-100650500D01*
X191278980Y-100650500D01*
X191278985Y-100650500D01*
X191432365Y-100612696D01*
X191572240Y-100539283D01*
X191690483Y-100434530D01*
X191780220Y-100304523D01*
X191836237Y-100156818D01*
X191855278Y-100000000D01*
X191836237Y-99843182D01*
X191780220Y-99695477D01*
X191690483Y-99565470D01*
X191684884Y-99560510D01*
X191572239Y-99460716D01*
X191432367Y-99387305D01*
X191432366Y-99387304D01*
X191432365Y-99387304D01*
X191329155Y-99361865D01*
X191278986Y-99349500D01*
X191278985Y-99349500D01*
X191121015Y-99349500D01*
X191121013Y-99349500D01*
X191020673Y-99374231D01*
X190967635Y-99387304D01*
X190967634Y-99387304D01*
X190967632Y-99387305D01*
X190827763Y-99460714D01*
X190715116Y-99560510D01*
X190631222Y-99609509D01*
X190534964Y-99622675D01*
X190440994Y-99598001D01*
X190384884Y-99560510D01*
X190377202Y-99553704D01*
X190272240Y-99460717D01*
X190272238Y-99460716D01*
X190272236Y-99460714D01*
X190132367Y-99387305D01*
X190132366Y-99387304D01*
X190132365Y-99387304D01*
X190029155Y-99361865D01*
X189978986Y-99349500D01*
X189978985Y-99349500D01*
X189821015Y-99349500D01*
X189821013Y-99349500D01*
X189720673Y-99374231D01*
X189667635Y-99387304D01*
X189667634Y-99387304D01*
X189667632Y-99387305D01*
X189527760Y-99460716D01*
X189465115Y-99516214D01*
X189381221Y-99565214D01*
X189284962Y-99578379D01*
X189190993Y-99553704D01*
X189134885Y-99516214D01*
X189072239Y-99460716D01*
X188932367Y-99387305D01*
X188932366Y-99387304D01*
X188932365Y-99387304D01*
X188829155Y-99361865D01*
X188778986Y-99349500D01*
X188778985Y-99349500D01*
X188621015Y-99349500D01*
X188621013Y-99349500D01*
X188520673Y-99374231D01*
X188467635Y-99387304D01*
X188467634Y-99387304D01*
X188467632Y-99387305D01*
X188327760Y-99460716D01*
X188209519Y-99565467D01*
X188209517Y-99565469D01*
X188119781Y-99695475D01*
X188119779Y-99695479D01*
X188063763Y-99843180D01*
X188044722Y-100000000D01*
X186105500Y-100000000D01*
X186105500Y-98395734D01*
X186104684Y-98387039D01*
X186102647Y-98365305D01*
X186098120Y-98352367D01*
X186091883Y-98334543D01*
X186078302Y-98238346D01*
X186102568Y-98144270D01*
X186133978Y-98100000D01*
X188044722Y-98100000D01*
X188063763Y-98256818D01*
X188119780Y-98404523D01*
X188119781Y-98404524D01*
X188209517Y-98534530D01*
X188209519Y-98534532D01*
X188222796Y-98546294D01*
X188327760Y-98639283D01*
X188467635Y-98712696D01*
X188621015Y-98750500D01*
X188621020Y-98750500D01*
X188778980Y-98750500D01*
X188778985Y-98750500D01*
X188932365Y-98712696D01*
X189072240Y-98639283D01*
X189134884Y-98583786D01*
X189218777Y-98534786D01*
X189315036Y-98521620D01*
X189409005Y-98546294D01*
X189465116Y-98583786D01*
X189527760Y-98639283D01*
X189667635Y-98712696D01*
X189821015Y-98750500D01*
X189821020Y-98750500D01*
X189978980Y-98750500D01*
X189978985Y-98750500D01*
X190132365Y-98712696D01*
X190272240Y-98639283D01*
X190384886Y-98539487D01*
X190468776Y-98490490D01*
X190565035Y-98477324D01*
X190659005Y-98501997D01*
X190715111Y-98539486D01*
X190827760Y-98639283D01*
X190827761Y-98639283D01*
X190827763Y-98639285D01*
X190897697Y-98675989D01*
X190967635Y-98712696D01*
X191121015Y-98750500D01*
X191121020Y-98750500D01*
X191278980Y-98750500D01*
X191278985Y-98750500D01*
X191432365Y-98712696D01*
X191572240Y-98639283D01*
X191690483Y-98534530D01*
X191780220Y-98404523D01*
X191836237Y-98256818D01*
X191855278Y-98100000D01*
X191836237Y-97943182D01*
X191780220Y-97795477D01*
X191690483Y-97665470D01*
X191689512Y-97664610D01*
X191572239Y-97560716D01*
X191432367Y-97487305D01*
X191432366Y-97487304D01*
X191432365Y-97487304D01*
X191308676Y-97456818D01*
X191278986Y-97449500D01*
X191278985Y-97449500D01*
X191121015Y-97449500D01*
X191121013Y-97449500D01*
X191020673Y-97474231D01*
X190967635Y-97487304D01*
X190967634Y-97487304D01*
X190967632Y-97487305D01*
X190827763Y-97560714D01*
X190715116Y-97660510D01*
X190631222Y-97709509D01*
X190534964Y-97722675D01*
X190440994Y-97698001D01*
X190384884Y-97660510D01*
X190372456Y-97649500D01*
X190272240Y-97560717D01*
X190272238Y-97560716D01*
X190272236Y-97560714D01*
X190132367Y-97487305D01*
X190132366Y-97487304D01*
X190132365Y-97487304D01*
X190008676Y-97456818D01*
X189978986Y-97449500D01*
X189978985Y-97449500D01*
X189821015Y-97449500D01*
X189821013Y-97449500D01*
X189720673Y-97474231D01*
X189667635Y-97487304D01*
X189667634Y-97487304D01*
X189667632Y-97487305D01*
X189527760Y-97560716D01*
X189465115Y-97616214D01*
X189381221Y-97665214D01*
X189284962Y-97678379D01*
X189190993Y-97653704D01*
X189134885Y-97616214D01*
X189072239Y-97560716D01*
X188932367Y-97487305D01*
X188932366Y-97487304D01*
X188932365Y-97487304D01*
X188808676Y-97456818D01*
X188778986Y-97449500D01*
X188778985Y-97449500D01*
X188621015Y-97449500D01*
X188621013Y-97449500D01*
X188520673Y-97474231D01*
X188467635Y-97487304D01*
X188467634Y-97487304D01*
X188467632Y-97487305D01*
X188327760Y-97560716D01*
X188209519Y-97665467D01*
X188209517Y-97665469D01*
X188119781Y-97795475D01*
X188119779Y-97795479D01*
X188063763Y-97943180D01*
X188061131Y-97964855D01*
X188044722Y-98100000D01*
X186133978Y-98100000D01*
X186150837Y-98076238D01*
X188121649Y-96105427D01*
X188202431Y-96051451D01*
X188297719Y-96032497D01*
X188974822Y-96032497D01*
X189070110Y-96051451D01*
X189107908Y-96073273D01*
X189108240Y-96072700D01*
X189122378Y-96080863D01*
X189256286Y-96136328D01*
X189256291Y-96136330D01*
X189400000Y-96155250D01*
X189543709Y-96136330D01*
X189543714Y-96136328D01*
X189677621Y-96080863D01*
X189677622Y-96080862D01*
X189677625Y-96080861D01*
X189792621Y-95992621D01*
X189880861Y-95877625D01*
X189884246Y-95869454D01*
X189936328Y-95743714D01*
X189936328Y-95743713D01*
X189936330Y-95743709D01*
X189955250Y-95600000D01*
X189936330Y-95456291D01*
X189930986Y-95443390D01*
X189874616Y-95307297D01*
X189876047Y-95306704D01*
X189850858Y-95232501D01*
X189857212Y-95135554D01*
X189874911Y-95092825D01*
X189874616Y-95092703D01*
X189936328Y-94943714D01*
X189936328Y-94943713D01*
X189936330Y-94943709D01*
X189955250Y-94800000D01*
X189936330Y-94656291D01*
X189936328Y-94656285D01*
X189880863Y-94522378D01*
X189880858Y-94522371D01*
X189792625Y-94407383D01*
X189792616Y-94407374D01*
X189677628Y-94319141D01*
X189677621Y-94319136D01*
X189543713Y-94263671D01*
X189543710Y-94263670D01*
X189543709Y-94263670D01*
X189400000Y-94244750D01*
X189256291Y-94263670D01*
X189256289Y-94263670D01*
X189256287Y-94263671D01*
X189256285Y-94263671D01*
X189122378Y-94319136D01*
X189122368Y-94319143D01*
X189119887Y-94321047D01*
X189114289Y-94323807D01*
X189108240Y-94327300D01*
X189108011Y-94326903D01*
X189032751Y-94364017D01*
X188968309Y-94372500D01*
X188490139Y-94372500D01*
X188394851Y-94353546D01*
X188314069Y-94299570D01*
X188260093Y-94218788D01*
X188241139Y-94123500D01*
X188243268Y-94091008D01*
X188255250Y-94000000D01*
X188236330Y-93856291D01*
X188236328Y-93856285D01*
X188180863Y-93722378D01*
X188180858Y-93722371D01*
X188092625Y-93607383D01*
X188092616Y-93607374D01*
X187977628Y-93519141D01*
X187977623Y-93519138D01*
X187843712Y-93463671D01*
X187843710Y-93463670D01*
X187843709Y-93463670D01*
X187843707Y-93463669D01*
X187827951Y-93459448D01*
X187828439Y-93457623D01*
X187755860Y-93432980D01*
X187709907Y-93393433D01*
X187707737Y-93395773D01*
X187694060Y-93383083D01*
X187694058Y-93383080D01*
X187647423Y-93351284D01*
X187602014Y-93317771D01*
X187587005Y-93306694D01*
X187588163Y-93305124D01*
X187531499Y-93259054D01*
X187485308Y-93173581D01*
X187475342Y-93076939D01*
X187476379Y-93067732D01*
X187486310Y-92992308D01*
X187489398Y-92968854D01*
X187489398Y-92968848D01*
X187474345Y-92854517D01*
X187480698Y-92757570D01*
X187523666Y-92670437D01*
X187599416Y-92571719D01*
X187611552Y-92542421D01*
X187654883Y-92437808D01*
X187654883Y-92437807D01*
X187654885Y-92437803D01*
X187673805Y-92294094D01*
X187654885Y-92150385D01*
X187654883Y-92150379D01*
X187599418Y-92016472D01*
X187599413Y-92016465D01*
X187511180Y-91901477D01*
X187511172Y-91901469D01*
X187468037Y-91868371D01*
X187403978Y-91795326D01*
X187372747Y-91703328D01*
X187379101Y-91606381D01*
X187414692Y-91529380D01*
X187430233Y-91506866D01*
X187486250Y-91359161D01*
X187505291Y-91202343D01*
X187486250Y-91045525D01*
X187430233Y-90897820D01*
X187340496Y-90767813D01*
X187322477Y-90751850D01*
X187222252Y-90663059D01*
X187174457Y-90637974D01*
X187098892Y-90576908D01*
X187052448Y-90491573D01*
X187042196Y-90394960D01*
X187069696Y-90301779D01*
X187130762Y-90226214D01*
X187174458Y-90197018D01*
X187274776Y-90144366D01*
X187274775Y-90144366D01*
X187274780Y-90144364D01*
X187393023Y-90039611D01*
X187482760Y-89909604D01*
X187538777Y-89761899D01*
X187557818Y-89605081D01*
X187538777Y-89448263D01*
X187482760Y-89300558D01*
X187393023Y-89170551D01*
X187274780Y-89065798D01*
X187274779Y-89065797D01*
X187265271Y-89057374D01*
X187206516Y-88979999D01*
X187204292Y-88971530D01*
X187181581Y-88980689D01*
X187084430Y-88979779D01*
X187075715Y-88977796D01*
X186981525Y-88954581D01*
X186823555Y-88954581D01*
X186823553Y-88954581D01*
X186729374Y-88977794D01*
X186670175Y-88992385D01*
X186670174Y-88992385D01*
X186670172Y-88992386D01*
X186530300Y-89065797D01*
X186412059Y-89170548D01*
X186412057Y-89170550D01*
X186322321Y-89300556D01*
X186322319Y-89300560D01*
X186266303Y-89448261D01*
X186247262Y-89605081D01*
X186266303Y-89761900D01*
X186295442Y-89838733D01*
X186322320Y-89909604D01*
X186412057Y-90039611D01*
X186530300Y-90144364D01*
X186578095Y-90169449D01*
X186653659Y-90230514D01*
X186700103Y-90315849D01*
X186710356Y-90412461D01*
X186682857Y-90505643D01*
X186621791Y-90581208D01*
X186578097Y-90610404D01*
X186477776Y-90663057D01*
X186447105Y-90690229D01*
X186393622Y-90737611D01*
X186377549Y-90751850D01*
X186293655Y-90800849D01*
X186197397Y-90814015D01*
X186103427Y-90789341D01*
X186036363Y-90741539D01*
X184014454Y-88719630D01*
X184005151Y-88709220D01*
X183984306Y-88683080D01*
X183984305Y-88683079D01*
X183984304Y-88683078D01*
X183937670Y-88651283D01*
X183892259Y-88617769D01*
X183885141Y-88614006D01*
X183877831Y-88610486D01*
X183877829Y-88610485D01*
X183869993Y-88608068D01*
X183823901Y-88593850D01*
X183770623Y-88575208D01*
X183762663Y-88573701D01*
X183754686Y-88572500D01*
X183754683Y-88572500D01*
X183698256Y-88572500D01*
X183695876Y-88572410D01*
X183641839Y-88570388D01*
X183630059Y-88571716D01*
X183616108Y-88572500D01*
X182380216Y-88572500D01*
X182284928Y-88553546D01*
X182204146Y-88499570D01*
X181807538Y-88102962D01*
X181753562Y-88022180D01*
X181736737Y-87959386D01*
X181736329Y-87956287D01*
X181680862Y-87822376D01*
X181680859Y-87822372D01*
X181678954Y-87819889D01*
X181676189Y-87814283D01*
X181672700Y-87808239D01*
X181673096Y-87808010D01*
X181635984Y-87732753D01*
X181627500Y-87668309D01*
X181627500Y-87630216D01*
X181646454Y-87534928D01*
X181700430Y-87454146D01*
X182654146Y-86500430D01*
X182734928Y-86446454D01*
X182830216Y-86427500D01*
X185069783Y-86427500D01*
X185165071Y-86446454D01*
X185245853Y-86500430D01*
X187225788Y-88480364D01*
X187235098Y-88490783D01*
X187255940Y-88516917D01*
X187255943Y-88516921D01*
X187275563Y-88530298D01*
X187343616Y-88599637D01*
X187358803Y-88637296D01*
X187415352Y-88622448D01*
X187458392Y-88624370D01*
X187459874Y-88624425D01*
X187460108Y-88624446D01*
X187467521Y-88624778D01*
X187473845Y-88625732D01*
X187473855Y-88625733D01*
X187485558Y-88627497D01*
X187485565Y-88627500D01*
X187485572Y-88627500D01*
X187541992Y-88627500D01*
X187598405Y-88629611D01*
X187598405Y-88629610D01*
X187598408Y-88629611D01*
X187610189Y-88628284D01*
X187624140Y-88627500D01*
X188443994Y-88627500D01*
X188457947Y-88628284D01*
X188491164Y-88632027D01*
X188491164Y-88632026D01*
X188491166Y-88632027D01*
X188546623Y-88621533D01*
X188602431Y-88613122D01*
X188602438Y-88613118D01*
X188610160Y-88610736D01*
X188617780Y-88608069D01*
X188617789Y-88608068D01*
X188667684Y-88581697D01*
X188718540Y-88557207D01*
X188718547Y-88557200D01*
X188725200Y-88552664D01*
X188725212Y-88552656D01*
X188725222Y-88552648D01*
X188731716Y-88547856D01*
X188731726Y-88547851D01*
X188771637Y-88507939D01*
X188813008Y-88469553D01*
X188813012Y-88469544D01*
X188820390Y-88460295D01*
X188829704Y-88449872D01*
X189230370Y-88049206D01*
X189240778Y-88039904D01*
X189266920Y-88019058D01*
X189298720Y-87972415D01*
X189332228Y-87927014D01*
X189332229Y-87927008D01*
X189336005Y-87919865D01*
X189339510Y-87912587D01*
X189339515Y-87912581D01*
X189356152Y-87858642D01*
X189374792Y-87805375D01*
X189374792Y-87805372D01*
X189376285Y-87797481D01*
X189377498Y-87789440D01*
X189377500Y-87789435D01*
X189377500Y-87732993D01*
X189379610Y-87676595D01*
X189379610Y-87676594D01*
X189378284Y-87664824D01*
X189377500Y-87650871D01*
X189377500Y-86680299D01*
X189378284Y-86666346D01*
X189379167Y-86658508D01*
X189382027Y-86633127D01*
X189371531Y-86577658D01*
X189363122Y-86521862D01*
X189363121Y-86521859D01*
X189360739Y-86514138D01*
X189358068Y-86506502D01*
X189331692Y-86456597D01*
X189307207Y-86405753D01*
X189302672Y-86399102D01*
X189297856Y-86392576D01*
X189297851Y-86392567D01*
X189257939Y-86352655D01*
X189219553Y-86311285D01*
X189219552Y-86311284D01*
X189219551Y-86311283D01*
X189210284Y-86303892D01*
X189199867Y-86294583D01*
X188964681Y-86059397D01*
X188729441Y-85824158D01*
X188675465Y-85743377D01*
X188656511Y-85648089D01*
X188675465Y-85552801D01*
X188729441Y-85472020D01*
X188810223Y-85418043D01*
X188905511Y-85399089D01*
X188965096Y-85406323D01*
X189045399Y-85426116D01*
X189045404Y-85426116D01*
X189203364Y-85426116D01*
X189203369Y-85426116D01*
X189356749Y-85388312D01*
X189496624Y-85314899D01*
X189614867Y-85210146D01*
X189704604Y-85080139D01*
X189760621Y-84932434D01*
X189779662Y-84775616D01*
X189767993Y-84679511D01*
X189775324Y-84582633D01*
X189819170Y-84495935D01*
X189892857Y-84432615D01*
X189985166Y-84402314D01*
X190015178Y-84400499D01*
X191844856Y-84400499D01*
X191844864Y-84400499D01*
X191869991Y-84397585D01*
X191972765Y-84352206D01*
X192052206Y-84272765D01*
X192052207Y-84272760D01*
X192065245Y-84253730D01*
X192066020Y-84254261D01*
X192106641Y-84196409D01*
X192188648Y-84144314D01*
X192278595Y-84127500D01*
X195018994Y-84127500D01*
X195032947Y-84128284D01*
X195066164Y-84132027D01*
X195066164Y-84132026D01*
X195066166Y-84132027D01*
X195121623Y-84121533D01*
X195177431Y-84113122D01*
X195177438Y-84113118D01*
X195185160Y-84110736D01*
X195192780Y-84108069D01*
X195192789Y-84108068D01*
X195242684Y-84081697D01*
X195293540Y-84057207D01*
X195293547Y-84057200D01*
X195300200Y-84052664D01*
X195300212Y-84052656D01*
X195300222Y-84052648D01*
X195306716Y-84047856D01*
X195306726Y-84047851D01*
X195346638Y-84007938D01*
X195388008Y-83969553D01*
X195388010Y-83969549D01*
X195395390Y-83960295D01*
X195404704Y-83949872D01*
X195674212Y-83680364D01*
X196484929Y-82869645D01*
X196565708Y-82815672D01*
X196660996Y-82796718D01*
X196756284Y-82815672D01*
X196837066Y-82869648D01*
X196856024Y-82891266D01*
X196857383Y-82892625D01*
X196972371Y-82980858D01*
X196972378Y-82980863D01*
X197066849Y-83019993D01*
X197106291Y-83036330D01*
X197250000Y-83055250D01*
X197393709Y-83036330D01*
X197393714Y-83036328D01*
X197527621Y-82980863D01*
X197527622Y-82980862D01*
X197527625Y-82980861D01*
X197528466Y-82980216D01*
X197530113Y-82978953D01*
X197535710Y-82976192D01*
X197541760Y-82972700D01*
X197541988Y-82973096D01*
X197617249Y-82935983D01*
X197681691Y-82927500D01*
X198000501Y-82927500D01*
X198095789Y-82946454D01*
X198176571Y-83000430D01*
X198230547Y-83081212D01*
X198249501Y-83176500D01*
X198249501Y-84144869D01*
X198252415Y-84169993D01*
X198297792Y-84272762D01*
X198297793Y-84272763D01*
X198297794Y-84272765D01*
X198377235Y-84352206D01*
X198480009Y-84397585D01*
X198505135Y-84400500D01*
X199994864Y-84400499D01*
X200019991Y-84397585D01*
X200122765Y-84352206D01*
X200202206Y-84272765D01*
X200247585Y-84169991D01*
X200250500Y-84144865D01*
X200250499Y-80855136D01*
X200247585Y-80830009D01*
X200202206Y-80727235D01*
X200122765Y-80647794D01*
X200019991Y-80602415D01*
X200019990Y-80602414D01*
X200019989Y-80602414D01*
X199994867Y-80599500D01*
X199994865Y-80599500D01*
X199356215Y-80599500D01*
X199260927Y-80580546D01*
X199180145Y-80526570D01*
X199126169Y-80445788D01*
X199107215Y-80350500D01*
X199126169Y-80255212D01*
X199180145Y-80174430D01*
X199454575Y-79900000D01*
X202594722Y-79900000D01*
X202613763Y-80056819D01*
X202650158Y-80152785D01*
X202669780Y-80204523D01*
X202714666Y-80269552D01*
X202759517Y-80334530D01*
X202759519Y-80334532D01*
X202812758Y-80381697D01*
X202877760Y-80439283D01*
X203017635Y-80512696D01*
X203171015Y-80550500D01*
X203171020Y-80550500D01*
X203328980Y-80550500D01*
X203328985Y-80550500D01*
X203482365Y-80512696D01*
X203622240Y-80439283D01*
X203740483Y-80334530D01*
X203830220Y-80204523D01*
X203886237Y-80056818D01*
X203905278Y-79900000D01*
X203886237Y-79743182D01*
X203830220Y-79595477D01*
X203740483Y-79465470D01*
X203737121Y-79462492D01*
X203622239Y-79360716D01*
X203482367Y-79287305D01*
X203482366Y-79287304D01*
X203482365Y-79287304D01*
X203367768Y-79259059D01*
X203328986Y-79249500D01*
X203328985Y-79249500D01*
X203171015Y-79249500D01*
X203171013Y-79249500D01*
X203078968Y-79272187D01*
X203017635Y-79287304D01*
X203017634Y-79287304D01*
X203017632Y-79287305D01*
X202877760Y-79360716D01*
X202759519Y-79465467D01*
X202759517Y-79465469D01*
X202669781Y-79595475D01*
X202669779Y-79595479D01*
X202613763Y-79743180D01*
X202594722Y-79900000D01*
X199454575Y-79900000D01*
X199837644Y-79516931D01*
X200497039Y-78857535D01*
X200577818Y-78803562D01*
X200640612Y-78786737D01*
X200643709Y-78786330D01*
X200722860Y-78753545D01*
X200777621Y-78730863D01*
X200777622Y-78730862D01*
X200777625Y-78730861D01*
X200892621Y-78642621D01*
X200980861Y-78527625D01*
X200984378Y-78519136D01*
X201036328Y-78393714D01*
X201036328Y-78393713D01*
X201036330Y-78393709D01*
X201055250Y-78250000D01*
X201036330Y-78106291D01*
X201036328Y-78106285D01*
X200980863Y-77972378D01*
X200980858Y-77972371D01*
X200892625Y-77857383D01*
X200892616Y-77857374D01*
X200777628Y-77769141D01*
X200777621Y-77769136D01*
X200643713Y-77713671D01*
X200643710Y-77713670D01*
X200643709Y-77713670D01*
X200500000Y-77694750D01*
X200356291Y-77713670D01*
X200356289Y-77713670D01*
X200356287Y-77713671D01*
X200356285Y-77713671D01*
X200222378Y-77769136D01*
X200222371Y-77769141D01*
X200107383Y-77857374D01*
X200107374Y-77857383D01*
X200019141Y-77972371D01*
X200019138Y-77972376D01*
X199963671Y-78106287D01*
X199963670Y-78106290D01*
X199963261Y-78109398D01*
X199961252Y-78115314D01*
X199959448Y-78122049D01*
X199959006Y-78121930D01*
X199932028Y-78201396D01*
X199892462Y-78252959D01*
X196515072Y-81630350D01*
X196434290Y-81684326D01*
X196339002Y-81703280D01*
X196243714Y-81684326D01*
X196162932Y-81630350D01*
X196143976Y-81608734D01*
X196142616Y-81607374D01*
X196027628Y-81519141D01*
X196027621Y-81519136D01*
X195893713Y-81463671D01*
X195893710Y-81463670D01*
X195893709Y-81463670D01*
X195750000Y-81444750D01*
X195606291Y-81463670D01*
X195606289Y-81463670D01*
X195606287Y-81463671D01*
X195606285Y-81463671D01*
X195472378Y-81519136D01*
X195472368Y-81519143D01*
X195469887Y-81521047D01*
X195464289Y-81523807D01*
X195458240Y-81527300D01*
X195458011Y-81526903D01*
X195382751Y-81564017D01*
X195318309Y-81572500D01*
X193786217Y-81572500D01*
X193690929Y-81553546D01*
X193610147Y-81499570D01*
X192090822Y-79980245D01*
X192036846Y-79899463D01*
X192017892Y-79804175D01*
X192036846Y-79708887D01*
X192090822Y-79628105D01*
X192171604Y-79574129D01*
X192234383Y-79557306D01*
X192249998Y-79555249D01*
X192250000Y-79555250D01*
X192256291Y-79554421D01*
X192297289Y-79552436D01*
X192306826Y-79552762D01*
X192344863Y-79543491D01*
X192358060Y-79541022D01*
X192393709Y-79536330D01*
X192403807Y-79532147D01*
X192440128Y-79520277D01*
X192453852Y-79516933D01*
X192484608Y-79499638D01*
X192497976Y-79493140D01*
X192527625Y-79480861D01*
X192539925Y-79471422D01*
X192569459Y-79451930D01*
X192585759Y-79442766D01*
X192607982Y-79420541D01*
X192620224Y-79409806D01*
X192642621Y-79392621D01*
X192646227Y-79387920D01*
X192719270Y-79323862D01*
X192811268Y-79292631D01*
X192843774Y-79290500D01*
X194300603Y-79290500D01*
X194366826Y-79292762D01*
X194406712Y-79283041D01*
X194419236Y-79280660D01*
X194459920Y-79275070D01*
X194466558Y-79272186D01*
X194506830Y-79258643D01*
X194513852Y-79256933D01*
X194549648Y-79236805D01*
X194561053Y-79231140D01*
X194598720Y-79214780D01*
X194604339Y-79210207D01*
X194639450Y-79186312D01*
X194645759Y-79182766D01*
X194674795Y-79153728D01*
X194684254Y-79145191D01*
X194716108Y-79119278D01*
X194720284Y-79113360D01*
X194747633Y-79080890D01*
X195962603Y-77865920D01*
X196011044Y-77820680D01*
X196032383Y-77785587D01*
X196039548Y-77775060D01*
X196064361Y-77742342D01*
X196067018Y-77735603D01*
X196085914Y-77697561D01*
X196089672Y-77691382D01*
X196100751Y-77651837D01*
X196104806Y-77639776D01*
X196119876Y-77601564D01*
X196120616Y-77594361D01*
X196128545Y-77552641D01*
X196130500Y-77545665D01*
X196130500Y-77504605D01*
X196131152Y-77491878D01*
X196135352Y-77451028D01*
X196134120Y-77443880D01*
X196130500Y-77401578D01*
X196130500Y-75261164D01*
X196149454Y-75165876D01*
X196203430Y-75085094D01*
X196243094Y-75045430D01*
X196323876Y-74991454D01*
X196419164Y-74972500D01*
X197348603Y-74972500D01*
X197414826Y-74974762D01*
X197454712Y-74965041D01*
X197467236Y-74962660D01*
X197507920Y-74957070D01*
X197514558Y-74954186D01*
X197554830Y-74940643D01*
X197561852Y-74938933D01*
X197597648Y-74918805D01*
X197609053Y-74913140D01*
X197646720Y-74896780D01*
X197652339Y-74892207D01*
X197687450Y-74868312D01*
X197693759Y-74864766D01*
X197722795Y-74835728D01*
X197732254Y-74827191D01*
X197764108Y-74801278D01*
X197768284Y-74795360D01*
X197795633Y-74762890D01*
X199037094Y-73521430D01*
X199117876Y-73467454D01*
X199213164Y-73448500D01*
X199231758Y-73448500D01*
X199327046Y-73467454D01*
X199347475Y-73477022D01*
X199411635Y-73510696D01*
X199565015Y-73548500D01*
X199565020Y-73548500D01*
X199722980Y-73548500D01*
X199722985Y-73548500D01*
X199876365Y-73510696D01*
X200016240Y-73437283D01*
X200134483Y-73332530D01*
X200224220Y-73202523D01*
X200280237Y-73054818D01*
X200299278Y-72898000D01*
X200280237Y-72741182D01*
X200224220Y-72593477D01*
X200224219Y-72593475D01*
X200223018Y-72591187D01*
X200221850Y-72587228D01*
X200218879Y-72579395D01*
X200219471Y-72579170D01*
X200195521Y-72498005D01*
X200194500Y-72475477D01*
X200194500Y-71383413D01*
X200196763Y-71317174D01*
X200187040Y-71277280D01*
X200184660Y-71264753D01*
X200181541Y-71242059D01*
X200179070Y-71224080D01*
X200176180Y-71217428D01*
X200162647Y-71177180D01*
X200160934Y-71170150D01*
X200160933Y-71170148D01*
X200140809Y-71134356D01*
X200135135Y-71122933D01*
X200131966Y-71115637D01*
X200118780Y-71085280D01*
X200114206Y-71079659D01*
X200090315Y-71044554D01*
X200086766Y-71038241D01*
X200086764Y-71038239D01*
X200057729Y-71009203D01*
X200049183Y-70999733D01*
X200023280Y-70967894D01*
X200023279Y-70967893D01*
X200023278Y-70967892D01*
X200017356Y-70963712D01*
X199984887Y-70936362D01*
X198724095Y-69675570D01*
X198670119Y-69594788D01*
X198651165Y-69499500D01*
X198670119Y-69404212D01*
X198724095Y-69323430D01*
X198804877Y-69269454D01*
X198900165Y-69250500D01*
X209500500Y-69250500D01*
X209595788Y-69269454D01*
G37*
%TD.AperFunction*%
%TA.AperFunction,Conductor*%
G36*
X179347999Y-86757093D02*
G01*
X179421045Y-86821152D01*
X179464015Y-86908287D01*
X179472500Y-86972734D01*
X179472500Y-88768309D01*
X179453546Y-88863597D01*
X179421046Y-88919889D01*
X179419140Y-88922372D01*
X179419137Y-88922376D01*
X179363671Y-89056285D01*
X179363671Y-89056287D01*
X179363670Y-89056289D01*
X179363670Y-89056291D01*
X179344750Y-89200000D01*
X179363670Y-89343709D01*
X179363670Y-89343711D01*
X179363671Y-89343712D01*
X179363671Y-89343714D01*
X179419136Y-89477621D01*
X179419141Y-89477628D01*
X179507374Y-89592616D01*
X179507383Y-89592625D01*
X179622371Y-89680858D01*
X179622378Y-89680863D01*
X179756287Y-89736329D01*
X179756289Y-89736329D01*
X179756291Y-89736330D01*
X179759388Y-89736737D01*
X179765301Y-89738744D01*
X179772057Y-89740555D01*
X179771938Y-89740997D01*
X179851386Y-89767964D01*
X179902961Y-89807538D01*
X180683792Y-90588368D01*
X180693094Y-90598778D01*
X180713939Y-90624917D01*
X180713940Y-90624917D01*
X180713942Y-90624920D01*
X180760576Y-90656715D01*
X180805986Y-90690229D01*
X180805990Y-90690230D01*
X180813137Y-90694007D01*
X180820414Y-90697511D01*
X180820419Y-90697515D01*
X180874338Y-90714146D01*
X180927626Y-90732793D01*
X180927630Y-90732793D01*
X180935537Y-90734288D01*
X180943560Y-90735498D01*
X180943565Y-90735500D01*
X180943570Y-90735500D01*
X180999981Y-90735500D01*
X181056405Y-90737611D01*
X181056405Y-90737610D01*
X181056407Y-90737611D01*
X181068188Y-90736284D01*
X181082140Y-90735500D01*
X183177783Y-90735500D01*
X183273071Y-90754454D01*
X183353853Y-90808430D01*
X184703906Y-92158483D01*
X185087332Y-92541908D01*
X185141308Y-92622690D01*
X185160262Y-92717978D01*
X185141308Y-92813266D01*
X185087332Y-92894048D01*
X185038013Y-92932303D01*
X184953439Y-92982319D01*
X184944641Y-92989144D01*
X184857730Y-93032567D01*
X184760817Y-93039425D01*
X184668657Y-93008675D01*
X184605886Y-92954201D01*
X184604889Y-92955127D01*
X184598789Y-92948553D01*
X184597283Y-92946735D01*
X184595280Y-92944997D01*
X184591714Y-92940285D01*
X184587669Y-92934805D01*
X184587652Y-92934781D01*
X184582853Y-92928278D01*
X184582852Y-92928277D01*
X184582851Y-92928275D01*
X184542951Y-92888375D01*
X184504553Y-92846992D01*
X184504552Y-92846991D01*
X184495288Y-92839603D01*
X184484871Y-92830294D01*
X183770206Y-92115630D01*
X183760903Y-92105220D01*
X183740058Y-92079080D01*
X183740057Y-92079079D01*
X183740056Y-92079078D01*
X183693422Y-92047283D01*
X183651674Y-92016472D01*
X183648014Y-92013771D01*
X183648013Y-92013770D01*
X183648011Y-92013769D01*
X183640893Y-92010006D01*
X183633583Y-92006486D01*
X183633581Y-92006485D01*
X183579653Y-91989850D01*
X183526375Y-91971208D01*
X183518415Y-91969701D01*
X183510438Y-91968500D01*
X183510435Y-91968500D01*
X183454008Y-91968500D01*
X183451628Y-91968410D01*
X183397591Y-91966388D01*
X183385811Y-91967716D01*
X183371860Y-91968500D01*
X180842955Y-91968500D01*
X180829003Y-91967716D01*
X180795784Y-91963973D01*
X180795782Y-91963973D01*
X180795781Y-91963973D01*
X180783012Y-91966389D01*
X180740311Y-91974468D01*
X180684512Y-91982878D01*
X180676777Y-91985263D01*
X180669161Y-91987929D01*
X180619250Y-92014308D01*
X180568402Y-92038794D01*
X180561757Y-92043324D01*
X180555219Y-92048150D01*
X180515309Y-92088060D01*
X180473937Y-92126448D01*
X180466546Y-92135716D01*
X180457241Y-92146127D01*
X179753802Y-92849569D01*
X179673021Y-92903546D01*
X179577733Y-92922500D01*
X178842440Y-92922500D01*
X178747152Y-92903546D01*
X178666370Y-92849570D01*
X178612394Y-92768788D01*
X178593440Y-92673500D01*
X178612394Y-92578212D01*
X178630734Y-92542421D01*
X178631052Y-92541908D01*
X178635061Y-92535433D01*
X178655705Y-92425000D01*
X178655705Y-92424997D01*
X178655733Y-92424848D01*
X178691874Y-92334665D01*
X178759775Y-92265177D01*
X178849099Y-92226964D01*
X178946247Y-92225842D01*
X178995780Y-92240556D01*
X179055222Y-92265177D01*
X179106291Y-92286330D01*
X179250000Y-92305250D01*
X179393709Y-92286330D01*
X179393714Y-92286328D01*
X179527621Y-92230863D01*
X179527622Y-92230862D01*
X179527625Y-92230861D01*
X179642621Y-92142621D01*
X179647920Y-92135716D01*
X179691378Y-92079080D01*
X179730861Y-92027625D01*
X179736600Y-92013771D01*
X179786328Y-91893714D01*
X179786328Y-91893713D01*
X179786330Y-91893709D01*
X179805250Y-91750000D01*
X179786330Y-91606291D01*
X179786328Y-91606285D01*
X179730863Y-91472378D01*
X179730858Y-91472371D01*
X179642625Y-91357383D01*
X179642616Y-91357374D01*
X179527628Y-91269141D01*
X179527621Y-91269136D01*
X179393713Y-91213671D01*
X179393710Y-91213670D01*
X179393709Y-91213670D01*
X179250000Y-91194750D01*
X179106289Y-91213670D01*
X179042586Y-91240057D01*
X178999997Y-91257698D01*
X178999992Y-91257700D01*
X178904703Y-91276653D01*
X178809415Y-91257698D01*
X178728634Y-91203721D01*
X178674658Y-91122940D01*
X178655705Y-91027653D01*
X178655705Y-89975002D01*
X178654401Y-89946795D01*
X178654401Y-89946793D01*
X178623656Y-89838736D01*
X178623654Y-89838733D01*
X178555955Y-89749084D01*
X178555952Y-89749082D01*
X178555952Y-89749081D01*
X178555950Y-89749079D01*
X178555948Y-89749078D01*
X178545419Y-89742559D01*
X178474381Y-89676282D01*
X178434114Y-89587864D01*
X178427500Y-89530855D01*
X178427500Y-87480214D01*
X178446454Y-87384926D01*
X178500428Y-87304147D01*
X178997038Y-86807536D01*
X179077817Y-86753562D01*
X179140614Y-86736737D01*
X179143709Y-86736330D01*
X179143711Y-86736329D01*
X179143712Y-86736329D01*
X179159053Y-86732219D01*
X179256000Y-86725864D01*
X179347999Y-86757093D01*
G37*
%TD.AperFunction*%
%TA.AperFunction,Conductor*%
G36*
X184878010Y-79169454D02*
G01*
X184958792Y-79223430D01*
X185012768Y-79304212D01*
X185028779Y-79384708D01*
X185029907Y-79384572D01*
X185031715Y-79399468D01*
X185031722Y-79399500D01*
X185031722Y-79399519D01*
X185031722Y-79399521D01*
X185031722Y-79399524D01*
X185046935Y-79524814D01*
X185050763Y-79556343D01*
X185077979Y-79628105D01*
X185106780Y-79704047D01*
X185196517Y-79834054D01*
X185314760Y-79938807D01*
X185454635Y-80012220D01*
X185608015Y-80050024D01*
X185608020Y-80050024D01*
X185765980Y-80050024D01*
X185765985Y-80050024D01*
X185919365Y-80012220D01*
X186059240Y-79938807D01*
X186177483Y-79834054D01*
X186267220Y-79704047D01*
X186323237Y-79556342D01*
X186324433Y-79546484D01*
X186354734Y-79454179D01*
X186418054Y-79380492D01*
X186504752Y-79336646D01*
X186571618Y-79327500D01*
X187157883Y-79327500D01*
X187253171Y-79346454D01*
X187333953Y-79400430D01*
X187355428Y-79424918D01*
X187407377Y-79492619D01*
X187407383Y-79492625D01*
X187522371Y-79580858D01*
X187522378Y-79580863D01*
X187656285Y-79636328D01*
X187656288Y-79636329D01*
X187656291Y-79636330D01*
X187688365Y-79640552D01*
X187780359Y-79671779D01*
X187853404Y-79735837D01*
X187896376Y-79822973D01*
X187902731Y-79919920D01*
X187871503Y-80011919D01*
X187831931Y-80063490D01*
X186495855Y-81399569D01*
X186415073Y-81453546D01*
X186319785Y-81472500D01*
X186249499Y-81472500D01*
X186154211Y-81453546D01*
X186073429Y-81399570D01*
X186019453Y-81318788D01*
X186000499Y-81223500D01*
X186000499Y-81155144D01*
X186000499Y-81155136D01*
X185997585Y-81130009D01*
X185952206Y-81027235D01*
X185872765Y-80947794D01*
X185769991Y-80902415D01*
X185769990Y-80902414D01*
X185769989Y-80902414D01*
X185744866Y-80899500D01*
X182455144Y-80899500D01*
X182455130Y-80899501D01*
X182430006Y-80902415D01*
X182327237Y-80947792D01*
X182247794Y-81027235D01*
X182202414Y-81130011D01*
X182199500Y-81155133D01*
X182199500Y-81223500D01*
X182180546Y-81318788D01*
X182126570Y-81399570D01*
X182045788Y-81453546D01*
X181950500Y-81472500D01*
X181831008Y-81472500D01*
X181817056Y-81471716D01*
X181783837Y-81467973D01*
X181783835Y-81467973D01*
X181783834Y-81467973D01*
X181764051Y-81471716D01*
X181728364Y-81478468D01*
X181672565Y-81486878D01*
X181664830Y-81489263D01*
X181657214Y-81491929D01*
X181607303Y-81518308D01*
X181556455Y-81542794D01*
X181549810Y-81547324D01*
X181543272Y-81552150D01*
X181503362Y-81592060D01*
X181461990Y-81630448D01*
X181454599Y-81639716D01*
X181445294Y-81650127D01*
X180719635Y-82375787D01*
X180709219Y-82385096D01*
X180683078Y-82405943D01*
X180670386Y-82419622D01*
X180669166Y-82418490D01*
X180616011Y-82470655D01*
X180530309Y-82505212D01*
X180548896Y-82530423D01*
X180572234Y-82624734D01*
X180572500Y-82636243D01*
X180572500Y-82691992D01*
X180570388Y-82748407D01*
X180571716Y-82760187D01*
X180572500Y-82774139D01*
X180572500Y-85369783D01*
X180553546Y-85465071D01*
X180499570Y-85545853D01*
X180499569Y-85545853D01*
X179932458Y-86112963D01*
X179851677Y-86166939D01*
X179756389Y-86185893D01*
X179661101Y-86166939D01*
X179580319Y-86112962D01*
X179526343Y-86032181D01*
X179480861Y-85922375D01*
X179448473Y-85880166D01*
X179392625Y-85807383D01*
X179392616Y-85807374D01*
X179277628Y-85719141D01*
X179277621Y-85719136D01*
X179143713Y-85663671D01*
X179143710Y-85663670D01*
X179143709Y-85663670D01*
X179000000Y-85644750D01*
X178856291Y-85663670D01*
X178856289Y-85663670D01*
X178856287Y-85663671D01*
X178856285Y-85663671D01*
X178722378Y-85719136D01*
X178722371Y-85719141D01*
X178607383Y-85807374D01*
X178607374Y-85807383D01*
X178519141Y-85922371D01*
X178519138Y-85922376D01*
X178463671Y-86056287D01*
X178463669Y-86056291D01*
X178463261Y-86059397D01*
X178461253Y-86065310D01*
X178459448Y-86072049D01*
X178459006Y-86071930D01*
X178432029Y-86151395D01*
X178392462Y-86202960D01*
X177719630Y-86875791D01*
X177709214Y-86885100D01*
X177683076Y-86905945D01*
X177651284Y-86952575D01*
X177617768Y-86997989D01*
X177613979Y-87005157D01*
X177610486Y-87012412D01*
X177593850Y-87066347D01*
X177575207Y-87119626D01*
X177573705Y-87127567D01*
X177572500Y-87135561D01*
X177572500Y-87191992D01*
X177570388Y-87248407D01*
X177571716Y-87260187D01*
X177572500Y-87274139D01*
X177572500Y-89241784D01*
X177553546Y-89337072D01*
X177499570Y-89417854D01*
X177418788Y-89471830D01*
X177323500Y-89490784D01*
X177228212Y-89471830D01*
X177147430Y-89417854D01*
X176699206Y-88969630D01*
X176689903Y-88959220D01*
X176669058Y-88933080D01*
X176669057Y-88933079D01*
X176669056Y-88933078D01*
X176622422Y-88901283D01*
X176577011Y-88867769D01*
X176569893Y-88864006D01*
X176562583Y-88860486D01*
X176562581Y-88860485D01*
X176537774Y-88852833D01*
X176508653Y-88843850D01*
X176455375Y-88825208D01*
X176447415Y-88823701D01*
X176439438Y-88822500D01*
X176439435Y-88822500D01*
X176383008Y-88822500D01*
X176380628Y-88822410D01*
X176326591Y-88820388D01*
X176314811Y-88821716D01*
X176300860Y-88822500D01*
X171280216Y-88822500D01*
X171184928Y-88803546D01*
X171104146Y-88749570D01*
X169950394Y-87595818D01*
X169896418Y-87515036D01*
X169877464Y-87419748D01*
X169896418Y-87324460D01*
X169950394Y-87243678D01*
X170031176Y-87189702D01*
X170093957Y-87172880D01*
X170143709Y-87166330D01*
X170143714Y-87166328D01*
X170277621Y-87110863D01*
X170277622Y-87110862D01*
X170277625Y-87110861D01*
X170392621Y-87022621D01*
X170480861Y-86907625D01*
X170507334Y-86843714D01*
X170536328Y-86773714D01*
X170536328Y-86773713D01*
X170536330Y-86773709D01*
X170555250Y-86630000D01*
X170543033Y-86537205D01*
X170549387Y-86440260D01*
X170592358Y-86353124D01*
X170665402Y-86289065D01*
X170757401Y-86257835D01*
X170789903Y-86255705D01*
X172449992Y-86255705D01*
X172450000Y-86255705D01*
X172450007Y-86255703D01*
X172450582Y-86255659D01*
X172450968Y-86255705D01*
X172459679Y-86255705D01*
X172459679Y-86256743D01*
X172547054Y-86267155D01*
X172631784Y-86314694D01*
X172691872Y-86391039D01*
X172718170Y-86484567D01*
X172713083Y-86539753D01*
X172715801Y-86540111D01*
X172713671Y-86556288D01*
X172713670Y-86556291D01*
X172694750Y-86700000D01*
X172713670Y-86843709D01*
X172713670Y-86843711D01*
X172713671Y-86843712D01*
X172713671Y-86843714D01*
X172769136Y-86977621D01*
X172769141Y-86977628D01*
X172857374Y-87092616D01*
X172857383Y-87092625D01*
X172972371Y-87180858D01*
X172972378Y-87180863D01*
X173068749Y-87220780D01*
X173106291Y-87236330D01*
X173250000Y-87255250D01*
X173393709Y-87236330D01*
X173393714Y-87236328D01*
X173527621Y-87180863D01*
X173527622Y-87180862D01*
X173527625Y-87180861D01*
X173642621Y-87092621D01*
X173642693Y-87092528D01*
X173696338Y-87022616D01*
X173730861Y-86977625D01*
X173741237Y-86952576D01*
X173786328Y-86843714D01*
X173786328Y-86843713D01*
X173786330Y-86843709D01*
X173805250Y-86700000D01*
X173786330Y-86556291D01*
X173778097Y-86536414D01*
X173759143Y-86441132D01*
X173778096Y-86345843D01*
X173832071Y-86265061D01*
X173868712Y-86238699D01*
X173867852Y-86237560D01*
X173936271Y-86185893D01*
X173975919Y-86155952D01*
X174035061Y-86060433D01*
X174055705Y-85950000D01*
X174055705Y-84450000D01*
X174054401Y-84421793D01*
X174023656Y-84313736D01*
X174023654Y-84313733D01*
X173955955Y-84224084D01*
X173955953Y-84224082D01*
X173955952Y-84224081D01*
X173860433Y-84164939D01*
X173753055Y-84144866D01*
X173750001Y-84144295D01*
X173750000Y-84144295D01*
X172750000Y-84144295D01*
X172749996Y-84144295D01*
X172749984Y-84144296D01*
X172676266Y-84153319D01*
X172661444Y-84157503D01*
X172564590Y-84165145D01*
X172548061Y-84162626D01*
X172453055Y-84144866D01*
X172450001Y-84144295D01*
X172450000Y-84144295D01*
X171926500Y-84144295D01*
X171831212Y-84125341D01*
X171750430Y-84071365D01*
X171696454Y-83990583D01*
X171677500Y-83895295D01*
X171677500Y-83499499D01*
X171696454Y-83404211D01*
X171750430Y-83323429D01*
X171831212Y-83269453D01*
X171926500Y-83250499D01*
X172894856Y-83250499D01*
X172894864Y-83250499D01*
X172919991Y-83247585D01*
X173022765Y-83202206D01*
X173102206Y-83122765D01*
X173147585Y-83019991D01*
X173150500Y-82994865D01*
X173150499Y-81505136D01*
X173147585Y-81480009D01*
X173144269Y-81472500D01*
X173102207Y-81377237D01*
X173102206Y-81377236D01*
X173102206Y-81377235D01*
X173090840Y-81365869D01*
X173036867Y-81285091D01*
X173017913Y-81189803D01*
X173036867Y-81094515D01*
X173090843Y-81013733D01*
X173604146Y-80500430D01*
X173684928Y-80446454D01*
X173780216Y-80427500D01*
X176929721Y-80427500D01*
X177025009Y-80446454D01*
X177105791Y-80500430D01*
X177159767Y-80581212D01*
X177178721Y-80676500D01*
X177174481Y-80722254D01*
X177169295Y-80749996D01*
X177169295Y-82249998D01*
X177170598Y-82278204D01*
X177201344Y-82386264D01*
X177201345Y-82386266D01*
X177269044Y-82475915D01*
X177269046Y-82475916D01*
X177269048Y-82475919D01*
X177364567Y-82535061D01*
X177364574Y-82535062D01*
X177386080Y-82543394D01*
X177384526Y-82547402D01*
X177434397Y-82567377D01*
X177503897Y-82635265D01*
X177542128Y-82724581D01*
X177547500Y-82776023D01*
X177547500Y-82993992D01*
X177546716Y-83007945D01*
X177542973Y-83041162D01*
X177542973Y-83041168D01*
X177553466Y-83096624D01*
X177561878Y-83152432D01*
X177564257Y-83160144D01*
X177566930Y-83167785D01*
X177566931Y-83167788D01*
X177566932Y-83167789D01*
X177593302Y-83217684D01*
X177610572Y-83253546D01*
X177617793Y-83268540D01*
X177622349Y-83275223D01*
X177627148Y-83281726D01*
X177647104Y-83301681D01*
X177667060Y-83321637D01*
X177705447Y-83363008D01*
X177714710Y-83370395D01*
X177725130Y-83379707D01*
X178025797Y-83680373D01*
X178035093Y-83690777D01*
X178055942Y-83716920D01*
X178102576Y-83748715D01*
X178147986Y-83782229D01*
X178147990Y-83782230D01*
X178155138Y-83786008D01*
X178162414Y-83789511D01*
X178162419Y-83789515D01*
X178216346Y-83806149D01*
X178269625Y-83824792D01*
X178271169Y-83825332D01*
X178354046Y-83873979D01*
X178427760Y-83939283D01*
X178567635Y-84012696D01*
X178721015Y-84050500D01*
X178721020Y-84050500D01*
X178878980Y-84050500D01*
X178878985Y-84050500D01*
X179032365Y-84012696D01*
X179172240Y-83939283D01*
X179290483Y-83834530D01*
X179380220Y-83704523D01*
X179436237Y-83556818D01*
X179455278Y-83400000D01*
X179436237Y-83243182D01*
X179380220Y-83095477D01*
X179290483Y-82965470D01*
X179290482Y-82965469D01*
X179281926Y-82953073D01*
X179283801Y-82951778D01*
X179245342Y-82885940D01*
X179232172Y-82789681D01*
X179256840Y-82695710D01*
X179315592Y-82618333D01*
X179399483Y-82569329D01*
X179480718Y-82555705D01*
X179924998Y-82555705D01*
X179925000Y-82555705D01*
X179953207Y-82554401D01*
X180061264Y-82523656D01*
X180150919Y-82455952D01*
X180150918Y-82455952D01*
X180169333Y-82442047D01*
X180171488Y-82444901D01*
X180217680Y-82410847D01*
X180270885Y-82397680D01*
X180234967Y-82308602D01*
X180232756Y-82261512D01*
X180230705Y-82261512D01*
X180230705Y-81782718D01*
X180249659Y-81687430D01*
X180303635Y-81606648D01*
X180384417Y-81552672D01*
X180479705Y-81533718D01*
X180512205Y-81535848D01*
X180537354Y-81539159D01*
X180607368Y-81548378D01*
X180607369Y-81548377D01*
X180607372Y-81548378D01*
X180751081Y-81529458D01*
X180751086Y-81529456D01*
X180884993Y-81473991D01*
X180884994Y-81473990D01*
X180884997Y-81473989D01*
X180999933Y-81385795D01*
X180999988Y-81385753D01*
X180999988Y-81385752D01*
X180999993Y-81385749D01*
X181088233Y-81270753D01*
X181136123Y-81155136D01*
X181143700Y-81136842D01*
X181143700Y-81136841D01*
X181143702Y-81136837D01*
X181162622Y-80993128D01*
X181143702Y-80849419D01*
X181141119Y-80843182D01*
X181088235Y-80715506D01*
X181088230Y-80715499D01*
X180999997Y-80600511D01*
X180999988Y-80600502D01*
X180885000Y-80512269D01*
X180884993Y-80512264D01*
X180751085Y-80456799D01*
X180751082Y-80456798D01*
X180751081Y-80456798D01*
X180607372Y-80437878D01*
X180463661Y-80456798D01*
X180370968Y-80495193D01*
X180329747Y-80512267D01*
X180329746Y-80512267D01*
X180317085Y-80517512D01*
X180221797Y-80536465D01*
X180126508Y-80517510D01*
X180090727Y-80499175D01*
X180035433Y-80464939D01*
X179991884Y-80456798D01*
X179955686Y-80450031D01*
X179865504Y-80413889D01*
X179796017Y-80345986D01*
X179757805Y-80256662D01*
X179756684Y-80159513D01*
X179792826Y-80069331D01*
X179825375Y-80029201D01*
X180154147Y-79700430D01*
X180234928Y-79646454D01*
X180330216Y-79627500D01*
X182952992Y-79627500D01*
X182966945Y-79628284D01*
X183000162Y-79632027D01*
X183000162Y-79632026D01*
X183000164Y-79632027D01*
X183055621Y-79621533D01*
X183111429Y-79613122D01*
X183111436Y-79613118D01*
X183119158Y-79610736D01*
X183126778Y-79608069D01*
X183126787Y-79608068D01*
X183176682Y-79581697D01*
X183227538Y-79557207D01*
X183227545Y-79557200D01*
X183234198Y-79552664D01*
X183234210Y-79552656D01*
X183234220Y-79552648D01*
X183240714Y-79547856D01*
X183240724Y-79547851D01*
X183280635Y-79507939D01*
X183322006Y-79469553D01*
X183322010Y-79469544D01*
X183329388Y-79460295D01*
X183338693Y-79449880D01*
X183507915Y-79280659D01*
X183565145Y-79223430D01*
X183645926Y-79169454D01*
X183741214Y-79150500D01*
X184782722Y-79150500D01*
X184878010Y-79169454D01*
G37*
%TD.AperFunction*%
%TA.AperFunction,Conductor*%
G36*
X176374465Y-69269454D02*
G01*
X176455247Y-69323430D01*
X176509223Y-69404212D01*
X176528177Y-69499500D01*
X176509223Y-69594788D01*
X176455247Y-69675570D01*
X176374465Y-69729546D01*
X176359216Y-69735285D01*
X176098577Y-69823760D01*
X176098559Y-69823767D01*
X175822239Y-69960034D01*
X175822222Y-69960044D01*
X175566040Y-70131219D01*
X175566036Y-70131222D01*
X175402660Y-70274500D01*
X175334381Y-70334379D01*
X175334379Y-70334381D01*
X175328891Y-70340639D01*
X175131222Y-70566036D01*
X175131220Y-70566038D01*
X175131219Y-70566040D01*
X174960044Y-70822221D01*
X174960034Y-70822238D01*
X174823767Y-71098559D01*
X174823760Y-71098578D01*
X174724721Y-71390333D01*
X174724720Y-71390340D01*
X174664610Y-71692529D01*
X174664608Y-71692541D01*
X174644457Y-72000000D01*
X174664608Y-72307458D01*
X174664610Y-72307470D01*
X174724720Y-72609659D01*
X174724721Y-72609666D01*
X174823760Y-72901421D01*
X174823767Y-72901440D01*
X174960034Y-73177760D01*
X174960035Y-73177761D01*
X174960040Y-73177771D01*
X175131222Y-73433964D01*
X175334380Y-73665620D01*
X175566036Y-73868778D01*
X175822229Y-74039960D01*
X175822238Y-74039964D01*
X175822239Y-74039965D01*
X176098559Y-74176232D01*
X176098566Y-74176234D01*
X176098573Y-74176238D01*
X176241708Y-74224826D01*
X176390333Y-74275278D01*
X176390336Y-74275278D01*
X176390341Y-74275280D01*
X176635082Y-74323962D01*
X176692529Y-74335389D01*
X176692534Y-74335389D01*
X176692540Y-74335391D01*
X176923059Y-74350500D01*
X176923065Y-74350500D01*
X177076935Y-74350500D01*
X177076941Y-74350500D01*
X177307460Y-74335391D01*
X177609659Y-74275280D01*
X177609664Y-74275278D01*
X177609666Y-74275278D01*
X177687344Y-74248909D01*
X177901427Y-74176238D01*
X177901436Y-74176233D01*
X177901440Y-74176232D01*
X178094309Y-74081119D01*
X178177771Y-74039960D01*
X178433964Y-73868778D01*
X178665620Y-73665620D01*
X178868778Y-73433964D01*
X179039960Y-73177772D01*
X179176238Y-72901427D01*
X179269903Y-72625500D01*
X179275278Y-72609666D01*
X179275278Y-72609664D01*
X179275280Y-72609659D01*
X179335391Y-72307460D01*
X179355543Y-72000000D01*
X179335391Y-71692540D01*
X179335346Y-71692316D01*
X179318948Y-71609877D01*
X179275280Y-71390341D01*
X179275278Y-71390336D01*
X179275278Y-71390333D01*
X179209951Y-71197888D01*
X179176238Y-71098573D01*
X179176234Y-71098566D01*
X179176232Y-71098559D01*
X179039965Y-70822239D01*
X179039964Y-70822238D01*
X179039960Y-70822229D01*
X178868778Y-70566036D01*
X178665620Y-70334380D01*
X178433964Y-70131222D01*
X178177771Y-69960040D01*
X178177766Y-69960037D01*
X178177760Y-69960034D01*
X177901440Y-69823767D01*
X177901422Y-69823760D01*
X177640784Y-69735285D01*
X177556645Y-69686708D01*
X177497501Y-69609629D01*
X177472356Y-69515785D01*
X177485038Y-69419461D01*
X177533615Y-69335322D01*
X177610694Y-69276178D01*
X177704538Y-69251033D01*
X177720823Y-69250500D01*
X181591836Y-69250500D01*
X181687124Y-69269454D01*
X181767906Y-69323430D01*
X181821882Y-69404212D01*
X181840836Y-69499500D01*
X181821882Y-69594788D01*
X181767908Y-69675565D01*
X181483440Y-69960034D01*
X181227381Y-70216093D01*
X181178956Y-70261319D01*
X181178955Y-70261320D01*
X181157623Y-70296398D01*
X181150449Y-70306940D01*
X181125640Y-70339654D01*
X181125637Y-70339660D01*
X181122974Y-70346414D01*
X181104099Y-70384415D01*
X181100327Y-70390617D01*
X181089248Y-70430159D01*
X181085184Y-70442244D01*
X181070123Y-70480438D01*
X181069380Y-70487661D01*
X181061458Y-70529339D01*
X181059501Y-70536322D01*
X181059500Y-70536336D01*
X181059500Y-70577385D01*
X181058847Y-70590124D01*
X181054648Y-70630970D01*
X181054648Y-70630973D01*
X181055879Y-70638110D01*
X181059500Y-70680419D01*
X181059500Y-74158602D01*
X181057238Y-74224826D01*
X181057238Y-74224831D01*
X181066955Y-74264703D01*
X181069337Y-74277234D01*
X181074929Y-74317917D01*
X181074929Y-74317919D01*
X181077817Y-74324566D01*
X181091352Y-74364816D01*
X181093065Y-74371846D01*
X181093068Y-74371854D01*
X181113190Y-74407641D01*
X181118863Y-74419064D01*
X181135218Y-74456717D01*
X181135222Y-74456723D01*
X181139793Y-74462342D01*
X181163676Y-74497432D01*
X181167232Y-74503756D01*
X181167234Y-74503759D01*
X181196270Y-74532795D01*
X181204804Y-74542250D01*
X181230722Y-74574108D01*
X181236638Y-74578284D01*
X181269111Y-74605636D01*
X182578091Y-75914616D01*
X182632067Y-75995398D01*
X182634840Y-76002389D01*
X182680780Y-76123523D01*
X182770517Y-76253530D01*
X182888760Y-76358283D01*
X183028635Y-76431696D01*
X183182015Y-76469500D01*
X183182020Y-76469500D01*
X183339980Y-76469500D01*
X183339985Y-76469500D01*
X183493365Y-76431696D01*
X183633240Y-76358283D01*
X183751483Y-76253530D01*
X183841220Y-76123523D01*
X183897237Y-75975818D01*
X183916278Y-75819000D01*
X183897237Y-75662182D01*
X183841220Y-75514477D01*
X183751483Y-75384470D01*
X183633240Y-75279717D01*
X183633239Y-75279716D01*
X183493365Y-75206304D01*
X183493363Y-75206303D01*
X183472460Y-75201151D01*
X183384477Y-75159943D01*
X183355982Y-75135457D01*
X182233430Y-74012905D01*
X182179454Y-73932123D01*
X182160500Y-73836835D01*
X182160500Y-72553532D01*
X182179454Y-72458244D01*
X182233430Y-72377462D01*
X182314212Y-72323486D01*
X182409500Y-72304532D01*
X182504788Y-72323486D01*
X182585570Y-72377462D01*
X182607904Y-72403077D01*
X182649738Y-72458244D01*
X182657078Y-72467922D01*
X182711448Y-72509152D01*
X182777659Y-72559362D01*
X182905204Y-72609659D01*
X182918436Y-72614877D01*
X183006898Y-72625500D01*
X183006901Y-72625500D01*
X183793099Y-72625500D01*
X183793102Y-72625500D01*
X183881564Y-72614877D01*
X183995364Y-72570000D01*
X184022340Y-72559362D01*
X184022340Y-72559361D01*
X184022342Y-72559361D01*
X184142922Y-72467922D01*
X184234361Y-72347342D01*
X184243437Y-72324325D01*
X184296023Y-72242636D01*
X184375870Y-72187287D01*
X184470820Y-72166706D01*
X184566419Y-72184029D01*
X184648111Y-72236616D01*
X184660120Y-72249056D01*
X184667466Y-72257215D01*
X184667467Y-72257216D01*
X184785543Y-72388352D01*
X184835218Y-72471848D01*
X184849500Y-72554966D01*
X184849500Y-73087406D01*
X184830546Y-73182694D01*
X184776570Y-73263476D01*
X184701077Y-73315189D01*
X184627237Y-73347792D01*
X184547794Y-73427235D01*
X184502414Y-73530011D01*
X184499500Y-73555133D01*
X184499500Y-76844855D01*
X184499501Y-76844869D01*
X184502415Y-76869993D01*
X184547792Y-76972762D01*
X184547793Y-76972763D01*
X184547794Y-76972765D01*
X184627235Y-77052206D01*
X184730009Y-77097585D01*
X184755135Y-77100500D01*
X186244864Y-77100499D01*
X186269991Y-77097585D01*
X186372765Y-77052206D01*
X186452206Y-76972765D01*
X186497585Y-76869991D01*
X186500500Y-76844865D01*
X186500499Y-73555136D01*
X186497585Y-73530009D01*
X186469964Y-73467454D01*
X186452207Y-73427237D01*
X186452206Y-73427236D01*
X186452206Y-73427235D01*
X186372765Y-73347794D01*
X186269991Y-73302415D01*
X186269990Y-73302414D01*
X186269989Y-73302414D01*
X186244867Y-73299500D01*
X186244865Y-73299500D01*
X186199500Y-73299500D01*
X186104212Y-73280546D01*
X186023430Y-73226570D01*
X185969454Y-73145788D01*
X185950500Y-73050500D01*
X185950500Y-72554966D01*
X185969454Y-72459678D01*
X186014456Y-72388353D01*
X186014457Y-72388352D01*
X186087600Y-72307118D01*
X186165443Y-72248991D01*
X186259608Y-72225075D01*
X186355758Y-72239016D01*
X186439254Y-72288690D01*
X186468368Y-72319812D01*
X186600272Y-72487541D01*
X186759034Y-72625109D01*
X186940967Y-72730148D01*
X186940971Y-72730149D01*
X187139483Y-72798855D01*
X187150000Y-72800366D01*
X187150000Y-71730617D01*
X187219052Y-71784363D01*
X187337424Y-71825000D01*
X187431073Y-71825000D01*
X187523446Y-71809586D01*
X187633514Y-71750019D01*
X187650000Y-71732110D01*
X187650000Y-72796258D01*
X187761411Y-72769230D01*
X187761414Y-72769229D01*
X187952496Y-72681965D01*
X187952500Y-72681962D01*
X188123619Y-72560109D01*
X188123630Y-72560099D01*
X188268587Y-72408072D01*
X188268591Y-72408067D01*
X188314980Y-72335886D01*
X188382442Y-72265972D01*
X188471523Y-72227196D01*
X188568663Y-72225462D01*
X188659072Y-72261034D01*
X188709492Y-72303889D01*
X188794129Y-72397888D01*
X188895927Y-72471848D01*
X188947271Y-72509152D01*
X189120189Y-72586141D01*
X189120192Y-72586142D01*
X189120197Y-72586144D01*
X189305354Y-72625500D01*
X189494645Y-72625500D01*
X189494646Y-72625500D01*
X189679803Y-72586144D01*
X189694962Y-72579395D01*
X189852728Y-72509152D01*
X189852728Y-72509151D01*
X189852730Y-72509151D01*
X190005871Y-72397888D01*
X190132533Y-72257216D01*
X190184359Y-72167448D01*
X190248417Y-72094405D01*
X190335553Y-72051434D01*
X190432500Y-72045079D01*
X190524499Y-72076308D01*
X190597544Y-72140366D01*
X190615641Y-72167450D01*
X190662755Y-72249056D01*
X190667467Y-72257216D01*
X190778983Y-72381067D01*
X190785543Y-72388352D01*
X190835218Y-72471848D01*
X190849500Y-72554966D01*
X190849500Y-73100500D01*
X190830546Y-73195788D01*
X190776570Y-73276570D01*
X190695788Y-73330546D01*
X190600502Y-73349500D01*
X190505145Y-73349500D01*
X190505130Y-73349501D01*
X190480006Y-73352415D01*
X190377237Y-73397792D01*
X190297794Y-73477235D01*
X190252414Y-73580011D01*
X190249500Y-73605133D01*
X190249500Y-76894855D01*
X190249501Y-76894869D01*
X190252415Y-76919993D01*
X190297792Y-77022762D01*
X190297793Y-77022763D01*
X190297794Y-77022765D01*
X190377235Y-77102206D01*
X190480009Y-77147585D01*
X190505135Y-77150500D01*
X190839501Y-77150499D01*
X190934788Y-77169453D01*
X191015569Y-77223429D01*
X191069546Y-77304210D01*
X191088500Y-77399498D01*
X191088500Y-78205384D01*
X191069546Y-78300672D01*
X191015570Y-78381454D01*
X190934788Y-78435430D01*
X190839500Y-78454384D01*
X190807000Y-78452254D01*
X190750001Y-78444750D01*
X190750000Y-78444750D01*
X190606291Y-78463670D01*
X190606289Y-78463670D01*
X190606287Y-78463671D01*
X190606285Y-78463671D01*
X190472378Y-78519136D01*
X190472371Y-78519141D01*
X190357383Y-78607374D01*
X190357374Y-78607383D01*
X190269141Y-78722371D01*
X190269138Y-78722376D01*
X190213671Y-78856287D01*
X190213669Y-78856292D01*
X190213261Y-78859396D01*
X190211254Y-78865307D01*
X190209448Y-78872049D01*
X190209005Y-78871930D01*
X190182031Y-78951394D01*
X190142461Y-79002961D01*
X189888491Y-79256933D01*
X189645855Y-79499569D01*
X189565073Y-79553546D01*
X189469785Y-79572500D01*
X188572734Y-79572500D01*
X188477446Y-79553546D01*
X188396664Y-79499570D01*
X188342688Y-79418788D01*
X188323734Y-79323500D01*
X188332217Y-79259059D01*
X188336326Y-79243717D01*
X188336330Y-79243709D01*
X188355250Y-79100000D01*
X188336330Y-78956291D01*
X188325626Y-78930448D01*
X188280863Y-78822378D01*
X188280858Y-78822371D01*
X188192625Y-78707383D01*
X188192616Y-78707374D01*
X188077628Y-78619141D01*
X188077621Y-78619136D01*
X187943714Y-78563671D01*
X187943710Y-78563670D01*
X187943709Y-78563670D01*
X187932110Y-78562142D01*
X187910619Y-78559313D01*
X187818621Y-78528081D01*
X187806474Y-78520129D01*
X187802016Y-78517773D01*
X187802014Y-78517771D01*
X187802010Y-78517769D01*
X187794852Y-78513986D01*
X187787580Y-78510484D01*
X187733653Y-78493850D01*
X187680375Y-78475208D01*
X187672415Y-78473701D01*
X187664438Y-78472500D01*
X187664435Y-78472500D01*
X187608008Y-78472500D01*
X187605628Y-78472410D01*
X187551591Y-78470388D01*
X187539811Y-78471716D01*
X187525860Y-78472500D01*
X186543789Y-78472500D01*
X186448501Y-78453546D01*
X186390198Y-78416146D01*
X186389896Y-78416590D01*
X186327845Y-78374283D01*
X186302854Y-78355839D01*
X186282437Y-78340771D01*
X186282436Y-78340770D01*
X186282434Y-78340769D01*
X186275316Y-78337006D01*
X186268006Y-78333486D01*
X186268004Y-78333485D01*
X186214076Y-78316850D01*
X186160798Y-78298208D01*
X186152838Y-78296701D01*
X186144861Y-78295500D01*
X186144858Y-78295500D01*
X186088431Y-78295500D01*
X186086051Y-78295410D01*
X186032014Y-78293388D01*
X186020234Y-78294716D01*
X186006283Y-78295500D01*
X183492005Y-78295500D01*
X183478052Y-78294716D01*
X183444834Y-78290973D01*
X183444833Y-78290973D01*
X183444832Y-78290973D01*
X183420906Y-78295500D01*
X183389362Y-78301468D01*
X183333563Y-78309878D01*
X183325828Y-78312263D01*
X183318212Y-78314929D01*
X183268301Y-78341308D01*
X183217453Y-78365794D01*
X183210808Y-78370324D01*
X183204270Y-78375150D01*
X183164360Y-78415060D01*
X183122986Y-78453450D01*
X183115595Y-78462717D01*
X183106291Y-78473128D01*
X182984764Y-78594657D01*
X182898029Y-78681393D01*
X182879854Y-78699568D01*
X182799073Y-78753545D01*
X182703785Y-78772500D01*
X181651837Y-78772500D01*
X181556549Y-78753546D01*
X181528519Y-78734817D01*
X181527863Y-78735428D01*
X181436811Y-78769320D01*
X181397143Y-78772500D01*
X180081008Y-78772500D01*
X180067056Y-78771716D01*
X180033837Y-78767973D01*
X180033835Y-78767973D01*
X180033834Y-78767973D01*
X180026715Y-78769320D01*
X179978364Y-78778468D01*
X179922565Y-78786878D01*
X179914830Y-78789263D01*
X179907214Y-78791929D01*
X179857303Y-78818308D01*
X179806455Y-78842794D01*
X179799810Y-78847324D01*
X179793272Y-78852150D01*
X179753362Y-78892060D01*
X179711990Y-78930448D01*
X179704599Y-78939716D01*
X179695294Y-78950127D01*
X179417211Y-79228212D01*
X179235630Y-79409794D01*
X179145855Y-79499569D01*
X179065074Y-79553546D01*
X178969786Y-79572500D01*
X177094902Y-79572500D01*
X176999614Y-79553546D01*
X176918832Y-79499570D01*
X176864856Y-79418788D01*
X176845902Y-79323500D01*
X176864856Y-79228212D01*
X176918832Y-79147430D01*
X176934845Y-79132757D01*
X176942642Y-79126212D01*
X176942654Y-79126205D01*
X177062296Y-78999393D01*
X177149467Y-78848407D01*
X177199469Y-78681388D01*
X177209607Y-78507340D01*
X177179332Y-78335646D01*
X177171224Y-78316850D01*
X177151835Y-78271900D01*
X177131497Y-78176898D01*
X177149064Y-78081344D01*
X177201860Y-77999786D01*
X177281848Y-77944641D01*
X177334177Y-77928618D01*
X177349161Y-77925783D01*
X177371625Y-77921533D01*
X177387568Y-77919129D01*
X177427431Y-77913122D01*
X177427439Y-77913117D01*
X177435160Y-77910736D01*
X177442780Y-77908069D01*
X177442789Y-77908068D01*
X177492684Y-77881697D01*
X177543540Y-77857207D01*
X177543547Y-77857200D01*
X177550200Y-77852664D01*
X177550212Y-77852656D01*
X177550222Y-77852648D01*
X177556716Y-77847856D01*
X177556726Y-77847851D01*
X177596638Y-77807938D01*
X177638008Y-77769553D01*
X177638010Y-77769549D01*
X177645390Y-77760295D01*
X177654704Y-77749872D01*
X177825913Y-77578663D01*
X180790393Y-77578663D01*
X180820667Y-77750353D01*
X180889720Y-77910438D01*
X180944034Y-77983393D01*
X180993832Y-78050283D01*
X181030849Y-78081344D01*
X181127387Y-78162350D01*
X181195193Y-78196403D01*
X181283185Y-78240594D01*
X181283187Y-78240594D01*
X181283191Y-78240596D01*
X181454566Y-78281212D01*
X181525977Y-78313880D01*
X181556549Y-78293454D01*
X181622931Y-78276184D01*
X181713160Y-78265638D01*
X181713164Y-78265637D01*
X181714310Y-78265220D01*
X181876993Y-78206008D01*
X182022654Y-78110205D01*
X182142296Y-77983393D01*
X182229467Y-77832407D01*
X182279469Y-77665388D01*
X182289607Y-77491340D01*
X182259332Y-77319646D01*
X182224853Y-77239713D01*
X182190279Y-77159561D01*
X182137947Y-77089268D01*
X182086168Y-77019717D01*
X182023811Y-76967393D01*
X181952612Y-76907649D01*
X181796815Y-76829406D01*
X181796808Y-76829403D01*
X181627177Y-76789201D01*
X181627173Y-76789200D01*
X181627171Y-76789200D01*
X181496564Y-76789200D01*
X181402216Y-76800227D01*
X181366833Y-76804363D01*
X181203007Y-76863992D01*
X181057344Y-76959796D01*
X180937704Y-77086605D01*
X180850534Y-77237590D01*
X180850532Y-77237594D01*
X180800532Y-77404606D01*
X180800531Y-77404609D01*
X180800531Y-77404612D01*
X180794707Y-77504605D01*
X180790393Y-77578657D01*
X180790393Y-77578663D01*
X177825913Y-77578663D01*
X178981146Y-76423430D01*
X179061928Y-76369454D01*
X179157216Y-76350500D01*
X179178980Y-76350500D01*
X179178985Y-76350500D01*
X179332365Y-76312696D01*
X179472240Y-76239283D01*
X179584886Y-76139487D01*
X179668776Y-76090490D01*
X179765035Y-76077324D01*
X179859005Y-76101997D01*
X179915111Y-76139486D01*
X180027760Y-76239283D01*
X180027761Y-76239283D01*
X180027763Y-76239285D01*
X180097697Y-76275989D01*
X180167635Y-76312696D01*
X180321015Y-76350500D01*
X180321020Y-76350500D01*
X180478980Y-76350500D01*
X180478985Y-76350500D01*
X180632365Y-76312696D01*
X180772240Y-76239283D01*
X180890483Y-76134530D01*
X180980220Y-76004523D01*
X181036237Y-75856818D01*
X181055278Y-75700000D01*
X181036237Y-75543182D01*
X180980220Y-75395477D01*
X180890483Y-75265470D01*
X180885622Y-75261164D01*
X180772239Y-75160716D01*
X180632367Y-75087305D01*
X180632366Y-75087304D01*
X180632365Y-75087304D01*
X180529155Y-75061865D01*
X180478986Y-75049500D01*
X180478985Y-75049500D01*
X180321015Y-75049500D01*
X180321013Y-75049500D01*
X180220673Y-75074231D01*
X180167635Y-75087304D01*
X180167634Y-75087304D01*
X180167632Y-75087305D01*
X180027763Y-75160714D01*
X179915116Y-75260510D01*
X179831222Y-75309509D01*
X179734964Y-75322675D01*
X179640994Y-75298001D01*
X179584884Y-75260510D01*
X179472240Y-75160717D01*
X179472238Y-75160716D01*
X179472236Y-75160714D01*
X179332367Y-75087305D01*
X179332366Y-75087304D01*
X179332365Y-75087304D01*
X179229155Y-75061865D01*
X179178986Y-75049500D01*
X179178985Y-75049500D01*
X179021015Y-75049500D01*
X179021013Y-75049500D01*
X178920673Y-75074231D01*
X178867635Y-75087304D01*
X178867634Y-75087304D01*
X178867632Y-75087305D01*
X178727760Y-75160716D01*
X178609519Y-75265467D01*
X178609517Y-75265469D01*
X178519781Y-75395475D01*
X178519779Y-75395479D01*
X178463762Y-75543184D01*
X178448071Y-75672410D01*
X178417769Y-75764718D01*
X178376957Y-75818464D01*
X177624352Y-76571070D01*
X177543570Y-76625047D01*
X177448282Y-76644001D01*
X177352994Y-76625047D01*
X177272213Y-76571071D01*
X177218236Y-76490289D01*
X177203065Y-76438240D01*
X177179332Y-76303646D01*
X177110279Y-76143561D01*
X177065848Y-76083880D01*
X177006168Y-76003717D01*
X176953209Y-75959279D01*
X176872612Y-75891649D01*
X176716815Y-75813406D01*
X176716808Y-75813403D01*
X176547177Y-75773201D01*
X176547173Y-75773200D01*
X176547171Y-75773200D01*
X176416564Y-75773200D01*
X176322216Y-75784227D01*
X176286833Y-75788363D01*
X176123007Y-75847992D01*
X175977344Y-75943796D01*
X175857704Y-76070605D01*
X175770534Y-76221590D01*
X175770532Y-76221594D01*
X175720532Y-76388606D01*
X175720531Y-76388609D01*
X175720531Y-76388612D01*
X175712539Y-76525802D01*
X175710393Y-76562657D01*
X175710393Y-76562663D01*
X175740668Y-76734356D01*
X175744826Y-76748244D01*
X175741777Y-76749156D01*
X175756918Y-76819878D01*
X175739352Y-76915431D01*
X175686556Y-76996990D01*
X175606569Y-77052135D01*
X175511566Y-77072474D01*
X175507944Y-77072500D01*
X172531008Y-77072500D01*
X172517056Y-77071716D01*
X172483837Y-77067973D01*
X172483835Y-77067973D01*
X172483834Y-77067973D01*
X172464051Y-77071716D01*
X172428364Y-77078468D01*
X172372566Y-77086878D01*
X172364816Y-77089268D01*
X172357216Y-77091928D01*
X172307308Y-77118305D01*
X172256457Y-77142794D01*
X172249786Y-77147342D01*
X172243277Y-77152145D01*
X172203375Y-77192048D01*
X172161990Y-77230448D01*
X172154601Y-77239713D01*
X172145295Y-77250126D01*
X167969630Y-81425791D01*
X167959214Y-81435100D01*
X167933076Y-81455945D01*
X167901284Y-81502575D01*
X167867768Y-81547989D01*
X167863979Y-81555157D01*
X167860486Y-81562412D01*
X167843850Y-81616347D01*
X167825207Y-81669626D01*
X167823705Y-81677567D01*
X167822500Y-81685561D01*
X167822500Y-81741992D01*
X167820388Y-81798407D01*
X167821716Y-81810187D01*
X167822500Y-81824139D01*
X167822500Y-85880166D01*
X167803546Y-85975454D01*
X167749570Y-86056236D01*
X167668788Y-86110212D01*
X167573500Y-86129166D01*
X167478212Y-86110212D01*
X167457785Y-86100645D01*
X167432367Y-86087305D01*
X167432368Y-86087305D01*
X167432365Y-86087304D01*
X167306315Y-86056236D01*
X167278986Y-86049500D01*
X167278985Y-86049500D01*
X167121015Y-86049500D01*
X167121013Y-86049500D01*
X167030011Y-86071930D01*
X166967635Y-86087304D01*
X166967634Y-86087304D01*
X166967632Y-86087305D01*
X166827760Y-86160716D01*
X166709519Y-86265467D01*
X166709516Y-86265470D01*
X166704422Y-86272851D01*
X166634692Y-86340504D01*
X166544381Y-86376323D01*
X166447237Y-86374854D01*
X166358050Y-86336323D01*
X166290397Y-86266593D01*
X166254578Y-86176282D01*
X166250500Y-86131401D01*
X166250500Y-77450000D01*
X168344417Y-77450000D01*
X168364700Y-77655934D01*
X168424768Y-77853955D01*
X168522316Y-78036452D01*
X168653583Y-78196403D01*
X168653596Y-78196416D01*
X168813547Y-78327683D01*
X168813548Y-78327683D01*
X168813550Y-78327685D01*
X168996046Y-78425232D01*
X169194066Y-78485300D01*
X169400000Y-78505583D01*
X169605934Y-78485300D01*
X169803954Y-78425232D01*
X169986450Y-78327685D01*
X170109601Y-78226618D01*
X170146403Y-78196416D01*
X170146404Y-78196414D01*
X170146410Y-78196410D01*
X170149050Y-78193194D01*
X170223392Y-78102607D01*
X170277685Y-78036450D01*
X170375232Y-77853954D01*
X170435300Y-77655934D01*
X170455583Y-77450000D01*
X170435300Y-77244066D01*
X170375232Y-77046046D01*
X170368944Y-77034283D01*
X170336062Y-76972765D01*
X170277685Y-76863550D01*
X170277683Y-76863547D01*
X170146416Y-76703596D01*
X170146403Y-76703583D01*
X169986452Y-76572316D01*
X169803955Y-76474768D01*
X169605934Y-76414700D01*
X169400000Y-76394417D01*
X169194065Y-76414700D01*
X168996044Y-76474768D01*
X168813547Y-76572316D01*
X168653596Y-76703583D01*
X168653583Y-76703596D01*
X168522316Y-76863547D01*
X168424768Y-77046044D01*
X168364700Y-77244065D01*
X168344417Y-77450000D01*
X166250500Y-77450000D01*
X166250500Y-72570000D01*
X168344417Y-72570000D01*
X168364700Y-72775934D01*
X168424768Y-72973955D01*
X168522316Y-73156452D01*
X168653583Y-73316403D01*
X168653596Y-73316416D01*
X168813547Y-73447683D01*
X168813548Y-73447683D01*
X168813550Y-73447685D01*
X168996046Y-73545232D01*
X169194066Y-73605300D01*
X169400000Y-73625583D01*
X169605934Y-73605300D01*
X169803954Y-73545232D01*
X169986450Y-73447685D01*
X170106088Y-73349501D01*
X170146403Y-73316416D01*
X170146404Y-73316414D01*
X170146410Y-73316410D01*
X170157896Y-73302415D01*
X170201379Y-73249430D01*
X170277685Y-73156450D01*
X170375232Y-72973954D01*
X170435300Y-72775934D01*
X170455583Y-72570000D01*
X170435300Y-72364066D01*
X170375232Y-72166046D01*
X170277685Y-71983550D01*
X170219996Y-71913255D01*
X170146416Y-71823596D01*
X170146403Y-71823583D01*
X169986452Y-71692316D01*
X169803955Y-71594768D01*
X169605934Y-71534700D01*
X169400000Y-71514417D01*
X169194065Y-71534700D01*
X168996044Y-71594768D01*
X168813547Y-71692316D01*
X168653596Y-71823583D01*
X168653583Y-71823596D01*
X168522316Y-71983547D01*
X168424768Y-72166044D01*
X168364700Y-72364065D01*
X168344417Y-72570000D01*
X166250500Y-72570000D01*
X166250500Y-69499500D01*
X166269454Y-69404212D01*
X166323430Y-69323430D01*
X166404212Y-69269454D01*
X166499500Y-69250500D01*
X176279177Y-69250500D01*
X176374465Y-69269454D01*
G37*
%TD.AperFunction*%
%TA.AperFunction,Conductor*%
G36*
X186415072Y-82346454D02*
G01*
X186495853Y-82400430D01*
X186699569Y-82604145D01*
X186753546Y-82684926D01*
X186772500Y-82780214D01*
X186772500Y-85166784D01*
X186753546Y-85262072D01*
X186699570Y-85342854D01*
X186618788Y-85396830D01*
X186523500Y-85415784D01*
X186428212Y-85396830D01*
X186347430Y-85342854D01*
X186124206Y-85119630D01*
X186114903Y-85109220D01*
X186094058Y-85083080D01*
X186094057Y-85083079D01*
X186094056Y-85083078D01*
X186047422Y-85051283D01*
X186002011Y-85017769D01*
X185994893Y-85014006D01*
X185987583Y-85010486D01*
X185987581Y-85010485D01*
X185933653Y-84993850D01*
X185880375Y-84975208D01*
X185872415Y-84973701D01*
X185864438Y-84972500D01*
X185864435Y-84972500D01*
X185808008Y-84972500D01*
X185805628Y-84972410D01*
X185751591Y-84970388D01*
X185739811Y-84971716D01*
X185725860Y-84972500D01*
X182281007Y-84972500D01*
X182267054Y-84971716D01*
X182233837Y-84967973D01*
X182233836Y-84967973D01*
X182233835Y-84967973D01*
X182233834Y-84967973D01*
X182197207Y-84974903D01*
X182178375Y-84978466D01*
X182122564Y-84986878D01*
X182114891Y-84989244D01*
X182107213Y-84991931D01*
X182107211Y-84991931D01*
X182107211Y-84991932D01*
X182058324Y-85017769D01*
X182057315Y-85018302D01*
X182006455Y-85042795D01*
X181999771Y-85047352D01*
X181993281Y-85052142D01*
X181953360Y-85092062D01*
X181911988Y-85130450D01*
X181904599Y-85139715D01*
X181895295Y-85150126D01*
X181852572Y-85192850D01*
X181771791Y-85246828D01*
X181676503Y-85265783D01*
X181581215Y-85246830D01*
X181500433Y-85192855D01*
X181446455Y-85112074D01*
X181427500Y-85016786D01*
X181427500Y-82980216D01*
X181446454Y-82884928D01*
X181500430Y-82804147D01*
X181779311Y-82525265D01*
X181860092Y-82471288D01*
X181955381Y-82452334D01*
X182050669Y-82471288D01*
X182131450Y-82525264D01*
X182185427Y-82606045D01*
X182197351Y-82651961D01*
X182197499Y-82651921D01*
X182202415Y-82669992D01*
X182247792Y-82772762D01*
X182247793Y-82772763D01*
X182247794Y-82772765D01*
X182327235Y-82852206D01*
X182430009Y-82897585D01*
X182455135Y-82900500D01*
X185744864Y-82900499D01*
X185769991Y-82897585D01*
X185872765Y-82852206D01*
X185952206Y-82772765D01*
X185997585Y-82669991D01*
X186000500Y-82644865D01*
X186000500Y-82576500D01*
X186019454Y-82481212D01*
X186073430Y-82400430D01*
X186154212Y-82346454D01*
X186249500Y-82327500D01*
X186319784Y-82327500D01*
X186415072Y-82346454D01*
G37*
%TD.AperFunction*%
%TA.AperFunction,Conductor*%
G36*
X190934788Y-79637168D02*
G01*
X191015570Y-79691144D01*
X191069546Y-79771926D01*
X191088500Y-79867214D01*
X191088500Y-79978992D01*
X191087716Y-79992945D01*
X191083973Y-80026162D01*
X191083973Y-80026168D01*
X191094466Y-80081624D01*
X191102878Y-80137432D01*
X191105257Y-80145144D01*
X191107930Y-80152785D01*
X191107931Y-80152788D01*
X191107932Y-80152789D01*
X191134302Y-80202684D01*
X191157024Y-80249867D01*
X191158793Y-80253540D01*
X191163349Y-80260223D01*
X191168149Y-80266726D01*
X191208061Y-80306638D01*
X191246446Y-80348007D01*
X191255705Y-80355391D01*
X191266125Y-80364703D01*
X193181788Y-82280364D01*
X193191098Y-82290783D01*
X193204289Y-82307324D01*
X193211940Y-82316917D01*
X193211942Y-82316920D01*
X193258576Y-82348715D01*
X193303986Y-82382229D01*
X193303990Y-82382230D01*
X193311138Y-82386008D01*
X193318414Y-82389511D01*
X193318419Y-82389515D01*
X193372346Y-82406149D01*
X193425625Y-82424792D01*
X193425630Y-82424792D01*
X193433560Y-82426291D01*
X193441558Y-82427497D01*
X193441565Y-82427500D01*
X193441572Y-82427500D01*
X193497992Y-82427500D01*
X193554405Y-82429611D01*
X193554405Y-82429610D01*
X193554408Y-82429611D01*
X193566189Y-82428284D01*
X193580140Y-82427500D01*
X195116784Y-82427500D01*
X195212072Y-82446454D01*
X195292854Y-82500430D01*
X195346830Y-82581212D01*
X195365784Y-82676500D01*
X195346830Y-82771788D01*
X195292854Y-82852569D01*
X194945855Y-83199569D01*
X194865074Y-83253546D01*
X194769785Y-83272500D01*
X192349499Y-83272500D01*
X192254211Y-83253546D01*
X192173429Y-83199570D01*
X192119453Y-83118788D01*
X192100499Y-83023500D01*
X192100499Y-82655144D01*
X192100499Y-82655136D01*
X192097585Y-82630009D01*
X192069930Y-82567377D01*
X192052207Y-82527237D01*
X192052206Y-82527236D01*
X192052206Y-82527235D01*
X191972765Y-82447794D01*
X191869991Y-82402415D01*
X191869990Y-82402414D01*
X191869989Y-82402414D01*
X191844866Y-82399500D01*
X188555144Y-82399500D01*
X188555130Y-82399501D01*
X188530006Y-82402415D01*
X188427237Y-82447792D01*
X188347794Y-82527235D01*
X188302414Y-82630011D01*
X188299500Y-82655133D01*
X188299500Y-83792783D01*
X188280546Y-83888071D01*
X188226570Y-83968853D01*
X188052570Y-84142853D01*
X187971788Y-84196829D01*
X187876500Y-84215783D01*
X187781212Y-84196829D01*
X187700430Y-84142853D01*
X187646454Y-84062071D01*
X187627500Y-83966783D01*
X187627500Y-82531006D01*
X187628284Y-82517053D01*
X187630432Y-82497986D01*
X187632027Y-82483834D01*
X187621533Y-82428376D01*
X187613122Y-82372569D01*
X187613119Y-82372563D01*
X187610749Y-82364879D01*
X187610739Y-82364849D01*
X187610730Y-82364821D01*
X187608068Y-82357212D01*
X187608068Y-82357211D01*
X187581702Y-82307324D01*
X187557207Y-82256460D01*
X187557204Y-82256457D01*
X187552675Y-82249814D01*
X187552663Y-82249798D01*
X187552640Y-82249764D01*
X187547852Y-82243277D01*
X187547851Y-82243276D01*
X187547850Y-82243274D01*
X187507951Y-82203375D01*
X187469553Y-82161992D01*
X187469552Y-82161991D01*
X187460288Y-82154603D01*
X187449871Y-82145294D01*
X187380646Y-82076070D01*
X187326670Y-81995288D01*
X187307716Y-81900000D01*
X187326670Y-81804712D01*
X187380646Y-81723931D01*
X187718781Y-81385795D01*
X187799562Y-81331818D01*
X187894851Y-81312864D01*
X187990139Y-81331818D01*
X188070920Y-81385794D01*
X188099772Y-81420413D01*
X188109515Y-81434528D01*
X188109519Y-81434532D01*
X188189225Y-81505144D01*
X188227760Y-81539283D01*
X188367635Y-81612696D01*
X188521015Y-81650500D01*
X188521020Y-81650500D01*
X188678980Y-81650500D01*
X188678985Y-81650500D01*
X188832365Y-81612696D01*
X188972240Y-81539283D01*
X189090483Y-81434530D01*
X189180220Y-81304523D01*
X189236237Y-81156818D01*
X189255278Y-81000000D01*
X189236237Y-80843182D01*
X189206508Y-80764794D01*
X189190442Y-80668980D01*
X189212265Y-80574307D01*
X189268656Y-80495193D01*
X189351031Y-80443681D01*
X189439328Y-80427500D01*
X189718994Y-80427500D01*
X189732947Y-80428284D01*
X189766164Y-80432027D01*
X189766164Y-80432026D01*
X189766166Y-80432027D01*
X189821623Y-80421533D01*
X189877431Y-80413122D01*
X189877438Y-80413118D01*
X189885160Y-80410736D01*
X189892780Y-80408069D01*
X189892789Y-80408068D01*
X189942684Y-80381697D01*
X189993540Y-80357207D01*
X189993547Y-80357200D01*
X190000200Y-80352664D01*
X190000212Y-80352656D01*
X190000222Y-80352648D01*
X190006716Y-80347856D01*
X190006726Y-80347851D01*
X190046637Y-80307939D01*
X190088008Y-80269553D01*
X190088010Y-80269549D01*
X190095394Y-80260290D01*
X190104699Y-80249876D01*
X190663433Y-79691141D01*
X190744212Y-79637168D01*
X190839500Y-79618214D01*
X190934788Y-79637168D01*
G37*
%TD.AperFunction*%
%TA.AperFunction,Conductor*%
G36*
X175628982Y-77946454D02*
G01*
X175709764Y-78000430D01*
X175763740Y-78081212D01*
X175782694Y-78176500D01*
X175772233Y-78247914D01*
X175720532Y-78420606D01*
X175720531Y-78420609D01*
X175720531Y-78420612D01*
X175714277Y-78527975D01*
X175710393Y-78594657D01*
X175710393Y-78594663D01*
X175740667Y-78766353D01*
X175809720Y-78926438D01*
X175864034Y-78999393D01*
X175913832Y-79066283D01*
X175913834Y-79066284D01*
X175913835Y-79066286D01*
X175993050Y-79132756D01*
X176053861Y-79208526D01*
X176081048Y-79301799D01*
X176070470Y-79398377D01*
X176023739Y-79483555D01*
X175947969Y-79544366D01*
X175854696Y-79571553D01*
X175832995Y-79572500D01*
X173531008Y-79572500D01*
X173517056Y-79571716D01*
X173483837Y-79567973D01*
X173483835Y-79567973D01*
X173483834Y-79567973D01*
X173464913Y-79571553D01*
X173428364Y-79578468D01*
X173372566Y-79586878D01*
X173364816Y-79589268D01*
X173357216Y-79591928D01*
X173307308Y-79618305D01*
X173256457Y-79642794D01*
X173249786Y-79647342D01*
X173243277Y-79652145D01*
X173203375Y-79692048D01*
X173161990Y-79730448D01*
X173154601Y-79739713D01*
X173145295Y-79750126D01*
X171718852Y-81176570D01*
X171638070Y-81230546D01*
X171542782Y-81249500D01*
X169956215Y-81249500D01*
X169860927Y-81230546D01*
X169780145Y-81176570D01*
X169726169Y-81095788D01*
X169707215Y-81000500D01*
X169726169Y-80905212D01*
X169780142Y-80824433D01*
X172604146Y-78000430D01*
X172684928Y-77946454D01*
X172780216Y-77927500D01*
X175533694Y-77927500D01*
X175628982Y-77946454D01*
G37*
%TD.AperFunction*%
%TA.AperFunction,Conductor*%
G36*
X197630123Y-70165454D02*
G01*
X197710905Y-70219430D01*
X199020570Y-71529095D01*
X199074546Y-71609877D01*
X199093500Y-71705165D01*
X199093500Y-72096753D01*
X199074546Y-72192041D01*
X199020570Y-72272823D01*
X198939788Y-72326799D01*
X198844500Y-72345753D01*
X198836011Y-72345608D01*
X198825174Y-72345238D01*
X198825172Y-72345238D01*
X198785287Y-72354957D01*
X198772757Y-72357338D01*
X198732082Y-72362929D01*
X198732073Y-72362931D01*
X198725431Y-72365817D01*
X198685190Y-72379350D01*
X198678155Y-72381064D01*
X198678146Y-72381067D01*
X198642360Y-72401188D01*
X198630941Y-72406860D01*
X198593281Y-72423219D01*
X198587654Y-72427797D01*
X198552562Y-72451680D01*
X198546245Y-72455232D01*
X198546239Y-72455236D01*
X198517208Y-72484265D01*
X198507747Y-72492803D01*
X198475895Y-72518718D01*
X198475889Y-72518725D01*
X198471706Y-72524651D01*
X198444360Y-72557114D01*
X197202905Y-73798570D01*
X197122123Y-73852546D01*
X197026835Y-73871500D01*
X196097397Y-73871500D01*
X196031174Y-73869238D01*
X196031172Y-73869238D01*
X195991287Y-73878957D01*
X195978757Y-73881338D01*
X195938082Y-73886929D01*
X195938073Y-73886931D01*
X195931431Y-73889817D01*
X195891190Y-73903350D01*
X195884155Y-73905064D01*
X195884146Y-73905067D01*
X195848360Y-73925188D01*
X195836941Y-73930860D01*
X195799281Y-73947219D01*
X195793654Y-73951797D01*
X195758562Y-73975680D01*
X195752241Y-73979233D01*
X195723210Y-74008265D01*
X195713741Y-74016810D01*
X195681890Y-74042723D01*
X195677703Y-74048655D01*
X195650356Y-74081119D01*
X195197382Y-74534092D01*
X195148956Y-74579319D01*
X195148955Y-74579320D01*
X195127623Y-74614398D01*
X195120449Y-74624940D01*
X195095640Y-74657654D01*
X195095637Y-74657660D01*
X195092974Y-74664414D01*
X195074099Y-74702415D01*
X195070327Y-74708617D01*
X195059248Y-74748159D01*
X195055184Y-74760244D01*
X195040123Y-74798438D01*
X195039380Y-74805661D01*
X195031458Y-74847339D01*
X195029501Y-74854322D01*
X195029500Y-74854336D01*
X195029500Y-74895385D01*
X195028847Y-74908124D01*
X195024648Y-74948970D01*
X195024648Y-74948973D01*
X195025879Y-74956110D01*
X195029500Y-74998419D01*
X195029500Y-77138835D01*
X195010546Y-77234123D01*
X194956570Y-77314905D01*
X194154905Y-78116570D01*
X194074123Y-78170546D01*
X193978835Y-78189500D01*
X192519427Y-78189500D01*
X192453174Y-78187237D01*
X192453169Y-78187237D01*
X192413281Y-78196957D01*
X192400757Y-78199337D01*
X192360082Y-78204929D01*
X192360074Y-78204931D01*
X192353423Y-78207820D01*
X192313198Y-78221347D01*
X192306156Y-78223063D01*
X192290302Y-78229315D01*
X192289238Y-78226618D01*
X192222165Y-78248532D01*
X192125297Y-78241065D01*
X192038660Y-78197097D01*
X191975445Y-78123321D01*
X191945273Y-78030970D01*
X191943500Y-78001305D01*
X191943500Y-77343607D01*
X191962454Y-77248319D01*
X192016430Y-77167537D01*
X192091925Y-77115823D01*
X192122765Y-77102206D01*
X192198933Y-77026037D01*
X192279712Y-76972064D01*
X192375000Y-76953110D01*
X192470288Y-76972064D01*
X192551066Y-77026037D01*
X192627235Y-77102206D01*
X192730009Y-77147585D01*
X192755135Y-77150500D01*
X194244864Y-77150499D01*
X194269991Y-77147585D01*
X194372765Y-77102206D01*
X194452206Y-77022765D01*
X194497585Y-76919991D01*
X194500500Y-76894865D01*
X194500499Y-73605136D01*
X194497585Y-73580009D01*
X194483672Y-73548500D01*
X194452207Y-73477237D01*
X194452206Y-73477236D01*
X194452206Y-73477235D01*
X194372765Y-73397794D01*
X194269991Y-73352415D01*
X194269990Y-73352414D01*
X194269989Y-73352414D01*
X194244867Y-73349500D01*
X194244865Y-73349500D01*
X194199500Y-73349500D01*
X194104212Y-73330546D01*
X194023430Y-73276570D01*
X193969454Y-73195788D01*
X193950500Y-73100500D01*
X193950500Y-72554966D01*
X193969454Y-72459678D01*
X194014457Y-72388352D01*
X194132533Y-72257216D01*
X194227179Y-72093284D01*
X194285674Y-71913256D01*
X194294950Y-71825000D01*
X194300500Y-71772195D01*
X194300500Y-71127804D01*
X194285674Y-70986744D01*
X194279549Y-70967894D01*
X194227179Y-70806716D01*
X194132533Y-70642784D01*
X194059896Y-70562113D01*
X194010222Y-70478618D01*
X193996281Y-70382469D01*
X194020196Y-70288303D01*
X194078326Y-70210457D01*
X194161822Y-70160782D01*
X194244940Y-70146500D01*
X197534835Y-70146500D01*
X197630123Y-70165454D01*
G37*
%TD.AperFunction*%
%TD*%
%TA.AperFunction,Conductor*%
%TO.N,+5V*%
G36*
X204346288Y-87518954D02*
G01*
X204427070Y-87572930D01*
X204481046Y-87653712D01*
X204500000Y-87749000D01*
X204500000Y-95600000D01*
X206351000Y-95600000D01*
X206446288Y-95618954D01*
X206527070Y-95672930D01*
X206581046Y-95753712D01*
X206600000Y-95849000D01*
X206600000Y-99151000D01*
X206581046Y-99246288D01*
X206527070Y-99327070D01*
X206446288Y-99381046D01*
X206351000Y-99400000D01*
X201349000Y-99400000D01*
X201253712Y-99381046D01*
X201172930Y-99327070D01*
X201118954Y-99246288D01*
X201100000Y-99151000D01*
X201100000Y-87749000D01*
X201118954Y-87653712D01*
X201172930Y-87572930D01*
X201253712Y-87518954D01*
X201349000Y-87500000D01*
X204251000Y-87500000D01*
X204346288Y-87518954D01*
G37*
%TD.AperFunction*%
%TD*%
M02*
